<?xml version="1.0" encoding="utf-8" standalone="no"?>
<!DOCTYPE svg PUBLIC "-//W3C//DTD SVG 1.1//EN"
  "http://www.w3.org/Graphics/SVG/1.1/DTD/svg11.dtd">
<!-- Created with matplotlib (https://matplotlib.org/) -->
<svg height="345.6pt" version="1.1" viewBox="0 0 460.8 345.6" width="460.8pt" xmlns="http://www.w3.org/2000/svg" xmlns:xlink="http://www.w3.org/1999/xlink">
 <metadata>
  <rdf:RDF xmlns:cc="http://creativecommons.org/ns#" xmlns:dc="http://purl.org/dc/elements/1.1/" xmlns:rdf="http://www.w3.org/1999/02/22-rdf-syntax-ns#">
   <cc:Work>
    <dc:type rdf:resource="http://purl.org/dc/dcmitype/StillImage"/>
    <dc:date>2021-04-15T14:41:53.612251</dc:date>
    <dc:format>image/svg+xml</dc:format>
    <dc:creator>
     <cc:Agent>
      <dc:title>Matplotlib v3.3.4, https://matplotlib.org/</dc:title>
     </cc:Agent>
    </dc:creator>
   </cc:Work>
  </rdf:RDF>
 </metadata>
 <defs>
  <style type="text/css">*{stroke-linecap:butt;stroke-linejoin:round;}</style>
 </defs>
 <g id="figure_1">
  <g id="patch_1">
   <path d="M 0 345.6 
L 460.8 345.6 
L 460.8 0 
L 0 0 
z
" style="fill:#ffffff;"/>
  </g>
  <g id="patch_2">
   <path d="M 103.104 307.584 
L 369.216 307.584 
L 369.216 41.472 
L 103.104 41.472 
z
" style="fill:#ffffff;"/>
  </g>
  <g id="pane3d_1">
   <g id="patch_3">
    <path d="M 123.197291 241.969309 
L 211.076164 168.307495 
L 209.854564 62.073991 
L 117.770234 129.272941 
" style="fill:#f2f2f2;opacity:0.5;stroke:#f2f2f2;stroke-linejoin:miter;"/>
   </g>
  </g>
  <g id="pane3d_2">
   <g id="patch_4">
    <path d="M 211.076164 168.307495 
L 352.090401 209.294766 
L 357.122702 99.402171 
L 209.854564 62.073991 
" style="fill:#e6e6e6;opacity:0.5;stroke:#e6e6e6;stroke-linejoin:miter;"/>
   </g>
  </g>
  <g id="pane3d_3">
   <g id="patch_5">
    <path d="M 123.197291 241.969309 
L 272.679269 290.790123 
L 352.090401 209.294766 
L 211.076164 168.307495 
" style="fill:#ececec;opacity:0.5;stroke:#ececec;stroke-linejoin:miter;"/>
   </g>
  </g>
  <g id="axis3d_1">
   <g id="line2d_1">
    <path d="M 123.197291 241.969309 
L 272.679269 290.790123 
" style="fill:none;stroke:#000000;stroke-linecap:square;stroke-width:0.8;"/>
   </g>
   <g id="text_1">
    <!-- ATAC -->
    <g transform="translate(167.15299 303.76759)scale(0.1 -0.1)">
     <defs>
      <path d="M 34.1875 63.1875 
L 20.796875 26.90625 
L 47.609375 26.90625 
z
M 28.609375 72.90625 
L 39.796875 72.90625 
L 67.578125 0 
L 57.328125 0 
L 50.6875 18.703125 
L 17.828125 18.703125 
L 11.1875 0 
L 0.78125 0 
z
" id="DejaVuSans-65"/>
      <path d="M -0.296875 72.90625 
L 61.375 72.90625 
L 61.375 64.59375 
L 35.5 64.59375 
L 35.5 0 
L 25.59375 0 
L 25.59375 64.59375 
L -0.296875 64.59375 
z
" id="DejaVuSans-84"/>
      <path d="M 64.40625 67.28125 
L 64.40625 56.890625 
Q 59.421875 61.53125 53.78125 63.8125 
Q 48.140625 66.109375 41.796875 66.109375 
Q 29.296875 66.109375 22.65625 58.46875 
Q 16.015625 50.828125 16.015625 36.375 
Q 16.015625 21.96875 22.65625 14.328125 
Q 29.296875 6.6875 41.796875 6.6875 
Q 48.140625 6.6875 53.78125 8.984375 
Q 59.421875 11.28125 64.40625 15.921875 
L 64.40625 5.609375 
Q 59.234375 2.09375 53.4375 0.328125 
Q 47.65625 -1.421875 41.21875 -1.421875 
Q 24.65625 -1.421875 15.125 8.703125 
Q 5.609375 18.84375 5.609375 36.375 
Q 5.609375 53.953125 15.125 64.078125 
Q 24.65625 74.21875 41.21875 74.21875 
Q 47.75 74.21875 53.53125 72.484375 
Q 59.328125 70.75 64.40625 67.28125 
z
" id="DejaVuSans-67"/>
     </defs>
     <use xlink:href="#DejaVuSans-65"/>
     <use x="60.658203" xlink:href="#DejaVuSans-84"/>
     <use x="113.992188" xlink:href="#DejaVuSans-65"/>
     <use x="180.650391" xlink:href="#DejaVuSans-67"/>
    </g>
   </g>
   <g id="Line3DCollection_1">
    <path d="M 132.250704 244.926154 
L 219.652219 170.800215 
L 218.79322 64.33968 
" style="fill:none;stroke:#b0b0b0;stroke-width:0.8;"/>
    <path d="M 158.860383 253.616875 
L 244.832268 178.119062 
L 245.051157 70.995301 
" style="fill:none;stroke:#b0b0b0;stroke-width:0.8;"/>
    <path d="M 185.986382 262.476226 
L 270.460146 185.568074 
L 271.796415 77.774445 
" style="fill:none;stroke:#b0b0b0;stroke-width:0.8;"/>
    <path d="M 213.643877 271.509164 
L 296.547905 193.150756 
L 299.042689 84.680581 
" style="fill:none;stroke:#b0b0b0;stroke-width:0.8;"/>
    <path d="M 241.848644 280.72084 
L 323.108037 200.870737 
L 326.80419 91.717312 
" style="fill:none;stroke:#b0b0b0;stroke-width:0.8;"/>
   </g>
   <g id="xtick_1">
    <g id="line2d_2">
     <path d="M 133.011792 244.280669 
L 130.725263 246.219892 
" style="fill:none;stroke:#000000;stroke-linecap:square;stroke-width:0.8;"/>
    </g>
    <g id="text_2">
     <!-- 0.0 -->
     <g transform="translate(116.770092 268.235303)scale(0.1 -0.1)">
      <defs>
       <path d="M 31.78125 66.40625 
Q 24.171875 66.40625 20.328125 58.90625 
Q 16.5 51.421875 16.5 36.375 
Q 16.5 21.390625 20.328125 13.890625 
Q 24.171875 6.390625 31.78125 6.390625 
Q 39.453125 6.390625 43.28125 13.890625 
Q 47.125 21.390625 47.125 36.375 
Q 47.125 51.421875 43.28125 58.90625 
Q 39.453125 66.40625 31.78125 66.40625 
z
M 31.78125 74.21875 
Q 44.046875 74.21875 50.515625 64.515625 
Q 56.984375 54.828125 56.984375 36.375 
Q 56.984375 17.96875 50.515625 8.265625 
Q 44.046875 -1.421875 31.78125 -1.421875 
Q 19.53125 -1.421875 13.0625 8.265625 
Q 6.59375 17.96875 6.59375 36.375 
Q 6.59375 54.828125 13.0625 64.515625 
Q 19.53125 74.21875 31.78125 74.21875 
z
" id="DejaVuSans-48"/>
       <path d="M 10.6875 12.40625 
L 21 12.40625 
L 21 0 
L 10.6875 0 
z
" id="DejaVuSans-46"/>
      </defs>
      <use xlink:href="#DejaVuSans-48"/>
      <use x="63.623047" xlink:href="#DejaVuSans-46"/>
      <use x="95.410156" xlink:href="#DejaVuSans-48"/>
     </g>
    </g>
   </g>
   <g id="xtick_2">
    <g id="line2d_3">
     <path d="M 159.609605 252.958931 
L 157.358691 254.935613 
" style="fill:none;stroke:#000000;stroke-linecap:square;stroke-width:0.8;"/>
    </g>
    <g id="text_3">
     <!-- 0.2 -->
     <g transform="translate(143.407025 277.110164)scale(0.1 -0.1)">
      <defs>
       <path d="M 19.1875 8.296875 
L 53.609375 8.296875 
L 53.609375 0 
L 7.328125 0 
L 7.328125 8.296875 
Q 12.9375 14.109375 22.625 23.890625 
Q 32.328125 33.6875 34.8125 36.53125 
Q 39.546875 41.84375 41.421875 45.53125 
Q 43.3125 49.21875 43.3125 52.78125 
Q 43.3125 58.59375 39.234375 62.25 
Q 35.15625 65.921875 28.609375 65.921875 
Q 23.96875 65.921875 18.8125 64.3125 
Q 13.671875 62.703125 7.8125 59.421875 
L 7.8125 69.390625 
Q 13.765625 71.78125 18.9375 73 
Q 24.125 74.21875 28.421875 74.21875 
Q 39.75 74.21875 46.484375 68.546875 
Q 53.21875 62.890625 53.21875 53.421875 
Q 53.21875 48.921875 51.53125 44.890625 
Q 49.859375 40.875 45.40625 35.40625 
Q 44.1875 33.984375 37.640625 27.21875 
Q 31.109375 20.453125 19.1875 8.296875 
z
" id="DejaVuSans-50"/>
      </defs>
      <use xlink:href="#DejaVuSans-48"/>
      <use x="63.623047" xlink:href="#DejaVuSans-46"/>
      <use x="95.410156" xlink:href="#DejaVuSans-50"/>
     </g>
    </g>
   </g>
   <g id="xtick_3">
    <g id="line2d_4">
     <path d="M 186.723135 261.805459 
L 184.509655 263.820695 
" style="fill:none;stroke:#000000;stroke-linecap:square;stroke-width:0.8;"/>
    </g>
    <g id="text_4">
     <!-- 0.4 -->
     <g transform="translate(170.562767 286.157882)scale(0.1 -0.1)">
      <defs>
       <path d="M 37.796875 64.3125 
L 12.890625 25.390625 
L 37.796875 25.390625 
z
M 35.203125 72.90625 
L 47.609375 72.90625 
L 47.609375 25.390625 
L 58.015625 25.390625 
L 58.015625 17.1875 
L 47.609375 17.1875 
L 47.609375 0 
L 37.796875 0 
L 37.796875 17.1875 
L 4.890625 17.1875 
L 4.890625 26.703125 
z
" id="DejaVuSans-52"/>
      </defs>
      <use xlink:href="#DejaVuSans-48"/>
      <use x="63.623047" xlink:href="#DejaVuSans-46"/>
      <use x="95.410156" xlink:href="#DejaVuSans-52"/>
     </g>
    </g>
   </g>
   <g id="xtick_4">
    <g id="line2d_5">
     <path d="M 214.367525 270.825194 
L 212.193386 272.880125 
" style="fill:none;stroke:#000000;stroke-linecap:square;stroke-width:0.8;"/>
    </g>
    <g id="text_5">
     <!-- 0.6 -->
     <g transform="translate(198.252623 295.383555)scale(0.1 -0.1)">
      <defs>
       <path d="M 33.015625 40.375 
Q 26.375 40.375 22.484375 35.828125 
Q 18.609375 31.296875 18.609375 23.390625 
Q 18.609375 15.53125 22.484375 10.953125 
Q 26.375 6.390625 33.015625 6.390625 
Q 39.65625 6.390625 43.53125 10.953125 
Q 47.40625 15.53125 47.40625 23.390625 
Q 47.40625 31.296875 43.53125 35.828125 
Q 39.65625 40.375 33.015625 40.375 
z
M 52.59375 71.296875 
L 52.59375 62.3125 
Q 48.875 64.0625 45.09375 64.984375 
Q 41.3125 65.921875 37.59375 65.921875 
Q 27.828125 65.921875 22.671875 59.328125 
Q 17.53125 52.734375 16.796875 39.40625 
Q 19.671875 43.65625 24.015625 45.921875 
Q 28.375 48.1875 33.59375 48.1875 
Q 44.578125 48.1875 50.953125 41.515625 
Q 57.328125 34.859375 57.328125 23.390625 
Q 57.328125 12.15625 50.6875 5.359375 
Q 44.046875 -1.421875 33.015625 -1.421875 
Q 20.359375 -1.421875 13.671875 8.265625 
Q 6.984375 17.96875 6.984375 36.375 
Q 6.984375 53.65625 15.1875 63.9375 
Q 23.390625 74.21875 37.203125 74.21875 
Q 40.921875 74.21875 44.703125 73.484375 
Q 48.484375 72.75 52.59375 71.296875 
z
" id="DejaVuSans-54"/>
      </defs>
      <use xlink:href="#DejaVuSans-48"/>
      <use x="63.623047" xlink:href="#DejaVuSans-46"/>
      <use x="95.410156" xlink:href="#DejaVuSans-54"/>
     </g>
    </g>
   </g>
   <g id="xtick_5">
    <g id="line2d_6">
     <path d="M 242.558521 280.023275 
L 240.425723 282.119084 
" style="fill:none;stroke:#000000;stroke-linecap:square;stroke-width:0.8;"/>
    </g>
    <g id="text_6">
     <!-- 0.8 -->
     <g transform="translate(226.492508 304.792486)scale(0.1 -0.1)">
      <defs>
       <path d="M 31.78125 34.625 
Q 24.75 34.625 20.71875 30.859375 
Q 16.703125 27.09375 16.703125 20.515625 
Q 16.703125 13.921875 20.71875 10.15625 
Q 24.75 6.390625 31.78125 6.390625 
Q 38.8125 6.390625 42.859375 10.171875 
Q 46.921875 13.96875 46.921875 20.515625 
Q 46.921875 27.09375 42.890625 30.859375 
Q 38.875 34.625 31.78125 34.625 
z
M 21.921875 38.8125 
Q 15.578125 40.375 12.03125 44.71875 
Q 8.5 49.078125 8.5 55.328125 
Q 8.5 64.0625 14.71875 69.140625 
Q 20.953125 74.21875 31.78125 74.21875 
Q 42.671875 74.21875 48.875 69.140625 
Q 55.078125 64.0625 55.078125 55.328125 
Q 55.078125 49.078125 51.53125 44.71875 
Q 48 40.375 41.703125 38.8125 
Q 48.828125 37.15625 52.796875 32.3125 
Q 56.78125 27.484375 56.78125 20.515625 
Q 56.78125 9.90625 50.3125 4.234375 
Q 43.84375 -1.421875 31.78125 -1.421875 
Q 19.734375 -1.421875 13.25 4.234375 
Q 6.78125 9.90625 6.78125 20.515625 
Q 6.78125 27.484375 10.78125 32.3125 
Q 14.796875 37.15625 21.921875 38.8125 
z
M 18.3125 54.390625 
Q 18.3125 48.734375 21.84375 45.5625 
Q 25.390625 42.390625 31.78125 42.390625 
Q 38.140625 42.390625 41.71875 45.5625 
Q 45.3125 48.734375 45.3125 54.390625 
Q 45.3125 60.0625 41.71875 63.234375 
Q 38.140625 66.40625 31.78125 66.40625 
Q 25.390625 66.40625 21.84375 63.234375 
Q 18.3125 60.0625 18.3125 54.390625 
z
" id="DejaVuSans-56"/>
      </defs>
      <use xlink:href="#DejaVuSans-48"/>
      <use x="63.623047" xlink:href="#DejaVuSans-46"/>
      <use x="95.410156" xlink:href="#DejaVuSans-56"/>
     </g>
    </g>
   </g>
  </g>
  <g id="axis3d_2">
   <g id="line2d_7">
    <path d="M 352.090401 209.294766 
L 272.679269 290.790123 
" style="fill:none;stroke:#000000;stroke-linecap:square;stroke-width:0.8;"/>
   </g>
   <g id="text_7">
    <!-- CHIP -->
    <g transform="translate(329.391375 278.988697)scale(0.1 -0.1)">
     <defs>
      <path d="M 9.8125 72.90625 
L 19.671875 72.90625 
L 19.671875 43.015625 
L 55.515625 43.015625 
L 55.515625 72.90625 
L 65.375 72.90625 
L 65.375 0 
L 55.515625 0 
L 55.515625 34.71875 
L 19.671875 34.71875 
L 19.671875 0 
L 9.8125 0 
z
" id="DejaVuSans-72"/>
      <path d="M 9.8125 72.90625 
L 19.671875 72.90625 
L 19.671875 0 
L 9.8125 0 
z
" id="DejaVuSans-73"/>
      <path d="M 19.671875 64.796875 
L 19.671875 37.40625 
L 32.078125 37.40625 
Q 38.96875 37.40625 42.71875 40.96875 
Q 46.484375 44.53125 46.484375 51.125 
Q 46.484375 57.671875 42.71875 61.234375 
Q 38.96875 64.796875 32.078125 64.796875 
z
M 9.8125 72.90625 
L 32.078125 72.90625 
Q 44.34375 72.90625 50.609375 67.359375 
Q 56.890625 61.8125 56.890625 51.125 
Q 56.890625 40.328125 50.609375 34.8125 
Q 44.34375 29.296875 32.078125 29.296875 
L 19.671875 29.296875 
L 19.671875 0 
L 9.8125 0 
z
" id="DejaVuSans-80"/>
     </defs>
     <use xlink:href="#DejaVuSans-67"/>
     <use x="69.824219" xlink:href="#DejaVuSans-72"/>
     <use x="145.019531" xlink:href="#DejaVuSans-73"/>
     <use x="174.511719" xlink:href="#DejaVuSans-80"/>
    </g>
   </g>
   <g id="Line3DCollection_2">
    <path d="M 132.800449 118.304574 
L 137.495565 229.984213 
L 285.647639 277.481385 
" style="fill:none;stroke:#b0b0b0;stroke-width:0.8;"/>
    <path d="M 154.323941 102.59771 
L 158.001756 212.795517 
L 304.213982 258.42775 
" style="fill:none;stroke:#b0b0b0;stroke-width:0.8;"/>
    <path d="M 174.995413 87.512611 
L 177.730481 196.258508 
L 322.040317 240.133544 
" style="fill:none;stroke:#b0b0b0;stroke-width:0.8;"/>
    <path d="M 194.864475 73.013075 
L 196.725132 180.336815 
L 339.170024 222.554251 
" style="fill:none;stroke:#b0b0b0;stroke-width:0.8;"/>
   </g>
   <g id="xtick_6">
    <g id="line2d_8">
     <path d="M 284.39967 277.081289 
L 288.146777 278.282602 
" style="fill:none;stroke:#000000;stroke-linecap:square;stroke-width:0.8;"/>
    </g>
    <g id="text_8">
     <!-- 0.2 -->
     <g transform="translate(290.476511 298.389514)scale(0.1 -0.1)">
      <use xlink:href="#DejaVuSans-48"/>
      <use x="63.623047" xlink:href="#DejaVuSans-46"/>
      <use x="95.410156" xlink:href="#DejaVuSans-50"/>
     </g>
    </g>
   </g>
   <g id="xtick_7">
    <g id="line2d_9">
     <path d="M 302.983612 258.043756 
L 306.677812 259.196701 
" style="fill:none;stroke:#000000;stroke-linecap:square;stroke-width:0.8;"/>
    </g>
    <g id="text_9">
     <!-- 0.3 -->
     <g transform="translate(308.793629 279.053996)scale(0.1 -0.1)">
      <defs>
       <path d="M 40.578125 39.3125 
Q 47.65625 37.796875 51.625 33 
Q 55.609375 28.21875 55.609375 21.1875 
Q 55.609375 10.40625 48.1875 4.484375 
Q 40.765625 -1.421875 27.09375 -1.421875 
Q 22.515625 -1.421875 17.65625 -0.515625 
Q 12.796875 0.390625 7.625 2.203125 
L 7.625 11.71875 
Q 11.71875 9.328125 16.59375 8.109375 
Q 21.484375 6.890625 26.8125 6.890625 
Q 36.078125 6.890625 40.9375 10.546875 
Q 45.796875 14.203125 45.796875 21.1875 
Q 45.796875 27.640625 41.28125 31.265625 
Q 36.765625 34.90625 28.71875 34.90625 
L 20.21875 34.90625 
L 20.21875 43.015625 
L 29.109375 43.015625 
Q 36.375 43.015625 40.234375 45.921875 
Q 44.09375 48.828125 44.09375 54.296875 
Q 44.09375 59.90625 40.109375 62.90625 
Q 36.140625 65.921875 28.71875 65.921875 
Q 24.65625 65.921875 20.015625 65.03125 
Q 15.375 64.15625 9.8125 62.3125 
L 9.8125 71.09375 
Q 15.4375 72.65625 20.34375 73.4375 
Q 25.25 74.21875 29.59375 74.21875 
Q 40.828125 74.21875 47.359375 69.109375 
Q 53.90625 64.015625 53.90625 55.328125 
Q 53.90625 49.265625 50.4375 45.09375 
Q 46.96875 40.921875 40.578125 39.3125 
z
" id="DejaVuSans-51"/>
      </defs>
      <use xlink:href="#DejaVuSans-48"/>
      <use x="63.623047" xlink:href="#DejaVuSans-46"/>
      <use x="95.410156" xlink:href="#DejaVuSans-51"/>
     </g>
    </g>
   </g>
   <g id="xtick_8">
    <g id="line2d_10">
     <path d="M 320.82715 239.7647 
L 324.469641 240.87214 
" style="fill:none;stroke:#000000;stroke-linecap:square;stroke-width:0.8;"/>
    </g>
    <g id="text_10">
     <!-- 0.4 -->
     <g transform="translate(326.380256 260.489583)scale(0.1 -0.1)">
      <use xlink:href="#DejaVuSans-48"/>
      <use x="63.623047" xlink:href="#DejaVuSans-46"/>
      <use x="95.410156" xlink:href="#DejaVuSans-52"/>
     </g>
    </g>
   </g>
   <g id="xtick_9">
    <g id="line2d_11">
     <path d="M 337.973665 222.199678 
L 341.565629 223.264255 
" style="fill:none;stroke:#000000;stroke-linecap:square;stroke-width:0.8;"/>
    </g>
    <g id="text_11">
     <!-- 0.5 -->
     <g transform="translate(343.279237 242.651048)scale(0.1 -0.1)">
      <defs>
       <path d="M 10.796875 72.90625 
L 49.515625 72.90625 
L 49.515625 64.59375 
L 19.828125 64.59375 
L 19.828125 46.734375 
Q 21.96875 47.46875 24.109375 47.828125 
Q 26.265625 48.1875 28.421875 48.1875 
Q 40.625 48.1875 47.75 41.5 
Q 54.890625 34.8125 54.890625 23.390625 
Q 54.890625 11.625 47.5625 5.09375 
Q 40.234375 -1.421875 26.90625 -1.421875 
Q 22.3125 -1.421875 17.546875 -0.640625 
Q 12.796875 0.140625 7.71875 1.703125 
L 7.71875 11.625 
Q 12.109375 9.234375 16.796875 8.0625 
Q 21.484375 6.890625 26.703125 6.890625 
Q 35.15625 6.890625 40.078125 11.328125 
Q 45.015625 15.765625 45.015625 23.390625 
Q 45.015625 31 40.078125 35.4375 
Q 35.15625 39.890625 26.703125 39.890625 
Q 22.75 39.890625 18.8125 39.015625 
Q 14.890625 38.140625 10.796875 36.28125 
z
" id="DejaVuSans-53"/>
      </defs>
      <use xlink:href="#DejaVuSans-48"/>
      <use x="63.623047" xlink:href="#DejaVuSans-46"/>
      <use x="95.410156" xlink:href="#DejaVuSans-53"/>
     </g>
    </g>
   </g>
  </g>
  <g id="axis3d_3">
   <g id="line2d_12">
    <path d="M 352.090401 209.294766 
L 357.122702 99.402171 
" style="fill:none;stroke:#000000;stroke-linecap:square;stroke-width:0.8;"/>
   </g>
   <g id="Line3DCollection_3">
    <path d="M 352.821775 193.323416 
L 210.898301 152.840065 
L 122.40968 225.614058 
" style="fill:none;stroke:#b0b0b0;stroke-width:0.8;"/>
    <path d="M 353.482911 178.885905 
L 210.737614 138.86625 
L 121.697377 210.82262 
" style="fill:none;stroke:#b0b0b0;stroke-width:0.8;"/>
    <path d="M 354.151823 164.278558 
L 210.575126 124.735945 
L 120.976373 195.850514 
" style="fill:none;stroke:#b0b0b0;stroke-width:0.8;"/>
    <path d="M 354.828652 149.498361 
L 210.410809 110.446505 
L 120.246509 180.694411 
" style="fill:none;stroke:#b0b0b0;stroke-width:0.8;"/>
    <path d="M 355.513536 134.542228 
L 210.244631 95.995227 
L 119.50762 165.350897 
" style="fill:none;stroke:#b0b0b0;stroke-width:0.8;"/>
    <path d="M 356.206622 119.406997 
L 210.07656 81.379346 
L 118.759537 149.816475 
" style="fill:none;stroke:#b0b0b0;stroke-width:0.8;"/>
    <path d="M 356.908058 104.089434 
L 209.906564 66.596034 
L 118.002088 134.087559 
" style="fill:none;stroke:#b0b0b0;stroke-width:0.8;"/>
   </g>
   <g id="xtick_10">
    <g id="line2d_13">
     <path d="M 351.630283 192.983545 
L 355.207611 194.00397 
" style="fill:none;stroke:#000000;stroke-linecap:square;stroke-width:0.8;"/>
    </g>
    <g id="text_12">
     <!-- 1.0 -->
     <g transform="translate(363.235098 198.348143)scale(0.1 -0.1)">
      <defs>
       <path d="M 12.40625 8.296875 
L 28.515625 8.296875 
L 28.515625 63.921875 
L 10.984375 60.40625 
L 10.984375 69.390625 
L 28.421875 72.90625 
L 38.28125 72.90625 
L 38.28125 8.296875 
L 54.390625 8.296875 
L 54.390625 0 
L 12.40625 0 
z
" id="DejaVuSans-49"/>
      </defs>
      <use xlink:href="#DejaVuSans-49"/>
      <use x="63.623047" xlink:href="#DejaVuSans-46"/>
      <use x="95.410156" xlink:href="#DejaVuSans-48"/>
     </g>
    </g>
   </g>
   <g id="xtick_11">
    <g id="line2d_14">
     <path d="M 352.28419 178.549835 
L 355.883239 179.558854 
" style="fill:none;stroke:#000000;stroke-linecap:square;stroke-width:0.8;"/>
    </g>
    <g id="text_13">
     <!-- 1.5 -->
     <g transform="translate(364.001287 183.93945)scale(0.1 -0.1)">
      <use xlink:href="#DejaVuSans-49"/>
      <use x="63.623047" xlink:href="#DejaVuSans-46"/>
      <use x="95.410156" xlink:href="#DejaVuSans-53"/>
     </g>
    </g>
   </g>
   <g id="xtick_12">
    <g id="line2d_15">
     <path d="M 352.945785 163.946402 
L 356.566821 164.943675 
" style="fill:none;stroke:#000000;stroke-linecap:square;stroke-width:0.8;"/>
    </g>
    <g id="text_14">
     <!-- 2.0 -->
     <g transform="translate(364.776461 169.361778)scale(0.1 -0.1)">
      <use xlink:href="#DejaVuSans-50"/>
      <use x="63.623047" xlink:href="#DejaVuSans-46"/>
      <use x="95.410156" xlink:href="#DejaVuSans-48"/>
     </g>
    </g>
   </g>
   <g id="xtick_13">
    <g id="line2d_16">
     <path d="M 353.615206 149.170235 
L 357.258499 150.155413 
" style="fill:none;stroke:#000000;stroke-linecap:square;stroke-width:0.8;"/>
    </g>
    <g id="text_15">
     <!-- 2.5 -->
     <g transform="translate(365.56078 154.612136)scale(0.1 -0.1)">
      <use xlink:href="#DejaVuSans-50"/>
      <use x="63.623047" xlink:href="#DejaVuSans-46"/>
      <use x="95.410156" xlink:href="#DejaVuSans-53"/>
     </g>
    </g>
   </g>
   <g id="xtick_14">
    <g id="line2d_17">
     <path d="M 354.292592 134.218251 
L 357.958417 135.190975 
" style="fill:none;stroke:#000000;stroke-linecap:square;stroke-width:0.8;"/>
    </g>
    <g id="text_16">
     <!-- 3.0 -->
     <g transform="translate(366.354406 139.687464)scale(0.1 -0.1)">
      <use xlink:href="#DejaVuSans-51"/>
      <use x="63.623047" xlink:href="#DejaVuSans-46"/>
      <use x="95.410156" xlink:href="#DejaVuSans-48"/>
     </g>
    </g>
   </g>
   <g id="xtick_15">
    <g id="line2d_18">
     <path d="M 354.978087 119.087294 
L 358.666723 120.047193 
" style="fill:none;stroke:#000000;stroke-linecap:square;stroke-width:0.8;"/>
    </g>
    <g id="text_17">
     <!-- 3.5 -->
     <g transform="translate(367.157507 124.584628)scale(0.1 -0.1)">
      <use xlink:href="#DejaVuSans-51"/>
      <use x="63.623047" xlink:href="#DejaVuSans-46"/>
      <use x="95.410156" xlink:href="#DejaVuSans-53"/>
     </g>
    </g>
   </g>
   <g id="xtick_16">
    <g id="line2d_19">
     <path d="M 355.671836 103.77413 
L 359.38357 104.720824 
" style="fill:none;stroke:#000000;stroke-linecap:square;stroke-width:0.8;"/>
    </g>
    <g id="text_18">
     <!-- 4.0 -->
     <g transform="translate(367.970252 109.300417)scale(0.1 -0.1)">
      <use xlink:href="#DejaVuSans-52"/>
      <use x="63.623047" xlink:href="#DejaVuSans-46"/>
      <use x="95.410156" xlink:href="#DejaVuSans-48"/>
     </g>
    </g>
   </g>
  </g>
  <g id="axes_1">
   <g id="Poly3DCollection_1">
    <path clip-path="url(#pfa95dc7f5b)" d="M 279.030501 167.30788 
L 211.396946 175.726643 
L 265.488251 168.6597 
z
" style="fill:#3b4cc0;"/>
    <path clip-path="url(#pfa95dc7f5b)" d="M 243.486125 177.76453 
L 265.488251 168.6597 
L 211.396946 175.726643 
z
" style="fill:#465ecf;"/>
    <path clip-path="url(#pfa95dc7f5b)" d="M 279.030501 167.30788 
L 265.488251 168.6597 
L 243.486125 177.76453 
z
" style="fill:#6687ed;"/>
    <path clip-path="url(#pfa95dc7f5b)" d="M 330.321838 206.901598 
L 279.030501 167.30788 
L 303.329956 184.499516 
z
" style="fill:#4b64d5;"/>
    <path clip-path="url(#pfa95dc7f5b)" d="M 274.860426 172.226549 
L 303.329956 184.499516 
L 279.030501 167.30788 
z
" style="fill:#7093f3;"/>
    <path clip-path="url(#pfa95dc7f5b)" d="M 243.486125 177.76453 
L 255.653304 175.042774 
L 279.030501 167.30788 
z
" style="fill:#82a6fb;"/>
    <path clip-path="url(#pfa95dc7f5b)" d="M 279.030501 167.30788 
L 255.653304 175.042774 
L 274.860426 172.226549 
z
" style="fill:#88abfd;"/>
    <path clip-path="url(#pfa95dc7f5b)" d="M 211.396946 175.726643 
L 208.410235 170.384051 
L 243.486125 177.76453 
z
" style="fill:#7da0f9;"/>
    <path clip-path="url(#pfa95dc7f5b)" d="M 141.913383 204.132709 
L 208.410235 170.384051 
L 211.396946 175.726643 
z
" style="fill:#7597f6;"/>
    <path clip-path="url(#pfa95dc7f5b)" d="M 330.321838 206.901598 
L 303.329956 184.499516 
L 295.034233 209.934835 
z
" style="fill:#5875e1;"/>
    <path clip-path="url(#pfa95dc7f5b)" d="M 274.860426 172.226549 
L 275.94521 194.101148 
L 303.329956 184.499516 
z
" style="fill:#92b4fe;"/>
    <path clip-path="url(#pfa95dc7f5b)" d="M 243.486125 177.76453 
L 221.036813 145.60829 
L 255.653304 175.042774 
z
" style="fill:#dbdcde;"/>
    <path clip-path="url(#pfa95dc7f5b)" d="M 303.329956 184.499516 
L 275.94521 194.101148 
L 295.034233 209.934835 
z
" style="fill:#8badfd;"/>
    <path clip-path="url(#pfa95dc7f5b)" d="M 208.410235 170.384051 
L 141.913383 204.132709 
L 140.670163 205.008458 
z
" style="fill:#9ebeff;"/>
    <path clip-path="url(#pfa95dc7f5b)" d="M 255.653304 175.042774 
L 224.25888 142.202136 
L 274.860426 172.226549 
z
" style="fill:#e9d5cb;"/>
    <path clip-path="url(#pfa95dc7f5b)" d="M 138.296122 207.357254 
L 208.410235 170.384051 
L 140.670163 205.008458 
z
" style="fill:#9dbdff;"/>
    <path clip-path="url(#pfa95dc7f5b)" d="M 210.779255 158.439106 
L 243.486125 177.76453 
L 208.410235 170.384051 
z
" style="fill:#e1dad6;"/>
    <path clip-path="url(#pfa95dc7f5b)" d="M 295.034233 209.934835 
L 276.168282 220.963036 
L 330.321838 206.901598 
z
" style="fill:#6a8bef;"/>
    <path clip-path="url(#pfa95dc7f5b)" d="M 221.036813 145.60829 
L 243.486125 177.76453 
L 210.779255 158.439106 
z
" style="fill:#f5c1a9;"/>
    <path clip-path="url(#pfa95dc7f5b)" d="M 224.25888 142.202136 
L 275.94521 194.101148 
L 274.860426 172.226549 
z
" style="fill:#edd1c2;"/>
    <path clip-path="url(#pfa95dc7f5b)" d="M 295.034233 209.934835 
L 275.94521 194.101148 
L 276.727908 206.143937 
z
" style="fill:#aac7fd;"/>
    <path clip-path="url(#pfa95dc7f5b)" d="M 138.296122 207.357254 
L 205.747573 162.543155 
L 208.410235 170.384051 
z
" style="fill:#e8d6cc;"/>
    <path clip-path="url(#pfa95dc7f5b)" d="M 255.653304 175.042774 
L 221.036813 145.60829 
L 224.25888 142.202136 
z
" style="fill:#f39475;"/>
    <path clip-path="url(#pfa95dc7f5b)" d="M 295.034233 209.934835 
L 276.727908 206.143937 
L 276.168282 220.963036 
z
" style="fill:#9ebeff;"/>
    <path clip-path="url(#pfa95dc7f5b)" d="M 210.779255 158.439106 
L 208.410235 170.384051 
L 205.747573 162.543155 
z
" style="fill:#f59c7d;"/>
    <path clip-path="url(#pfa95dc7f5b)" d="M 230.144806 182.898476 
L 276.727908 206.143937 
L 275.94521 194.101148 
z
" style="fill:#dddcdc;"/>
    <path clip-path="url(#pfa95dc7f5b)" d="M 210.779255 158.439106 
L 214.122703 142.342661 
L 221.036813 145.60829 
z
" style="fill:#d75445;"/>
    <path clip-path="url(#pfa95dc7f5b)" d="M 276.727908 206.143937 
L 230.144806 182.898476 
L 276.168282 220.963036 
z
" style="fill:#d4dbe6;"/>
    <path clip-path="url(#pfa95dc7f5b)" d="M 275.94521 194.101148 
L 224.25888 142.202136 
L 230.144806 182.898476 
z
" style="fill:#f6a586;"/>
    <path clip-path="url(#pfa95dc7f5b)" d="M 205.747573 162.543155 
L 214.122703 142.342661 
L 210.779255 158.439106 
z
" style="fill:#d95847;"/>
    <path clip-path="url(#pfa95dc7f5b)" d="M 221.036813 145.60829 
L 214.122703 142.342661 
L 224.25888 142.202136 
z
" style="fill:#b50927;"/>
    <path clip-path="url(#pfa95dc7f5b)" d="M 207.350864 157.914839 
L 224.25888 142.202136 
L 214.122703 142.342661 
z
" style="fill:#b40426;"/>
    <path clip-path="url(#pfa95dc7f5b)" d="M 207.350864 157.914839 
L 214.122703 142.342661 
L 205.747573 162.543155 
z
" style="fill:#c43032;"/>
    <path clip-path="url(#pfa95dc7f5b)" d="M 224.25888 142.202136 
L 218.408779 163.955948 
L 230.144806 182.898476 
z
" style="fill:#d75445;"/>
    <path clip-path="url(#pfa95dc7f5b)" d="M 207.350864 157.914839 
L 208.599607 160.852533 
L 224.25888 142.202136 
z
" style="fill:#bd1f2d;"/>
    <path clip-path="url(#pfa95dc7f5b)" d="M 218.408779 163.955948 
L 224.25888 142.202136 
L 208.599607 160.852533 
z
" style="fill:#c32e31;"/>
    <path clip-path="url(#pfa95dc7f5b)" d="M 205.747573 162.543155 
L 230.144806 182.898476 
L 218.408779 163.955948 
z
" style="fill:#e36c55;"/>
    <path clip-path="url(#pfa95dc7f5b)" d="M 205.747573 162.543155 
L 208.599607 160.852533 
L 207.350864 157.914839 
z
" style="fill:#cd423b;"/>
    <path clip-path="url(#pfa95dc7f5b)" d="M 205.747573 162.543155 
L 218.408779 163.955948 
L 208.599607 160.852533 
z
" style="fill:#d1493f;"/>
   </g>
  </g>
 </g>
 <defs>
  <clipPath id="pfa95dc7f5b">
   <rect height="266.112" width="266.112" x="103.104" y="41.472"/>
  </clipPath>
 </defs>
</svg>
