<?xml version="1.0" encoding="utf-8" standalone="no"?>
<!DOCTYPE svg PUBLIC "-//W3C//DTD SVG 1.1//EN"
  "http://www.w3.org/Graphics/SVG/1.1/DTD/svg11.dtd">
<!-- Created with matplotlib (https://matplotlib.org/) -->
<svg height="345.6pt" version="1.1" viewBox="0 0 460.8 345.6" width="460.8pt" xmlns="http://www.w3.org/2000/svg" xmlns:xlink="http://www.w3.org/1999/xlink">
 <metadata>
  <rdf:RDF xmlns:cc="http://creativecommons.org/ns#" xmlns:dc="http://purl.org/dc/elements/1.1/" xmlns:rdf="http://www.w3.org/1999/02/22-rdf-syntax-ns#">
   <cc:Work>
    <dc:type rdf:resource="http://purl.org/dc/dcmitype/StillImage"/>
    <dc:date>2021-04-12T02:06:12.406472</dc:date>
    <dc:format>image/svg+xml</dc:format>
    <dc:creator>
     <cc:Agent>
      <dc:title>Matplotlib v3.3.4, https://matplotlib.org/</dc:title>
     </cc:Agent>
    </dc:creator>
   </cc:Work>
  </rdf:RDF>
 </metadata>
 <defs>
  <style type="text/css">*{stroke-linecap:butt;stroke-linejoin:round;}</style>
 </defs>
 <g id="figure_1">
  <g id="patch_1">
   <path d="M 0 345.6 
L 460.8 345.6 
L 460.8 0 
L 0 0 
z
" style="fill:#ffffff;"/>
  </g>
  <g id="patch_2">
   <path d="M 103.104 307.584 
L 369.216 307.584 
L 369.216 41.472 
L 103.104 41.472 
z
" style="fill:#ffffff;"/>
  </g>
  <g id="pane3d_1">
   <g id="patch_3">
    <path d="M 123.197291 241.969309 
L 211.076164 168.307495 
L 209.854564 62.073991 
L 117.770234 129.272941 
" style="fill:#f2f2f2;opacity:0.5;stroke:#f2f2f2;stroke-linejoin:miter;"/>
   </g>
  </g>
  <g id="pane3d_2">
   <g id="patch_4">
    <path d="M 211.076164 168.307495 
L 352.090401 209.294766 
L 357.122702 99.402171 
L 209.854564 62.073991 
" style="fill:#e6e6e6;opacity:0.5;stroke:#e6e6e6;stroke-linejoin:miter;"/>
   </g>
  </g>
  <g id="pane3d_3">
   <g id="patch_5">
    <path d="M 123.197291 241.969309 
L 272.679269 290.790123 
L 352.090401 209.294766 
L 211.076164 168.307495 
" style="fill:#ececec;opacity:0.5;stroke:#ececec;stroke-linejoin:miter;"/>
   </g>
  </g>
  <g id="axis3d_1">
   <g id="line2d_1">
    <path d="M 123.197291 241.969309 
L 272.679269 290.790123 
" style="fill:none;stroke:#000000;stroke-linecap:square;stroke-width:0.8;"/>
   </g>
   <g id="text_1">
    <!-- ATAC -->
    <g transform="translate(167.15299 303.76759)scale(0.1 -0.1)">
     <defs>
      <path d="M 34.1875 63.1875 
L 20.796875 26.90625 
L 47.609375 26.90625 
z
M 28.609375 72.90625 
L 39.796875 72.90625 
L 67.578125 0 
L 57.328125 0 
L 50.6875 18.703125 
L 17.828125 18.703125 
L 11.1875 0 
L 0.78125 0 
z
" id="DejaVuSans-65"/>
      <path d="M -0.296875 72.90625 
L 61.375 72.90625 
L 61.375 64.59375 
L 35.5 64.59375 
L 35.5 0 
L 25.59375 0 
L 25.59375 64.59375 
L -0.296875 64.59375 
z
" id="DejaVuSans-84"/>
      <path d="M 64.40625 67.28125 
L 64.40625 56.890625 
Q 59.421875 61.53125 53.78125 63.8125 
Q 48.140625 66.109375 41.796875 66.109375 
Q 29.296875 66.109375 22.65625 58.46875 
Q 16.015625 50.828125 16.015625 36.375 
Q 16.015625 21.96875 22.65625 14.328125 
Q 29.296875 6.6875 41.796875 6.6875 
Q 48.140625 6.6875 53.78125 8.984375 
Q 59.421875 11.28125 64.40625 15.921875 
L 64.40625 5.609375 
Q 59.234375 2.09375 53.4375 0.328125 
Q 47.65625 -1.421875 41.21875 -1.421875 
Q 24.65625 -1.421875 15.125 8.703125 
Q 5.609375 18.84375 5.609375 36.375 
Q 5.609375 53.953125 15.125 64.078125 
Q 24.65625 74.21875 41.21875 74.21875 
Q 47.75 74.21875 53.53125 72.484375 
Q 59.328125 70.75 64.40625 67.28125 
z
" id="DejaVuSans-67"/>
     </defs>
     <use xlink:href="#DejaVuSans-65"/>
     <use x="60.658203" xlink:href="#DejaVuSans-84"/>
     <use x="113.992188" xlink:href="#DejaVuSans-65"/>
     <use x="180.650391" xlink:href="#DejaVuSans-67"/>
    </g>
   </g>
   <g id="Line3DCollection_1">
    <path d="M 132.250704 244.926154 
L 219.652219 170.800215 
L 218.79322 64.33968 
" style="fill:none;stroke:#b0b0b0;stroke-width:0.8;"/>
    <path d="M 161.95397 254.62724 
L 247.757079 178.969189 
L 248.102453 71.768716 
" style="fill:none;stroke:#b0b0b0;stroke-width:0.8;"/>
    <path d="M 192.301315 264.538683 
L 276.420422 187.300491 
L 278.019502 79.351816 
" style="fill:none;stroke:#b0b0b0;stroke-width:0.8;"/>
    <path d="M 223.313917 274.667399 
L 305.65906 195.799009 
L 308.563472 87.093822 
" style="fill:none;stroke:#b0b0b0;stroke-width:0.8;"/>
    <path d="M 255.013893 285.020611 
L 335.490491 204.469828 
L 339.75428 94.999782 
" style="fill:none;stroke:#b0b0b0;stroke-width:0.8;"/>
   </g>
   <g id="xtick_1">
    <g id="line2d_2">
     <path d="M 133.011792 244.280669 
L 130.725263 246.219892 
" style="fill:none;stroke:#000000;stroke-linecap:square;stroke-width:0.8;"/>
    </g>
    <g id="text_2">
     <!-- 0.0 -->
     <g transform="translate(116.770092 268.235303)scale(0.1 -0.1)">
      <defs>
       <path d="M 31.78125 66.40625 
Q 24.171875 66.40625 20.328125 58.90625 
Q 16.5 51.421875 16.5 36.375 
Q 16.5 21.390625 20.328125 13.890625 
Q 24.171875 6.390625 31.78125 6.390625 
Q 39.453125 6.390625 43.28125 13.890625 
Q 47.125 21.390625 47.125 36.375 
Q 47.125 51.421875 43.28125 58.90625 
Q 39.453125 66.40625 31.78125 66.40625 
z
M 31.78125 74.21875 
Q 44.046875 74.21875 50.515625 64.515625 
Q 56.984375 54.828125 56.984375 36.375 
Q 56.984375 17.96875 50.515625 8.265625 
Q 44.046875 -1.421875 31.78125 -1.421875 
Q 19.53125 -1.421875 13.0625 8.265625 
Q 6.59375 17.96875 6.59375 36.375 
Q 6.59375 54.828125 13.0625 64.515625 
Q 19.53125 74.21875 31.78125 74.21875 
z
" id="DejaVuSans-48"/>
       <path d="M 10.6875 12.40625 
L 21 12.40625 
L 21 0 
L 10.6875 0 
z
" id="DejaVuSans-46"/>
      </defs>
      <use xlink:href="#DejaVuSans-48"/>
      <use x="63.623047" xlink:href="#DejaVuSans-46"/>
      <use x="95.410156" xlink:href="#DejaVuSans-48"/>
     </g>
    </g>
   </g>
   <g id="xtick_2">
    <g id="line2d_3">
     <path d="M 162.70179 253.96784 
L 160.455087 255.9489 
" style="fill:none;stroke:#000000;stroke-linecap:square;stroke-width:0.8;"/>
    </g>
    <g id="text_3">
     <!-- 0.1 -->
     <g transform="translate(146.503905 278.141979)scale(0.1 -0.1)">
      <defs>
       <path d="M 12.40625 8.296875 
L 28.515625 8.296875 
L 28.515625 63.921875 
L 10.984375 60.40625 
L 10.984375 69.390625 
L 28.421875 72.90625 
L 38.28125 72.90625 
L 38.28125 8.296875 
L 54.390625 8.296875 
L 54.390625 0 
L 12.40625 0 
z
" id="DejaVuSans-49"/>
      </defs>
      <use xlink:href="#DejaVuSans-48"/>
      <use x="63.623047" xlink:href="#DejaVuSans-46"/>
      <use x="95.410156" xlink:href="#DejaVuSans-49"/>
     </g>
    </g>
   </g>
   <g id="xtick_3">
    <g id="line2d_4">
     <path d="M 193.035109 263.864912 
L 190.830508 265.889178 
" style="fill:none;stroke:#000000;stroke-linecap:square;stroke-width:0.8;"/>
    </g>
    <g id="text_4">
     <!-- 0.2 -->
     <g transform="translate(176.884907 288.264285)scale(0.1 -0.1)">
      <defs>
       <path d="M 19.1875 8.296875 
L 53.609375 8.296875 
L 53.609375 0 
L 7.328125 0 
L 7.328125 8.296875 
Q 12.9375 14.109375 22.625 23.890625 
Q 32.328125 33.6875 34.8125 36.53125 
Q 39.546875 41.84375 41.421875 45.53125 
Q 43.3125 49.21875 43.3125 52.78125 
Q 43.3125 58.59375 39.234375 62.25 
Q 35.15625 65.921875 28.609375 65.921875 
Q 23.96875 65.921875 18.8125 64.3125 
Q 13.671875 62.703125 7.8125 59.421875 
L 7.8125 69.390625 
Q 13.765625 71.78125 18.9375 73 
Q 24.125 74.21875 28.421875 74.21875 
Q 39.75 74.21875 46.484375 68.546875 
Q 53.21875 62.890625 53.21875 53.421875 
Q 53.21875 48.921875 51.53125 44.890625 
Q 49.859375 40.875 45.40625 35.40625 
Q 44.1875 33.984375 37.640625 27.21875 
Q 31.109375 20.453125 19.1875 8.296875 
z
" id="DejaVuSans-50"/>
      </defs>
      <use xlink:href="#DejaVuSans-48"/>
      <use x="63.623047" xlink:href="#DejaVuSans-46"/>
      <use x="95.410156" xlink:href="#DejaVuSans-50"/>
     </g>
    </g>
   </g>
   <g id="xtick_4">
    <g id="line2d_5">
     <path d="M 224.032889 273.978783 
L 221.872785 276.047683 
" style="fill:none;stroke:#000000;stroke-linecap:square;stroke-width:0.8;"/>
    </g>
    <g id="text_5">
     <!-- 0.3 -->
     <g transform="translate(207.934462 298.609339)scale(0.1 -0.1)">
      <defs>
       <path d="M 40.578125 39.3125 
Q 47.65625 37.796875 51.625 33 
Q 55.609375 28.21875 55.609375 21.1875 
Q 55.609375 10.40625 48.1875 4.484375 
Q 40.765625 -1.421875 27.09375 -1.421875 
Q 22.515625 -1.421875 17.65625 -0.515625 
Q 12.796875 0.390625 7.625 2.203125 
L 7.625 11.71875 
Q 11.71875 9.328125 16.59375 8.109375 
Q 21.484375 6.890625 26.8125 6.890625 
Q 36.078125 6.890625 40.9375 10.546875 
Q 45.796875 14.203125 45.796875 21.1875 
Q 45.796875 27.640625 41.28125 31.265625 
Q 36.765625 34.90625 28.71875 34.90625 
L 20.21875 34.90625 
L 20.21875 43.015625 
L 29.109375 43.015625 
Q 36.375 43.015625 40.234375 45.921875 
Q 44.09375 48.828125 44.09375 54.296875 
Q 44.09375 59.90625 40.109375 62.90625 
Q 36.140625 65.921875 28.71875 65.921875 
Q 24.65625 65.921875 20.015625 65.03125 
Q 15.375 64.15625 9.8125 62.3125 
L 9.8125 71.09375 
Q 15.4375 72.65625 20.34375 73.4375 
Q 25.25 74.21875 29.59375 74.21875 
Q 40.828125 74.21875 47.359375 69.109375 
Q 53.90625 64.015625 53.90625 55.328125 
Q 53.90625 49.265625 50.4375 45.09375 
Q 46.96875 40.921875 40.578125 39.3125 
z
" id="DejaVuSans-51"/>
      </defs>
      <use xlink:href="#DejaVuSans-48"/>
      <use x="63.623047" xlink:href="#DejaVuSans-46"/>
      <use x="95.410156" xlink:href="#DejaVuSans-51"/>
     </g>
    </g>
   </g>
   <g id="xtick_5">
    <g id="line2d_6">
     <path d="M 255.717203 284.316653 
L 253.604123 286.431681 
" style="fill:none;stroke:#000000;stroke-linecap:square;stroke-width:0.8;"/>
    </g>
    <g id="text_6">
     <!-- 0.4 -->
     <g transform="translate(239.674883 309.184574)scale(0.1 -0.1)">
      <defs>
       <path d="M 37.796875 64.3125 
L 12.890625 25.390625 
L 37.796875 25.390625 
z
M 35.203125 72.90625 
L 47.609375 72.90625 
L 47.609375 25.390625 
L 58.015625 25.390625 
L 58.015625 17.1875 
L 47.609375 17.1875 
L 47.609375 0 
L 37.796875 0 
L 37.796875 17.1875 
L 4.890625 17.1875 
L 4.890625 26.703125 
z
" id="DejaVuSans-52"/>
      </defs>
      <use xlink:href="#DejaVuSans-48"/>
      <use x="63.623047" xlink:href="#DejaVuSans-46"/>
      <use x="95.410156" xlink:href="#DejaVuSans-52"/>
     </g>
    </g>
   </g>
  </g>
  <g id="axis3d_2">
   <g id="line2d_7">
    <path d="M 352.090401 209.294766 
L 272.679269 290.790123 
" style="fill:none;stroke:#000000;stroke-linecap:square;stroke-width:0.8;"/>
   </g>
   <g id="text_7">
    <!-- CHIP -->
    <g transform="translate(329.391375 278.988697)scale(0.1 -0.1)">
     <defs>
      <path d="M 9.8125 72.90625 
L 19.671875 72.90625 
L 19.671875 43.015625 
L 55.515625 43.015625 
L 55.515625 72.90625 
L 65.375 72.90625 
L 65.375 0 
L 55.515625 0 
L 55.515625 34.71875 
L 19.671875 34.71875 
L 19.671875 0 
L 9.8125 0 
z
" id="DejaVuSans-72"/>
      <path d="M 9.8125 72.90625 
L 19.671875 72.90625 
L 19.671875 0 
L 9.8125 0 
z
" id="DejaVuSans-73"/>
      <path d="M 19.671875 64.796875 
L 19.671875 37.40625 
L 32.078125 37.40625 
Q 38.96875 37.40625 42.71875 40.96875 
Q 46.484375 44.53125 46.484375 51.125 
Q 46.484375 57.671875 42.71875 61.234375 
Q 38.96875 64.796875 32.078125 64.796875 
z
M 9.8125 72.90625 
L 32.078125 72.90625 
Q 44.34375 72.90625 50.609375 67.359375 
Q 56.890625 61.8125 56.890625 51.125 
Q 56.890625 40.328125 50.609375 34.8125 
Q 44.34375 29.296875 32.078125 29.296875 
L 19.671875 29.296875 
L 19.671875 0 
L 9.8125 0 
z
" id="DejaVuSans-80"/>
     </defs>
     <use xlink:href="#DejaVuSans-67"/>
     <use x="69.824219" xlink:href="#DejaVuSans-72"/>
     <use x="145.019531" xlink:href="#DejaVuSans-73"/>
     <use x="174.511719" xlink:href="#DejaVuSans-80"/>
    </g>
   </g>
   <g id="Line3DCollection_2">
    <path d="M 128.616272 121.357996 
L 133.513371 233.322166 
L 282.03771 281.18606 
" style="fill:none;stroke:#b0b0b0;stroke-width:0.8;"/>
    <path d="M 144.514482 109.756207 
L 148.651427 220.633148 
L 295.752926 267.110875 
" style="fill:none;stroke:#b0b0b0;stroke-width:0.8;"/>
    <path d="M 159.947216 98.4941 
L 163.365245 208.299733 
L 309.063782 253.450661 
" style="fill:none;stroke:#b0b0b0;stroke-width:0.8;"/>
    <path d="M 174.934623 87.556973 
L 177.672414 196.307181 
L 321.987902 240.187335 
" style="fill:none;stroke:#b0b0b0;stroke-width:0.8;"/>
    <path d="M 189.495704 76.930959 
L 191.589561 184.641552 
L 334.541898 227.303847 
" style="fill:none;stroke:#b0b0b0;stroke-width:0.8;"/>
    <path d="M 203.648395 66.60297 
L 205.13242 173.289659 
L 346.741445 214.78411 
" style="fill:none;stroke:#b0b0b0;stroke-width:0.8;"/>
   </g>
   <g id="xtick_6">
    <g id="line2d_8">
     <path d="M 280.786357 280.782795 
L 284.543638 281.993628 
" style="fill:none;stroke:#000000;stroke-linecap:square;stroke-width:0.8;"/>
    </g>
    <g id="text_8">
     <!-- 0.10 -->
     <g transform="translate(283.733739 302.14905)scale(0.1 -0.1)">
      <use xlink:href="#DejaVuSans-48"/>
      <use x="63.623047" xlink:href="#DejaVuSans-46"/>
      <use x="95.410156" xlink:href="#DejaVuSans-49"/>
      <use x="159.033203" xlink:href="#DejaVuSans-48"/>
     </g>
    </g>
   </g>
   <g id="xtick_7">
    <g id="line2d_9">
     <path d="M 294.514496 266.719584 
L 298.232927 267.894448 
" style="fill:none;stroke:#000000;stroke-linecap:square;stroke-width:0.8;"/>
    </g>
    <g id="text_9">
     <!-- 0.15 -->
     <g transform="translate(297.264955 287.865523)scale(0.1 -0.1)">
      <defs>
       <path d="M 10.796875 72.90625 
L 49.515625 72.90625 
L 49.515625 64.59375 
L 19.828125 64.59375 
L 19.828125 46.734375 
Q 21.96875 47.46875 24.109375 47.828125 
Q 26.265625 48.1875 28.421875 48.1875 
Q 40.625 48.1875 47.75 41.5 
Q 54.890625 34.8125 54.890625 23.390625 
Q 54.890625 11.625 47.5625 5.09375 
Q 40.234375 -1.421875 26.90625 -1.421875 
Q 22.3125 -1.421875 17.546875 -0.640625 
Q 12.796875 0.140625 7.71875 1.703125 
L 7.71875 11.625 
Q 12.109375 9.234375 16.796875 8.0625 
Q 21.484375 6.890625 26.703125 6.890625 
Q 35.15625 6.890625 40.078125 11.328125 
Q 45.015625 15.765625 45.015625 23.390625 
Q 45.015625 31 40.078125 35.4375 
Q 35.15625 39.890625 26.703125 39.890625 
Q 22.75 39.890625 18.8125 39.015625 
Q 14.890625 38.140625 10.796875 36.28125 
z
" id="DejaVuSans-53"/>
      </defs>
      <use xlink:href="#DejaVuSans-48"/>
      <use x="63.623047" xlink:href="#DejaVuSans-46"/>
      <use x="95.410156" xlink:href="#DejaVuSans-49"/>
      <use x="159.033203" xlink:href="#DejaVuSans-53"/>
     </g>
    </g>
   </g>
   <g id="xtick_8">
    <g id="line2d_10">
     <path d="M 307.838063 253.07082 
L 311.518284 254.211294 
" style="fill:none;stroke:#000000;stroke-linecap:square;stroke-width:0.8;"/>
    </g>
    <g id="text_10">
     <!-- 0.20 -->
     <g transform="translate(310.397005 274.003353)scale(0.1 -0.1)">
      <use xlink:href="#DejaVuSans-48"/>
      <use x="63.623047" xlink:href="#DejaVuSans-46"/>
      <use x="95.410156" xlink:href="#DejaVuSans-50"/>
      <use x="159.033203" xlink:href="#DejaVuSans-48"/>
     </g>
    </g>
   </g>
   <g id="xtick_9">
    <g id="line2d_11">
     <path d="M 320.774683 239.818447 
L 324.417328 240.92602 
" style="fill:none;stroke:#000000;stroke-linecap:square;stroke-width:0.8;"/>
    </g>
    <g id="text_11">
     <!-- 0.25 -->
     <g transform="translate(323.147296 260.544168)scale(0.1 -0.1)">
      <use xlink:href="#DejaVuSans-48"/>
      <use x="63.623047" xlink:href="#DejaVuSans-46"/>
      <use x="95.410156" xlink:href="#DejaVuSans-50"/>
      <use x="159.033203" xlink:href="#DejaVuSans-53"/>
     </g>
    </g>
   </g>
   <g id="xtick_10">
    <g id="line2d_12">
     <path d="M 333.340971 226.945446 
L 336.946667 228.02152 
" style="fill:none;stroke:#000000;stroke-linecap:square;stroke-width:0.8;"/>
    </g>
    <g id="text_12">
     <!-- 0.30 -->
     <g transform="translate(335.532236 247.470647)scale(0.1 -0.1)">
      <use xlink:href="#DejaVuSans-48"/>
      <use x="63.623047" xlink:href="#DejaVuSans-46"/>
      <use x="95.410156" xlink:href="#DejaVuSans-51"/>
      <use x="159.033203" xlink:href="#DejaVuSans-48"/>
     </g>
    </g>
   </g>
   <g id="xtick_11">
    <g id="line2d_13">
     <path d="M 345.552604 214.435755 
L 349.121972 215.481656 
" style="fill:none;stroke:#000000;stroke-linecap:square;stroke-width:0.8;"/>
    </g>
    <g id="text_13">
     <!-- 0.35 -->
     <g transform="translate(347.567306 234.766447)scale(0.1 -0.1)">
      <use xlink:href="#DejaVuSans-48"/>
      <use x="63.623047" xlink:href="#DejaVuSans-46"/>
      <use x="95.410156" xlink:href="#DejaVuSans-51"/>
      <use x="159.033203" xlink:href="#DejaVuSans-53"/>
     </g>
    </g>
   </g>
  </g>
  <g id="axis3d_3">
   <g id="line2d_14">
    <path d="M 352.090401 209.294766 
L 357.122702 99.402171 
" style="fill:none;stroke:#000000;stroke-linecap:square;stroke-width:0.8;"/>
   </g>
   <g id="Line3DCollection_3">
    <path d="M 352.334876 203.956039 
L 211.016698 163.136156 
L 122.93406 236.503148 
" style="fill:none;stroke:#b0b0b0;stroke-width:0.8;"/>
    <path d="M 353.000855 189.41277 
L 210.854768 149.054253 
L 122.216772 221.608192 
" style="fill:none;stroke:#b0b0b0;stroke-width:0.8;"/>
    <path d="M 353.67476 174.69641 
L 210.691002 134.812763 
L 121.490621 206.529196 
" style="fill:none;stroke:#b0b0b0;stroke-width:0.8;"/>
    <path d="M 354.356733 159.803852 
L 210.525369 120.408959 
L 120.755442 191.262728 
" style="fill:none;stroke:#b0b0b0;stroke-width:0.8;"/>
    <path d="M 355.046921 144.731911 
L 210.357839 105.840048 
L 120.011066 175.805269 
" style="fill:none;stroke:#b0b0b0;stroke-width:0.8;"/>
    <path d="M 355.745473 129.477327 
L 210.188376 91.103177 
L 119.257318 160.153213 
" style="fill:none;stroke:#b0b0b0;stroke-width:0.8;"/>
    <path d="M 356.452541 114.036759 
L 210.016949 76.195423 
L 118.494021 144.302862 
" style="fill:none;stroke:#b0b0b0;stroke-width:0.8;"/>
   </g>
   <g id="xtick_12">
    <g id="line2d_15">
     <path d="M 351.148707 203.613413 
L 354.710043 204.642108 
" style="fill:none;stroke:#000000;stroke-linecap:square;stroke-width:0.8;"/>
    </g>
    <g id="text_14">
     <!-- 2.5 -->
     <g transform="translate(362.670814 208.959869)scale(0.1 -0.1)">
      <use xlink:href="#DejaVuSans-50"/>
      <use x="63.623047" xlink:href="#DejaVuSans-46"/>
      <use x="95.410156" xlink:href="#DejaVuSans-53"/>
     </g>
    </g>
   </g>
   <g id="xtick_13">
    <g id="line2d_16">
     <path d="M 351.807405 189.073922 
L 355.390615 190.091277 
" style="fill:none;stroke:#000000;stroke-linecap:square;stroke-width:0.8;"/>
    </g>
    <g id="text_15">
     <!-- 5.0 -->
     <g transform="translate(363.442636 194.445253)scale(0.1 -0.1)">
      <use xlink:href="#DejaVuSans-53"/>
      <use x="63.623047" xlink:href="#DejaVuSans-46"/>
      <use x="95.410156" xlink:href="#DejaVuSans-48"/>
     </g>
    </g>
   </g>
   <g id="xtick_14">
    <g id="line2d_17">
     <path d="M 352.47394 174.361456 
L 356.079295 175.367127 
" style="fill:none;stroke:#000000;stroke-linecap:square;stroke-width:0.8;"/>
    </g>
    <g id="text_16">
     <!-- 7.5 -->
     <g transform="translate(364.223615 179.758413)scale(0.1 -0.1)">
      <defs>
       <path d="M 8.203125 72.90625 
L 55.078125 72.90625 
L 55.078125 68.703125 
L 28.609375 0 
L 18.3125 0 
L 43.21875 64.59375 
L 8.203125 64.59375 
z
" id="DejaVuSans-55"/>
      </defs>
      <use xlink:href="#DejaVuSans-55"/>
      <use x="63.623047" xlink:href="#DejaVuSans-46"/>
      <use x="95.410156" xlink:href="#DejaVuSans-53"/>
     </g>
    </g>
   </g>
   <g id="xtick_15">
    <g id="line2d_18">
     <path d="M 353.148453 159.472908 
L 356.776226 160.466542 
" style="fill:none;stroke:#000000;stroke-linecap:square;stroke-width:0.8;"/>
    </g>
    <g id="text_17">
     <!-- 10.0 -->
     <g transform="translate(361.832667 164.896266)scale(0.1 -0.1)">
      <use xlink:href="#DejaVuSans-49"/>
      <use x="63.623047" xlink:href="#DejaVuSans-48"/>
      <use x="127.246094" xlink:href="#DejaVuSans-46"/>
      <use x="159.033203" xlink:href="#DejaVuSans-48"/>
     </g>
    </g>
   </g>
   <g id="xtick_16">
    <g id="line2d_19">
     <path d="M 353.831086 144.405099 
L 357.481559 145.386332 
" style="fill:none;stroke:#000000;stroke-linecap:square;stroke-width:0.8;"/>
    </g>
    <g id="text_18">
     <!-- 12.5 -->
     <g transform="translate(362.632458 149.855653)scale(0.1 -0.1)">
      <use xlink:href="#DejaVuSans-49"/>
      <use x="63.623047" xlink:href="#DejaVuSans-50"/>
      <use x="127.246094" xlink:href="#DejaVuSans-46"/>
      <use x="159.033203" xlink:href="#DejaVuSans-53"/>
     </g>
    </g>
   </g>
   <g id="xtick_17">
    <g id="line2d_20">
     <path d="M 354.521989 129.154772 
L 358.195446 130.123229 
" style="fill:none;stroke:#000000;stroke-linecap:square;stroke-width:0.8;"/>
    </g>
    <g id="text_19">
     <!-- 15.0 -->
     <g transform="translate(363.441912 134.633342)scale(0.1 -0.1)">
      <use xlink:href="#DejaVuSans-49"/>
      <use x="63.623047" xlink:href="#DejaVuSans-53"/>
      <use x="127.246094" xlink:href="#DejaVuSans-46"/>
      <use x="159.033203" xlink:href="#DejaVuSans-48"/>
     </g>
    </g>
   </g>
   <g id="xtick_18">
    <g id="line2d_21">
     <path d="M 355.221311 113.71859 
L 358.918044 114.673885 
" style="fill:none;stroke:#000000;stroke-linecap:square;stroke-width:0.8;"/>
    </g>
    <g id="text_20">
     <!-- 17.5 -->
     <g transform="translate(364.261203 119.226018)scale(0.1 -0.1)">
      <use xlink:href="#DejaVuSans-49"/>
      <use x="63.623047" xlink:href="#DejaVuSans-55"/>
      <use x="127.246094" xlink:href="#DejaVuSans-46"/>
      <use x="159.033203" xlink:href="#DejaVuSans-53"/>
     </g>
    </g>
   </g>
  </g>
  <g id="axes_1">
   <g id="Poly3DCollection_1">
    <path clip-path="url(#pfe170d491a)" d="M 239.920419 180.525681 
L 197.84255 183.345261 
L 206.987177 181.346512 
z
" style="fill:#3b4cc0;"/>
    <path clip-path="url(#pfe170d491a)" d="M 258.136442 185.636319 
L 297.49457 186.590685 
L 239.920419 180.525681 
z
" style="fill:#3b4cc0;"/>
    <path clip-path="url(#pfe170d491a)" d="M 227.007783 173.613548 
L 258.136442 185.636319 
L 239.920419 180.525681 
z
" style="fill:#4961d2;"/>
    <path clip-path="url(#pfe170d491a)" d="M 192.276943 184.66456 
L 206.987177 181.346512 
L 197.84255 183.345261 
z
" style="fill:#4257c9;"/>
    <path clip-path="url(#pfe170d491a)" d="M 189.763021 187.096439 
L 206.987177 181.346512 
L 192.276943 184.66456 
z
" style="fill:#455cce;"/>
    <path clip-path="url(#pfe170d491a)" d="M 206.987177 181.346512 
L 227.007783 173.613548 
L 239.920419 180.525681 
z
" style="fill:#536edd;"/>
    <path clip-path="url(#pfe170d491a)" d="M 297.49457 186.590685 
L 258.136442 185.636319 
L 294.150753 185.005762 
z
" style="fill:#4b64d5;"/>
    <path clip-path="url(#pfe170d491a)" d="M 189.763021 187.096439 
L 205.048445 192.853947 
L 206.987177 181.346512 
z
" style="fill:#4e68d8;"/>
    <path clip-path="url(#pfe170d491a)" d="M 244.055199 171.684339 
L 258.136442 185.636319 
L 227.007783 173.613548 
z
" style="fill:#6a8bef;"/>
    <path clip-path="url(#pfe170d491a)" d="M 258.136442 185.636319 
L 269.773322 169.485727 
L 294.150753 185.005762 
z
" style="fill:#6282ea;"/>
    <path clip-path="url(#pfe170d491a)" d="M 210.168069 182.07186 
L 227.007783 173.613548 
L 206.987177 181.346512 
z
" style="fill:#6a8bef;"/>
    <path clip-path="url(#pfe170d491a)" d="M 297.49457 186.590685 
L 294.150753 185.005762 
L 297.489465 186.022523 
z
" style="fill:#5977e3;"/>
    <path clip-path="url(#pfe170d491a)" d="M 206.987177 181.346512 
L 205.048445 192.853947 
L 210.168069 182.07186 
z
" style="fill:#5d7ce6;"/>
    <path clip-path="url(#pfe170d491a)" d="M 258.096549 152.432859 
L 258.136442 185.636319 
L 244.055199 171.684339 
z
" style="fill:#8badfd;"/>
    <path clip-path="url(#pfe170d491a)" d="M 258.096549 152.432859 
L 269.773322 169.485727 
L 258.136442 185.636319 
z
" style="fill:#90b2fe;"/>
    <path clip-path="url(#pfe170d491a)" d="M 224.363037 170.780224 
L 227.007783 173.613548 
L 210.168069 182.07186 
z
" style="fill:#82a6fb;"/>
    <path clip-path="url(#pfe170d491a)" d="M 297.49457 186.590685 
L 297.489465 186.022523 
L 308.720375 167.196686 
z
" style="fill:#799cf8;"/>
    <path clip-path="url(#pfe170d491a)" d="M 210.168069 182.07186 
L 205.048445 192.853947 
L 224.363037 170.780224 
z
" style="fill:#7597f6;"/>
    <path clip-path="url(#pfe170d491a)" d="M 286.805088 155.252577 
L 297.489465 186.022523 
L 294.150753 185.005762 
z
" style="fill:#86a9fc;"/>
    <path clip-path="url(#pfe170d491a)" d="M 227.007783 173.613548 
L 230.513964 159.533573 
L 244.055199 171.684339 
z
" style="fill:#9fbfff;"/>
    <path clip-path="url(#pfe170d491a)" d="M 286.805088 155.252577 
L 294.150753 185.005762 
L 269.773322 169.485727 
z
" style="fill:#9ebeff;"/>
    <path clip-path="url(#pfe170d491a)" d="M 230.513964 159.533573 
L 227.007783 173.613548 
L 224.363037 170.780224 
z
" style="fill:#a5c3fe;"/>
    <path clip-path="url(#pfe170d491a)" d="M 205.048445 192.853947 
L 189.763021 187.096439 
L 147.674343 191.796618 
z
" style="fill:#6788ee;"/>
    <path clip-path="url(#pfe170d491a)" d="M 308.720375 167.196686 
L 326.529933 185.18156 
L 297.49457 186.590685 
z
" style="fill:#8caffe;"/>
    <path clip-path="url(#pfe170d491a)" d="M 244.055199 171.684339 
L 230.513964 159.533573 
L 230.644544 159.312791 
z
" style="fill:#b9d0f9;"/>
    <path clip-path="url(#pfe170d491a)" d="M 224.363037 170.780224 
L 205.048445 192.853947 
L 209.514309 194.221159 
z
" style="fill:#7ea1fa;"/>
    <path clip-path="url(#pfe170d491a)" d="M 230.644544 159.312791 
L 232.724956 148.876194 
L 244.055199 171.684339 
z
" style="fill:#c7d7f0;"/>
    <path clip-path="url(#pfe170d491a)" d="M 232.724956 148.876194 
L 258.096549 152.432859 
L 244.055199 171.684339 
z
" style="fill:#cdd9ec;"/>
    <path clip-path="url(#pfe170d491a)" d="M 209.514309 194.221159 
L 230.513964 159.533573 
L 224.363037 170.780224 
z
" style="fill:#a6c4fe;"/>
    <path clip-path="url(#pfe170d491a)" d="M 269.773322 169.485727 
L 258.096549 152.432859 
L 257.78323 141.78957 
z
" style="fill:#d7dce3;"/>
    <path clip-path="url(#pfe170d491a)" d="M 308.720375 167.196686 
L 297.489465 186.022523 
L 290.122302 131.865437 
z
" style="fill:#c7d7f0;"/>
    <path clip-path="url(#pfe170d491a)" d="M 290.122302 131.865437 
L 297.489465 186.022523 
L 286.805088 155.252577 
z
" style="fill:#d2dbe8;"/>
    <path clip-path="url(#pfe170d491a)" d="M 230.513964 159.533573 
L 232.724956 148.876194 
L 230.644544 159.312791 
z
" style="fill:#dadce0;"/>
    <path clip-path="url(#pfe170d491a)" d="M 209.514309 194.221159 
L 205.048445 192.853947 
L 199.579047 219.192954 
z
" style="fill:#688aef;"/>
    <path clip-path="url(#pfe170d491a)" d="M 269.773322 169.485727 
L 266.689908 128.315939 
L 286.805088 155.252577 
z
" style="fill:#e5d8d1;"/>
    <path clip-path="url(#pfe170d491a)" d="M 269.773322 169.485727 
L 257.78323 141.78957 
L 265.464829 128.676776 
z
" style="fill:#eed0c0;"/>
    <path clip-path="url(#pfe170d491a)" d="M 326.529933 185.18156 
L 308.720375 167.196686 
L 314.092657 157.046906 
z
" style="fill:#c3d5f4;"/>
    <path clip-path="url(#pfe170d491a)" d="M 199.579047 219.192954 
L 205.048445 192.853947 
L 147.674343 191.796618 
z
" style="fill:#7295f4;"/>
    <path clip-path="url(#pfe170d491a)" d="M 325.172173 180.838522 
L 324.68268 183.130829 
L 326.529933 185.18156 
z
" style="fill:#a3c2fe;"/>
    <path clip-path="url(#pfe170d491a)" d="M 224.506421 158.157682 
L 230.513964 159.533573 
L 209.514309 194.221159 
z
" style="fill:#c4d5f3;"/>
    <path clip-path="url(#pfe170d491a)" d="M 314.092657 157.046906 
L 325.172173 180.838522 
L 326.529933 185.18156 
z
" style="fill:#bbd1f8;"/>
    <path clip-path="url(#pfe170d491a)" d="M 258.096549 152.432859 
L 253.956651 131.25946 
L 257.78323 141.78957 
z
" style="fill:#f5c2aa;"/>
    <path clip-path="url(#pfe170d491a)" d="M 230.513964 159.533573 
L 224.506421 158.157682 
L 232.724956 148.876194 
z
" style="fill:#e4d9d2;"/>
    <path clip-path="url(#pfe170d491a)" d="M 258.096549 152.432859 
L 232.724956 148.876194 
L 253.956651 131.25946 
z
" style="fill:#f3c7b1;"/>
    <path clip-path="url(#pfe170d491a)" d="M 265.464829 128.676776 
L 266.689908 128.315939 
L 269.773322 169.485727 
z
" style="fill:#f5c2aa;"/>
    <path clip-path="url(#pfe170d491a)" d="M 305.727477 151.359091 
L 314.092657 157.046906 
L 308.720375 167.196686 
z
" style="fill:#e0dbd8;"/>
    <path clip-path="url(#pfe170d491a)" d="M 305.727477 151.359091 
L 308.720375 167.196686 
L 294.579484 132.042048 
z
" style="fill:#f0cdbb;"/>
    <path clip-path="url(#pfe170d491a)" d="M 286.243178 140.039082 
L 286.805088 155.252577 
L 266.689908 128.315939 
z
" style="fill:#f7ba9f;"/>
    <path clip-path="url(#pfe170d491a)" d="M 290.122302 131.865437 
L 286.805088 155.252577 
L 286.243178 140.039082 
z
" style="fill:#f7bca1;"/>
    <path clip-path="url(#pfe170d491a)" d="M 325.172173 180.838522 
L 317.152563 169.334715 
L 324.68268 183.130829 
z
" style="fill:#bed2f6;"/>
    <path clip-path="url(#pfe170d491a)" d="M 254.550693 131.08602 
L 257.78323 141.78957 
L 253.956651 131.25946 
z
" style="fill:#f7a688;"/>
    <path clip-path="url(#pfe170d491a)" d="M 317.152563 169.334715 
L 325.172173 180.838522 
L 314.092657 157.046906 
z
" style="fill:#d3dbe7;"/>
    <path clip-path="url(#pfe170d491a)" d="M 254.550693 131.08602 
L 256.533952 128.037381 
L 257.78323 141.78957 
z
" style="fill:#f5a081;"/>
    <path clip-path="url(#pfe170d491a)" d="M 290.122302 131.865437 
L 294.579484 132.042048 
L 308.720375 167.196686 
z
" style="fill:#f7ba9f;"/>
    <path clip-path="url(#pfe170d491a)" d="M 228.580061 148.756863 
L 232.724956 148.876194 
L 224.506421 158.157682 
z
" style="fill:#f2cbb7;"/>
    <path clip-path="url(#pfe170d491a)" d="M 256.533952 128.037381 
L 265.464829 128.676776 
L 257.78323 141.78957 
z
" style="fill:#f59c7d;"/>
    <path clip-path="url(#pfe170d491a)" d="M 319.798403 189.62043 
L 324.68268 183.130829 
L 320.674297 185.525412 
z
" style="fill:#afcafc;"/>
    <path clip-path="url(#pfe170d491a)" d="M 232.724956 148.876194 
L 249.712421 122.923872 
L 253.956651 131.25946 
z
" style="fill:#f59f80;"/>
    <path clip-path="url(#pfe170d491a)" d="M 304.461658 146.763101 
L 305.727477 151.359091 
L 294.579484 132.042048 
z
" style="fill:#f7b79b;"/>
    <path clip-path="url(#pfe170d491a)" d="M 324.68268 183.130829 
L 317.152563 169.334715 
L 320.674297 185.525412 
z
" style="fill:#c1d4f4;"/>
    <path clip-path="url(#pfe170d491a)" d="M 199.579047 219.192954 
L 227.638875 164.309575 
L 209.514309 194.221159 
z
" style="fill:#a1c0ff;"/>
    <path clip-path="url(#pfe170d491a)" d="M 199.579047 219.192954 
L 147.674343 191.796618 
L 147.027902 190.977668 
z
" style="fill:#8caffe;"/>
    <path clip-path="url(#pfe170d491a)" d="M 304.392962 140.343769 
L 305.727477 151.359091 
L 304.461658 146.763101 
z
" style="fill:#f7bca1;"/>
    <path clip-path="url(#pfe170d491a)" d="M 235.828129 134.513324 
L 232.724956 148.876194 
L 228.580061 148.756863 
z
" style="fill:#f7b79b;"/>
    <path clip-path="url(#pfe170d491a)" d="M 227.638875 164.309575 
L 224.506421 158.157682 
L 209.514309 194.221159 
z
" style="fill:#d2dbe8;"/>
    <path clip-path="url(#pfe170d491a)" d="M 304.392962 140.343769 
L 314.092657 157.046906 
L 305.727477 151.359091 
z
" style="fill:#f5c2aa;"/>
    <path clip-path="url(#pfe170d491a)" d="M 146.395378 190.326406 
L 199.579047 219.192954 
L 147.027902 190.977668 
z
" style="fill:#8fb1fe;"/>
    <path clip-path="url(#pfe170d491a)" d="M 145.487599 189.68242 
L 199.579047 219.192954 
L 146.395378 190.326406 
z
" style="fill:#92b4fe;"/>
    <path clip-path="url(#pfe170d491a)" d="M 320.674297 185.525412 
L 317.152563 169.334715 
L 319.798403 189.62043 
z
" style="fill:#c0d4f5;"/>
    <path clip-path="url(#pfe170d491a)" d="M 254.550693 131.08602 
L 253.956651 131.25946 
L 249.712421 122.923872 
z
" style="fill:#ee8669;"/>
    <path clip-path="url(#pfe170d491a)" d="M 249.712421 122.923872 
L 232.724956 148.876194 
L 235.828129 134.513324 
z
" style="fill:#f59c7d;"/>
    <path clip-path="url(#pfe170d491a)" d="M 300.536949 137.76257 
L 302.876817 139.916557 
L 304.461658 146.763101 
z
" style="fill:#f7ac8e;"/>
    <path clip-path="url(#pfe170d491a)" d="M 145.390332 189.63535 
L 199.579047 219.192954 
L 145.487599 189.68242 
z
" style="fill:#93b5fe;"/>
    <path clip-path="url(#pfe170d491a)" d="M 314.092657 157.046906 
L 311.903047 154.396556 
L 317.152563 169.334715 
z
" style="fill:#ebd3c6;"/>
    <path clip-path="url(#pfe170d491a)" d="M 144.504713 189.417994 
L 199.579047 219.192954 
L 145.390332 189.63535 
z
" style="fill:#94b6ff;"/>
    <path clip-path="url(#pfe170d491a)" d="M 249.712421 122.923872 
L 256.533952 128.037381 
L 254.550693 131.08602 
z
" style="fill:#ec7f63;"/>
    <path clip-path="url(#pfe170d491a)" d="M 294.579484 132.042048 
L 300.536949 137.76257 
L 304.461658 146.763101 
z
" style="fill:#f6a385;"/>
    <path clip-path="url(#pfe170d491a)" d="M 231.900277 141.459079 
L 228.580061 148.756863 
L 224.506421 158.157682 
z
" style="fill:#f6bea4;"/>
    <path clip-path="url(#pfe170d491a)" d="M 304.461658 146.763101 
L 302.876817 139.916557 
L 304.392962 140.343769 
z
" style="fill:#f7ac8e;"/>
    <path clip-path="url(#pfe170d491a)" d="M 199.579047 219.192954 
L 144.504713 189.417994 
L 142.205515 190.836769 
z
" style="fill:#96b7ff;"/>
    <path clip-path="url(#pfe170d491a)" d="M 314.092657 157.046906 
L 304.392962 140.343769 
L 311.903047 154.396556 
z
" style="fill:#f6bea4;"/>
    <path clip-path="url(#pfe170d491a)" d="M 317.152563 169.334715 
L 307.351538 193.993173 
L 319.798403 189.62043 
z
" style="fill:#bfd3f6;"/>
    <path clip-path="url(#pfe170d491a)" d="M 137.865338 202.240103 
L 202.958708 227.545877 
L 199.579047 219.192954 
z
" style="fill:#6c8ff1;"/>
    <path clip-path="url(#pfe170d491a)" d="M 142.026071 191.078722 
L 199.579047 219.192954 
L 142.205515 190.836769 
z
" style="fill:#96b7ff;"/>
    <path clip-path="url(#pfe170d491a)" d="M 142.026071 191.078722 
L 141.872206 191.302033 
L 199.579047 219.192954 
z
" style="fill:#96b7ff;"/>
    <path clip-path="url(#pfe170d491a)" d="M 199.579047 219.192954 
L 141.872206 191.302033 
L 141.499505 191.904048 
z
" style="fill:#96b7ff;"/>
    <path clip-path="url(#pfe170d491a)" d="M 141.48622 191.927111 
L 199.579047 219.192954 
L 141.499505 191.904048 
z
" style="fill:#96b7ff;"/>
    <path clip-path="url(#pfe170d491a)" d="M 199.579047 219.192954 
L 141.48622 191.927111 
L 140.690155 193.511613 
z
" style="fill:#94b6ff;"/>
    <path clip-path="url(#pfe170d491a)" d="M 235.828129 134.513324 
L 228.580061 148.756863 
L 231.900277 141.459079 
z
" style="fill:#f7a688;"/>
    <path clip-path="url(#pfe170d491a)" d="M 140.690155 193.511613 
L 138.538343 199.748644 
L 199.579047 219.192954 
z
" style="fill:#8db0fe;"/>
    <path clip-path="url(#pfe170d491a)" d="M 286.243178 140.039082 
L 283.983045 122.321852 
L 290.122302 131.865437 
z
" style="fill:#ee8669;"/>
    <path clip-path="url(#pfe170d491a)" d="M 300.536949 137.76257 
L 304.392962 140.343769 
L 302.876817 139.916557 
z
" style="fill:#f59f80;"/>
    <path clip-path="url(#pfe170d491a)" d="M 199.579047 219.192954 
L 202.958708 227.545877 
L 226.627815 181.711888 
z
" style="fill:#80a3fa;"/>
    <path clip-path="url(#pfe170d491a)" d="M 199.579047 219.192954 
L 138.538343 199.748644 
L 137.865338 202.240103 
z
" style="fill:#86a9fc;"/>
    <path clip-path="url(#pfe170d491a)" d="M 266.689908 128.315939 
L 265.74633 114.311917 
L 286.243178 140.039082 
z
" style="fill:#e9785d;"/>
    <path clip-path="url(#pfe170d491a)" d="M 224.506421 158.157682 
L 227.638875 164.309575 
L 231.900277 141.459079 
z
" style="fill:#f5c4ac;"/>
    <path clip-path="url(#pfe170d491a)" d="M 303.412333 180.401035 
L 317.152563 169.334715 
L 311.903047 154.396556 
z
" style="fill:#e4d9d2;"/>
    <path clip-path="url(#pfe170d491a)" d="M 257.920088 113.451325 
L 265.464829 128.676776 
L 256.533952 128.037381 
z
" style="fill:#e16751;"/>
    <path clip-path="url(#pfe170d491a)" d="M 319.798403 189.62043 
L 307.351538 193.993173 
L 305.593907 207.906555 
z
" style="fill:#a3c2fe;"/>
    <path clip-path="url(#pfe170d491a)" d="M 226.627815 181.711888 
L 227.638875 164.309575 
L 199.579047 219.192954 
z
" style="fill:#bad0f8;"/>
    <path clip-path="url(#pfe170d491a)" d="M 292.135229 128.175335 
L 294.579484 132.042048 
L 290.122302 131.865437 
z
" style="fill:#ec7f63;"/>
    <path clip-path="url(#pfe170d491a)" d="M 231.900277 141.459079 
L 234.998622 135.36327 
L 235.828129 134.513324 
z
" style="fill:#f39475;"/>
    <path clip-path="url(#pfe170d491a)" d="M 266.689908 128.315939 
L 265.464829 128.676776 
L 261.685174 113.378237 
z
" style="fill:#e0654f;"/>
    <path clip-path="url(#pfe170d491a)" d="M 317.152563 169.334715 
L 303.412333 180.401035 
L 307.351538 193.993173 
z
" style="fill:#ccd9ed;"/>
    <path clip-path="url(#pfe170d491a)" d="M 294.579484 132.042048 
L 290.919991 126.523489 
L 300.536949 137.76257 
z
" style="fill:#ed8366;"/>
    <path clip-path="url(#pfe170d491a)" d="M 304.392962 140.343769 
L 300.536949 137.76257 
L 302.735398 141.728926 
z
" style="fill:#f49a7b;"/>
    <path clip-path="url(#pfe170d491a)" d="M 303.274413 142.875689 
L 311.903047 154.396556 
L 304.392962 140.343769 
z
" style="fill:#f7aa8c;"/>
    <path clip-path="url(#pfe170d491a)" d="M 256.533952 128.037381 
L 249.712421 122.923872 
L 257.920088 113.451325 
z
" style="fill:#d95847;"/>
    <path clip-path="url(#pfe170d491a)" d="M 241.898445 123.906054 
L 249.712421 122.923872 
L 235.828129 134.513324 
z
" style="fill:#e36c55;"/>
    <path clip-path="url(#pfe170d491a)" d="M 311.903047 154.396556 
L 303.274413 142.875689 
L 303.412333 180.401035 
z
" style="fill:#f3c8b2;"/>
    <path clip-path="url(#pfe170d491a)" d="M 234.998622 135.36327 
L 241.898445 123.906054 
L 235.828129 134.513324 
z
" style="fill:#ea7b60;"/>
    <path clip-path="url(#pfe170d491a)" d="M 290.122302 131.865437 
L 287.252062 124.149585 
L 292.135229 128.175335 
z
" style="fill:#e57058;"/>
    <path clip-path="url(#pfe170d491a)" d="M 292.135229 128.175335 
L 290.919991 126.523489 
L 294.579484 132.042048 
z
" style="fill:#e67259;"/>
    <path clip-path="url(#pfe170d491a)" d="M 241.898445 123.906054 
L 234.998622 135.36327 
L 231.900277 141.459079 
z
" style="fill:#ed8366;"/>
    <path clip-path="url(#pfe170d491a)" d="M 286.243178 140.039082 
L 265.74633 114.311917 
L 283.983045 122.321852 
z
" style="fill:#e0654f;"/>
    <path clip-path="url(#pfe170d491a)" d="M 307.351538 193.993173 
L 302.311684 210.004832 
L 305.593907 207.906555 
z
" style="fill:#9abbff;"/>
    <path clip-path="url(#pfe170d491a)" d="M 304.392962 140.343769 
L 302.735398 141.728926 
L 303.274413 142.875689 
z
" style="fill:#f49a7b;"/>
    <path clip-path="url(#pfe170d491a)" d="M 227.638875 164.309575 
L 241.898445 123.906054 
L 231.900277 141.459079 
z
" style="fill:#f59f80;"/>
    <path clip-path="url(#pfe170d491a)" d="M 303.412333 180.401035 
L 302.311684 210.004832 
L 307.351538 193.993173 
z
" style="fill:#b2ccfb;"/>
    <path clip-path="url(#pfe170d491a)" d="M 291.909062 134.390434 
L 302.735398 141.728926 
L 300.536949 137.76257 
z
" style="fill:#f18d6f;"/>
    <path clip-path="url(#pfe170d491a)" d="M 226.712852 224.385389 
L 226.627815 181.711888 
L 202.958708 227.545877 
z
" style="fill:#88abfd;"/>
    <path clip-path="url(#pfe170d491a)" d="M 300.536949 137.76257 
L 290.919991 126.523489 
L 291.909062 134.390434 
z
" style="fill:#ea7b60;"/>
    <path clip-path="url(#pfe170d491a)" d="M 283.983045 122.321852 
L 287.252062 124.149585 
L 290.122302 131.865437 
z
" style="fill:#e0654f;"/>
    <path clip-path="url(#pfe170d491a)" d="M 249.712421 122.923872 
L 241.898445 123.906054 
L 245.49157 119.635435 
z
" style="fill:#d65244;"/>
    <path clip-path="url(#pfe170d491a)" d="M 287.252062 124.149585 
L 290.919991 126.523489 
L 292.135229 128.175335 
z
" style="fill:#de614d;"/>
    <path clip-path="url(#pfe170d491a)" d="M 233.293216 164.600759 
L 227.638875 164.309575 
L 226.627815 181.711888 
z
" style="fill:#e9d5cb;"/>
    <path clip-path="url(#pfe170d491a)" d="M 295.850559 162.816325 
L 303.412333 180.401035 
L 303.274413 142.875689 
z
" style="fill:#f2c9b4;"/>
    <path clip-path="url(#pfe170d491a)" d="M 261.685174 113.378237 
L 265.464829 128.676776 
L 257.920088 113.451325 
z
" style="fill:#cc403a;"/>
    <path clip-path="url(#pfe170d491a)" d="M 302.311684 210.004832 
L 303.412333 180.401035 
L 292.757453 188.604205 
z
" style="fill:#bad0f8;"/>
    <path clip-path="url(#pfe170d491a)" d="M 295.850559 162.816325 
L 303.274413 142.875689 
L 302.735398 141.728926 
z
" style="fill:#f7aa8c;"/>
    <path clip-path="url(#pfe170d491a)" d="M 261.685174 113.378237 
L 265.74633 114.311917 
L 266.689908 128.315939 
z
" style="fill:#cc403a;"/>
    <path clip-path="url(#pfe170d491a)" d="M 226.627815 181.711888 
L 232.34906 193.042672 
L 233.293216 164.600759 
z
" style="fill:#d8dce2;"/>
    <path clip-path="url(#pfe170d491a)" d="M 292.757453 188.604205 
L 303.412333 180.401035 
L 295.850559 162.816325 
z
" style="fill:#dddcdc;"/>
    <path clip-path="url(#pfe170d491a)" d="M 232.34906 193.042672 
L 226.627815 181.711888 
L 226.712852 224.385389 
z
" style="fill:#abc8fd;"/>
    <path clip-path="url(#pfe170d491a)" d="M 248.217156 118.195455 
L 249.712421 122.923872 
L 245.49157 119.635435 
z
" style="fill:#cd423b;"/>
    <path clip-path="url(#pfe170d491a)" d="M 302.735398 141.728926 
L 291.909062 134.390434 
L 295.850559 162.816325 
z
" style="fill:#f59f80;"/>
    <path clip-path="url(#pfe170d491a)" d="M 233.293216 164.600759 
L 232.34906 193.042672 
L 236.259657 188.265825 
z
" style="fill:#d6dce4;"/>
    <path clip-path="url(#pfe170d491a)" d="M 290.919991 126.523489 
L 287.252062 124.149585 
L 291.909062 134.390434 
z
" style="fill:#df634e;"/>
    <path clip-path="url(#pfe170d491a)" d="M 249.712421 122.923872 
L 248.217156 118.195455 
L 257.920088 113.451325 
z
" style="fill:#c83836;"/>
    <path clip-path="url(#pfe170d491a)" d="M 241.686188 132.81489 
L 241.898445 123.906054 
L 227.638875 164.309575 
z
" style="fill:#f18d6f;"/>
    <path clip-path="url(#pfe170d491a)" d="M 295.850559 162.816325 
L 291.702767 189.292512 
L 292.757453 188.604205 
z
" style="fill:#dadce0;"/>
    <path clip-path="url(#pfe170d491a)" d="M 226.712852 224.385389 
L 236.259657 188.265825 
L 232.34906 193.042672 
z
" style="fill:#a9c6fd;"/>
    <path clip-path="url(#pfe170d491a)" d="M 227.638875 164.309575 
L 233.293216 164.600759 
L 241.686188 132.81489 
z
" style="fill:#f7b396;"/>
    <path clip-path="url(#pfe170d491a)" d="M 292.757453 188.604205 
L 286.304161 214.239824 
L 302.311684 210.004832 
z
" style="fill:#a3c2fe;"/>
    <path clip-path="url(#pfe170d491a)" d="M 245.496314 119.614937 
L 245.49157 119.635435 
L 241.898445 123.906054 
z
" style="fill:#cd423b;"/>
    <path clip-path="url(#pfe170d491a)" d="M 287.252062 124.149585 
L 283.983045 122.321852 
L 281.88633 122.666242 
z
" style="fill:#d1493f;"/>
    <path clip-path="url(#pfe170d491a)" d="M 305.593907 207.906555 
L 277.887848 246.596414 
L 319.798403 189.62043 
z
" style="fill:#8badfd;"/>
    <path clip-path="url(#pfe170d491a)" d="M 295.850559 162.816325 
L 280.967429 150.631646 
L 291.702767 189.292512 
z
" style="fill:#f0cdbb;"/>
    <path clip-path="url(#pfe170d491a)" d="M 292.757453 188.604205 
L 291.702767 189.292512 
L 286.304161 214.239824 
z
" style="fill:#b6cefa;"/>
    <path clip-path="url(#pfe170d491a)" d="M 241.898445 123.906054 
L 241.686188 132.81489 
L 245.496314 119.614937 
z
" style="fill:#d65244;"/>
    <path clip-path="url(#pfe170d491a)" d="M 236.259657 188.265825 
L 243.23274 142.920591 
L 233.293216 164.600759 
z
" style="fill:#f2c9b4;"/>
    <path clip-path="url(#pfe170d491a)" d="M 202.958708 227.545877 
L 137.865338 202.240103 
L 229.218653 252.713865 
z
" style="fill:#6a8bef;"/>
    <path clip-path="url(#pfe170d491a)" d="M 291.909062 134.390434 
L 280.967429 150.631646 
L 295.850559 162.816325 
z
" style="fill:#f6a283;"/>
    <path clip-path="url(#pfe170d491a)" d="M 281.576852 129.016615 
L 291.909062 134.390434 
L 287.252062 124.149585 
z
" style="fill:#dd5f4b;"/>
    <path clip-path="url(#pfe170d491a)" d="M 248.217156 118.195455 
L 245.49157 119.635435 
L 245.496314 119.614937 
z
" style="fill:#c53334;"/>
    <path clip-path="url(#pfe170d491a)" d="M 281.576852 129.016615 
L 287.252062 124.149585 
L 281.88633 122.666242 
z
" style="fill:#d44e41;"/>
    <path clip-path="url(#pfe170d491a)" d="M 282.991207 202.379977 
L 291.702767 189.292512 
L 280.967429 150.631646 
z
" style="fill:#dcdddd;"/>
    <path clip-path="url(#pfe170d491a)" d="M 286.304161 214.239824 
L 291.702767 189.292512 
L 282.991207 202.379977 
z
" style="fill:#adc9fd;"/>
    <path clip-path="url(#pfe170d491a)" d="M 241.686188 132.81489 
L 233.293216 164.600759 
L 243.23274 142.920591 
z
" style="fill:#f4987a;"/>
    <path clip-path="url(#pfe170d491a)" d="M 270.989606 124.202325 
L 281.88633 122.666242 
L 283.983045 122.321852 
z
" style="fill:#cd423b;"/>
    <path clip-path="url(#pfe170d491a)" d="M 245.496314 119.614937 
L 241.686188 132.81489 
L 248.217156 118.195455 
z
" style="fill:#cf453c;"/>
    <path clip-path="url(#pfe170d491a)" d="M 281.576852 129.016615 
L 280.967429 150.631646 
L 291.909062 134.390434 
z
" style="fill:#ea7b60;"/>
    <path clip-path="url(#pfe170d491a)" d="M 280.967429 150.631646 
L 266.891215 197.242397 
L 282.991207 202.379977 
z
" style="fill:#d9dce1;"/>
    <path clip-path="url(#pfe170d491a)" d="M 283.983045 122.321852 
L 265.74633 114.311917 
L 270.989606 124.202325 
z
" style="fill:#c53334;"/>
    <path clip-path="url(#pfe170d491a)" d="M 250.016738 155.782206 
L 247.655623 146.489975 
L 236.259657 188.265825 
z
" style="fill:#f5c2aa;"/>
    <path clip-path="url(#pfe170d491a)" d="M 247.655623 146.489975 
L 243.23274 142.920591 
L 236.259657 188.265825 
z
" style="fill:#f7b99e;"/>
    <path clip-path="url(#pfe170d491a)" d="M 226.712852 224.385389 
L 242.11714 222.118324 
L 236.259657 188.265825 
z
" style="fill:#98b9ff;"/>
    <path clip-path="url(#pfe170d491a)" d="M 282.991207 202.379977 
L 266.891215 197.242397 
L 277.851477 209.338654 
z
" style="fill:#aec9fc;"/>
    <path clip-path="url(#pfe170d491a)" d="M 229.218653 252.713865 
L 226.712852 224.385389 
L 202.958708 227.545877 
z
" style="fill:#5d7ce6;"/>
    <path clip-path="url(#pfe170d491a)" d="M 277.851477 209.338654 
L 286.304161 214.239824 
L 282.991207 202.379977 
z
" style="fill:#a1c0ff;"/>
    <path clip-path="url(#pfe170d491a)" d="M 261.685174 113.378237 
L 264.141671 114.607226 
L 265.74633 114.311917 
z
" style="fill:#b40426;"/>
    <path clip-path="url(#pfe170d491a)" d="M 280.967429 150.631646 
L 272.361874 138.6288 
L 266.891215 197.242397 
z
" style="fill:#f6bea4;"/>
    <path clip-path="url(#pfe170d491a)" d="M 257.920088 113.451325 
L 257.982572 116.78996 
L 261.685174 113.378237 
z
" style="fill:#b40426;"/>
    <path clip-path="url(#pfe170d491a)" d="M 305.593907 207.906555 
L 302.311684 210.004832 
L 277.887848 246.596414 
z
" style="fill:#80a3fa;"/>
    <path clip-path="url(#pfe170d491a)" d="M 241.686188 132.81489 
L 243.23274 142.920591 
L 248.217156 118.195455 
z
" style="fill:#dd5f4b;"/>
    <path clip-path="url(#pfe170d491a)" d="M 257.920088 113.451325 
L 248.217156 118.195455 
L 257.982572 116.78996 
z
" style="fill:#b8122a;"/>
    <path clip-path="url(#pfe170d491a)" d="M 281.576852 129.016615 
L 281.88633 122.666242 
L 270.989606 124.202325 
z
" style="fill:#d0473d;"/>
    <path clip-path="url(#pfe170d491a)" d="M 272.361874 138.6288 
L 280.967429 150.631646 
L 281.576852 129.016615 
z
" style="fill:#ea7b60;"/>
    <path clip-path="url(#pfe170d491a)" d="M 257.333594 139.762169 
L 250.016738 155.782206 
L 266.891215 197.242397 
z
" style="fill:#f5c1a9;"/>
    <path clip-path="url(#pfe170d491a)" d="M 250.016738 155.782206 
L 236.259657 188.265825 
L 242.11714 222.118324 
z
" style="fill:#d2dbe8;"/>
    <path clip-path="url(#pfe170d491a)" d="M 266.891215 197.242397 
L 270.850547 211.130776 
L 277.851477 209.338654 
z
" style="fill:#a9c6fd;"/>
    <path clip-path="url(#pfe170d491a)" d="M 266.891215 197.242397 
L 272.361874 138.6288 
L 270.27073 137.215709 
z
" style="fill:#f7b194;"/>
    <path clip-path="url(#pfe170d491a)" d="M 257.982572 116.78996 
L 264.141671 114.607226 
L 261.685174 113.378237 
z
" style="fill:#b40426;"/>
    <path clip-path="url(#pfe170d491a)" d="M 251.400831 137.89016 
L 248.217156 118.195455 
L 243.23274 142.920591 
z
" style="fill:#df634e;"/>
    <path clip-path="url(#pfe170d491a)" d="M 267.18635 126.254798 
L 265.74633 114.311917 
L 264.141671 114.607226 
z
" style="fill:#bd1f2d;"/>
    <path clip-path="url(#pfe170d491a)" d="M 270.27073 137.215709 
L 257.333594 139.762169 
L 266.891215 197.242397 
z
" style="fill:#f7b194;"/>
    <path clip-path="url(#pfe170d491a)" d="M 270.989606 124.202325 
L 272.361874 138.6288 
L 281.576852 129.016615 
z
" style="fill:#d95847;"/>
    <path clip-path="url(#pfe170d491a)" d="M 251.400831 137.89016 
L 247.655623 146.489975 
L 250.016738 155.782206 
z
" style="fill:#f29274;"/>
    <path clip-path="url(#pfe170d491a)" d="M 251.400831 137.89016 
L 243.23274 142.920591 
L 247.655623 146.489975 
z
" style="fill:#ed8366;"/>
    <path clip-path="url(#pfe170d491a)" d="M 270.989606 124.202325 
L 265.74633 114.311917 
L 267.18635 126.254798 
z
" style="fill:#c43032;"/>
    <path clip-path="url(#pfe170d491a)" d="M 266.891215 197.242397 
L 250.016738 155.782206 
L 242.11714 222.118324 
z
" style="fill:#cdd9ec;"/>
    <path clip-path="url(#pfe170d491a)" d="M 257.982572 116.78996 
L 248.217156 118.195455 
L 251.400831 137.89016 
z
" style="fill:#cb3e38;"/>
    <path clip-path="url(#pfe170d491a)" d="M 250.016738 155.782206 
L 257.333594 139.762169 
L 251.400831 137.89016 
z
" style="fill:#f08a6c;"/>
    <path clip-path="url(#pfe170d491a)" d="M 270.27073 137.215709 
L 272.361874 138.6288 
L 270.989606 124.202325 
z
" style="fill:#df634e;"/>
    <path clip-path="url(#pfe170d491a)" d="M 264.141671 114.607226 
L 257.982572 116.78996 
L 257.333594 139.762169 
z
" style="fill:#c83836;"/>
    <path clip-path="url(#pfe170d491a)" d="M 264.141671 114.607226 
L 257.333594 139.762169 
L 267.18635 126.254798 
z
" style="fill:#d0473d;"/>
    <path clip-path="url(#pfe170d491a)" d="M 270.989606 124.202325 
L 267.18635 126.254798 
L 270.27073 137.215709 
z
" style="fill:#d55042;"/>
    <path clip-path="url(#pfe170d491a)" d="M 270.27073 137.215709 
L 267.18635 126.254798 
L 257.333594 139.762169 
z
" style="fill:#e0654f;"/>
    <path clip-path="url(#pfe170d491a)" d="M 251.400831 137.89016 
L 257.333594 139.762169 
L 257.982572 116.78996 
z
" style="fill:#d95847;"/>
    <path clip-path="url(#pfe170d491a)" d="M 277.887848 246.596414 
L 302.311684 210.004832 
L 286.304161 214.239824 
z
" style="fill:#81a4fb;"/>
    <path clip-path="url(#pfe170d491a)" d="M 266.891215 197.242397 
L 245.295964 223.917408 
L 270.850547 211.130776 
z
" style="fill:#a6c4fe;"/>
    <path clip-path="url(#pfe170d491a)" d="M 242.11714 222.118324 
L 245.295964 223.917408 
L 266.891215 197.242397 
z
" style="fill:#9fbfff;"/>
    <path clip-path="url(#pfe170d491a)" d="M 242.11714 222.118324 
L 226.712852 224.385389 
L 229.218653 252.713865 
z
" style="fill:#6f92f3;"/>
    <path clip-path="url(#pfe170d491a)" d="M 267.615398 233.584479 
L 286.304161 214.239824 
L 277.851477 209.338654 
z
" style="fill:#94b6ff;"/>
    <path clip-path="url(#pfe170d491a)" d="M 270.850547 211.130776 
L 267.615398 233.584479 
L 277.851477 209.338654 
z
" style="fill:#98b9ff;"/>
    <path clip-path="url(#pfe170d491a)" d="M 251.467155 225.703904 
L 270.850547 211.130776 
L 245.295964 223.917408 
z
" style="fill:#9dbdff;"/>
    <path clip-path="url(#pfe170d491a)" d="M 245.295964 223.917408 
L 242.11714 222.118324 
L 229.218653 252.713865 
z
" style="fill:#7b9ff9;"/>
    <path clip-path="url(#pfe170d491a)" d="M 277.887848 246.596414 
L 286.304161 214.239824 
L 267.615398 233.584479 
z
" style="fill:#80a3fa;"/>
    <path clip-path="url(#pfe170d491a)" d="M 251.467155 225.703904 
L 255.450305 227.838422 
L 270.850547 211.130776 
z
" style="fill:#9ebeff;"/>
    <path clip-path="url(#pfe170d491a)" d="M 255.450305 227.838422 
L 267.615398 233.584479 
L 270.850547 211.130776 
z
" style="fill:#97b8ff;"/>
    <path clip-path="url(#pfe170d491a)" d="M 229.218653 252.713865 
L 251.467155 225.703904 
L 245.295964 223.917408 
z
" style="fill:#82a6fb;"/>
    <path clip-path="url(#pfe170d491a)" d="M 255.450305 227.838422 
L 251.467155 225.703904 
L 229.218653 252.713865 
z
" style="fill:#84a7fc;"/>
    <path clip-path="url(#pfe170d491a)" d="M 255.450305 227.838422 
L 229.218653 252.713865 
L 260.11495 256.142323 
z
" style="fill:#6e90f2;"/>
    <path clip-path="url(#pfe170d491a)" d="M 260.11495 256.142323 
L 277.887848 246.596414 
L 267.615398 233.584479 
z
" style="fill:#6e90f2;"/>
    <path clip-path="url(#pfe170d491a)" d="M 267.615398 233.584479 
L 255.450305 227.838422 
L 260.11495 256.142323 
z
" style="fill:#81a4fb;"/>
   </g>
  </g>
 </g>
 <defs>
  <clipPath id="pfe170d491a">
   <rect height="266.112" width="266.112" x="103.104" y="41.472"/>
  </clipPath>
 </defs>
</svg>
