<?xml version="1.0" encoding="utf-8" standalone="no"?>
<!DOCTYPE svg PUBLIC "-//W3C//DTD SVG 1.1//EN"
  "http://www.w3.org/Graphics/SVG/1.1/DTD/svg11.dtd">
<!-- Created with matplotlib (https://matplotlib.org/) -->
<svg height="345.6pt" version="1.1" viewBox="0 0 460.8 345.6" width="460.8pt" xmlns="http://www.w3.org/2000/svg" xmlns:xlink="http://www.w3.org/1999/xlink">
 <metadata>
  <rdf:RDF xmlns:cc="http://creativecommons.org/ns#" xmlns:dc="http://purl.org/dc/elements/1.1/" xmlns:rdf="http://www.w3.org/1999/02/22-rdf-syntax-ns#">
   <cc:Work>
    <dc:type rdf:resource="http://purl.org/dc/dcmitype/StillImage"/>
    <dc:date>2021-04-11T20:54:32.753857</dc:date>
    <dc:format>image/svg+xml</dc:format>
    <dc:creator>
     <cc:Agent>
      <dc:title>Matplotlib v3.3.4, https://matplotlib.org/</dc:title>
     </cc:Agent>
    </dc:creator>
   </cc:Work>
  </rdf:RDF>
 </metadata>
 <defs>
  <style type="text/css">*{stroke-linecap:butt;stroke-linejoin:round;}</style>
 </defs>
 <g id="figure_1">
  <g id="patch_1">
   <path d="M 0 345.6 
L 460.8 345.6 
L 460.8 0 
L 0 0 
z
" style="fill:#ffffff;"/>
  </g>
  <g id="patch_2">
   <path d="M 103.104 307.584 
L 369.216 307.584 
L 369.216 41.472 
L 103.104 41.472 
z
" style="fill:#ffffff;"/>
  </g>
  <g id="pane3d_1">
   <g id="patch_3">
    <path d="M 123.197291 241.969309 
L 211.076164 168.307495 
L 209.854564 62.073991 
L 117.770234 129.272941 
" style="fill:#f2f2f2;opacity:0.5;stroke:#f2f2f2;stroke-linejoin:miter;"/>
   </g>
  </g>
  <g id="pane3d_2">
   <g id="patch_4">
    <path d="M 211.076164 168.307495 
L 352.090401 209.294766 
L 357.122702 99.402171 
L 209.854564 62.073991 
" style="fill:#e6e6e6;opacity:0.5;stroke:#e6e6e6;stroke-linejoin:miter;"/>
   </g>
  </g>
  <g id="pane3d_3">
   <g id="patch_5">
    <path d="M 123.197291 241.969309 
L 272.679269 290.790123 
L 352.090401 209.294766 
L 211.076164 168.307495 
" style="fill:#ececec;opacity:0.5;stroke:#ececec;stroke-linejoin:miter;"/>
   </g>
  </g>
  <g id="axis3d_1">
   <g id="line2d_1">
    <path d="M 123.197291 241.969309 
L 272.679269 290.790123 
" style="fill:none;stroke:#000000;stroke-linecap:square;stroke-width:0.8;"/>
   </g>
   <g id="text_1">
    <!-- ATAC -->
    <g transform="translate(167.15299 303.76759)scale(0.1 -0.1)">
     <defs>
      <path d="M 34.1875 63.1875 
L 20.796875 26.90625 
L 47.609375 26.90625 
z
M 28.609375 72.90625 
L 39.796875 72.90625 
L 67.578125 0 
L 57.328125 0 
L 50.6875 18.703125 
L 17.828125 18.703125 
L 11.1875 0 
L 0.78125 0 
z
" id="DejaVuSans-65"/>
      <path d="M -0.296875 72.90625 
L 61.375 72.90625 
L 61.375 64.59375 
L 35.5 64.59375 
L 35.5 0 
L 25.59375 0 
L 25.59375 64.59375 
L -0.296875 64.59375 
z
" id="DejaVuSans-84"/>
      <path d="M 64.40625 67.28125 
L 64.40625 56.890625 
Q 59.421875 61.53125 53.78125 63.8125 
Q 48.140625 66.109375 41.796875 66.109375 
Q 29.296875 66.109375 22.65625 58.46875 
Q 16.015625 50.828125 16.015625 36.375 
Q 16.015625 21.96875 22.65625 14.328125 
Q 29.296875 6.6875 41.796875 6.6875 
Q 48.140625 6.6875 53.78125 8.984375 
Q 59.421875 11.28125 64.40625 15.921875 
L 64.40625 5.609375 
Q 59.234375 2.09375 53.4375 0.328125 
Q 47.65625 -1.421875 41.21875 -1.421875 
Q 24.65625 -1.421875 15.125 8.703125 
Q 5.609375 18.84375 5.609375 36.375 
Q 5.609375 53.953125 15.125 64.078125 
Q 24.65625 74.21875 41.21875 74.21875 
Q 47.75 74.21875 53.53125 72.484375 
Q 59.328125 70.75 64.40625 67.28125 
z
" id="DejaVuSans-67"/>
     </defs>
     <use xlink:href="#DejaVuSans-65"/>
     <use x="60.658203" xlink:href="#DejaVuSans-84"/>
     <use x="113.992188" xlink:href="#DejaVuSans-65"/>
     <use x="180.650391" xlink:href="#DejaVuSans-67"/>
    </g>
   </g>
   <g id="Line3DCollection_1">
    <path d="M 137.402261 246.608652 
L 224.530099 172.218022 
L 223.878364 65.628615 
" style="fill:none;stroke:#b0b0b0;stroke-width:0.8;"/>
    <path d="M 164.221799 255.367913 
L 249.900843 179.592296 
L 250.339095 72.335639 
" style="fill:none;stroke:#b0b0b0;stroke-width:0.8;"/>
    <path d="M 191.564891 264.298167 
L 275.725472 187.098496 
L 277.293852 79.167884 
" style="fill:none;stroke:#b0b0b0;stroke-width:0.8;"/>
    <path d="M 219.447019 273.40447 
L 302.016276 194.740195 
L 304.756601 86.128891 
" style="fill:none;stroke:#b0b0b0;stroke-width:0.8;"/>
    <path d="M 247.88428 282.692079 
L 328.785993 202.521095 
L 332.741838 93.222333 
" style="fill:none;stroke:#b0b0b0;stroke-width:0.8;"/>
   </g>
   <g id="xtick_1">
    <g id="line2d_2">
     <path d="M 138.16108 245.960765 
L 135.881361 247.907212 
" style="fill:none;stroke:#000000;stroke-linecap:square;stroke-width:0.8;"/>
    </g>
    <g id="text_2">
     <!-- 0.1 -->
     <g transform="translate(121.926777 269.953401)scale(0.1 -0.1)">
      <defs>
       <path d="M 31.78125 66.40625 
Q 24.171875 66.40625 20.328125 58.90625 
Q 16.5 51.421875 16.5 36.375 
Q 16.5 21.390625 20.328125 13.890625 
Q 24.171875 6.390625 31.78125 6.390625 
Q 39.453125 6.390625 43.28125 13.890625 
Q 47.125 21.390625 47.125 36.375 
Q 47.125 51.421875 43.28125 58.90625 
Q 39.453125 66.40625 31.78125 66.40625 
z
M 31.78125 74.21875 
Q 44.046875 74.21875 50.515625 64.515625 
Q 56.984375 54.828125 56.984375 36.375 
Q 56.984375 17.96875 50.515625 8.265625 
Q 44.046875 -1.421875 31.78125 -1.421875 
Q 19.53125 -1.421875 13.0625 8.265625 
Q 6.59375 17.96875 6.59375 36.375 
Q 6.59375 54.828125 13.0625 64.515625 
Q 19.53125 74.21875 31.78125 74.21875 
z
" id="DejaVuSans-48"/>
       <path d="M 10.6875 12.40625 
L 21 12.40625 
L 21 0 
L 10.6875 0 
z
" id="DejaVuSans-46"/>
       <path d="M 12.40625 8.296875 
L 28.515625 8.296875 
L 28.515625 63.921875 
L 10.984375 60.40625 
L 10.984375 69.390625 
L 28.421875 72.90625 
L 38.28125 72.90625 
L 38.28125 8.296875 
L 54.390625 8.296875 
L 54.390625 0 
L 12.40625 0 
z
" id="DejaVuSans-49"/>
      </defs>
      <use xlink:href="#DejaVuSans-48"/>
      <use x="63.623047" xlink:href="#DejaVuSans-46"/>
      <use x="95.410156" xlink:href="#DejaVuSans-49"/>
     </g>
    </g>
   </g>
   <g id="xtick_2">
    <g id="line2d_3">
     <path d="M 164.968587 254.707445 
L 162.724982 256.691718 
" style="fill:none;stroke:#000000;stroke-linecap:square;stroke-width:0.8;"/>
    </g>
    <g id="text_3">
     <!-- 0.2 -->
     <g transform="translate(148.774164 278.898381)scale(0.1 -0.1)">
      <defs>
       <path d="M 19.1875 8.296875 
L 53.609375 8.296875 
L 53.609375 0 
L 7.328125 0 
L 7.328125 8.296875 
Q 12.9375 14.109375 22.625 23.890625 
Q 32.328125 33.6875 34.8125 36.53125 
Q 39.546875 41.84375 41.421875 45.53125 
Q 43.3125 49.21875 43.3125 52.78125 
Q 43.3125 58.59375 39.234375 62.25 
Q 35.15625 65.921875 28.609375 65.921875 
Q 23.96875 65.921875 18.8125 64.3125 
Q 13.671875 62.703125 7.8125 59.421875 
L 7.8125 69.390625 
Q 13.765625 71.78125 18.9375 73 
Q 24.125 74.21875 28.421875 74.21875 
Q 39.75 74.21875 46.484375 68.546875 
Q 53.21875 62.890625 53.21875 53.421875 
Q 53.21875 48.921875 51.53125 44.890625 
Q 49.859375 40.875 45.40625 35.40625 
Q 44.1875 33.984375 37.640625 27.21875 
Q 31.109375 20.453125 19.1875 8.296875 
z
" id="DejaVuSans-50"/>
      </defs>
      <use xlink:href="#DejaVuSans-48"/>
      <use x="63.623047" xlink:href="#DejaVuSans-46"/>
      <use x="95.410156" xlink:href="#DejaVuSans-50"/>
     </g>
    </g>
   </g>
   <g id="xtick_3">
    <g id="line2d_4">
     <path d="M 192.299032 263.624747 
L 190.093392 265.647959 
" style="fill:none;stroke:#000000;stroke-linecap:square;stroke-width:0.8;"/>
    </g>
    <g id="text_4">
     <!-- 0.3 -->
     <g transform="translate(176.147638 288.018643)scale(0.1 -0.1)">
      <defs>
       <path d="M 40.578125 39.3125 
Q 47.65625 37.796875 51.625 33 
Q 55.609375 28.21875 55.609375 21.1875 
Q 55.609375 10.40625 48.1875 4.484375 
Q 40.765625 -1.421875 27.09375 -1.421875 
Q 22.515625 -1.421875 17.65625 -0.515625 
Q 12.796875 0.390625 7.625 2.203125 
L 7.625 11.71875 
Q 11.71875 9.328125 16.59375 8.109375 
Q 21.484375 6.890625 26.8125 6.890625 
Q 36.078125 6.890625 40.9375 10.546875 
Q 45.796875 14.203125 45.796875 21.1875 
Q 45.796875 27.640625 41.28125 31.265625 
Q 36.765625 34.90625 28.71875 34.90625 
L 20.21875 34.90625 
L 20.21875 43.015625 
L 29.109375 43.015625 
Q 36.375 43.015625 40.234375 45.921875 
Q 44.09375 48.828125 44.09375 54.296875 
Q 44.09375 59.90625 40.109375 62.90625 
Q 36.140625 65.921875 28.71875 65.921875 
Q 24.65625 65.921875 20.015625 65.03125 
Q 15.375 64.15625 9.8125 62.3125 
L 9.8125 71.09375 
Q 15.4375 72.65625 20.34375 73.4375 
Q 25.25 74.21875 29.59375 74.21875 
Q 40.828125 74.21875 47.359375 69.109375 
Q 53.90625 64.015625 53.90625 55.328125 
Q 53.90625 49.265625 50.4375 45.09375 
Q 46.96875 40.921875 40.578125 39.3125 
z
" id="DejaVuSans-51"/>
      </defs>
      <use xlink:href="#DejaVuSans-48"/>
      <use x="63.623047" xlink:href="#DejaVuSans-46"/>
      <use x="95.410156" xlink:href="#DejaVuSans-51"/>
     </g>
    </g>
   </g>
   <g id="xtick_4">
    <g id="line2d_5">
     <path d="M 220.167867 272.717714 
L 218.002133 274.781022 
" style="fill:none;stroke:#000000;stroke-linecap:square;stroke-width:0.8;"/>
    </g>
    <g id="text_5">
     <!-- 0.4 -->
     <g transform="translate(204.062816 297.319388)scale(0.1 -0.1)">
      <defs>
       <path d="M 37.796875 64.3125 
L 12.890625 25.390625 
L 37.796875 25.390625 
z
M 35.203125 72.90625 
L 47.609375 72.90625 
L 47.609375 25.390625 
L 58.015625 25.390625 
L 58.015625 17.1875 
L 47.609375 17.1875 
L 47.609375 0 
L 37.796875 0 
L 37.796875 17.1875 
L 4.890625 17.1875 
L 4.890625 26.703125 
z
" id="DejaVuSans-52"/>
      </defs>
      <use xlink:href="#DejaVuSans-48"/>
      <use x="63.623047" xlink:href="#DejaVuSans-46"/>
      <use x="95.410156" xlink:href="#DejaVuSans-52"/>
     </g>
    </g>
   </g>
   <g id="xtick_5">
    <g id="line2d_6">
     <path d="M 248.591158 281.991587 
L 246.467366 284.096196 
" style="fill:none;stroke:#000000;stroke-linecap:square;stroke-width:0.8;"/>
    </g>
    <g id="text_6">
     <!-- 0.5 -->
     <g transform="translate(232.535938 306.806029)scale(0.1 -0.1)">
      <defs>
       <path d="M 10.796875 72.90625 
L 49.515625 72.90625 
L 49.515625 64.59375 
L 19.828125 64.59375 
L 19.828125 46.734375 
Q 21.96875 47.46875 24.109375 47.828125 
Q 26.265625 48.1875 28.421875 48.1875 
Q 40.625 48.1875 47.75 41.5 
Q 54.890625 34.8125 54.890625 23.390625 
Q 54.890625 11.625 47.5625 5.09375 
Q 40.234375 -1.421875 26.90625 -1.421875 
Q 22.3125 -1.421875 17.546875 -0.640625 
Q 12.796875 0.140625 7.71875 1.703125 
L 7.71875 11.625 
Q 12.109375 9.234375 16.796875 8.0625 
Q 21.484375 6.890625 26.703125 6.890625 
Q 35.15625 6.890625 40.078125 11.328125 
Q 45.015625 15.765625 45.015625 23.390625 
Q 45.015625 31 40.078125 35.4375 
Q 35.15625 39.890625 26.703125 39.890625 
Q 22.75 39.890625 18.8125 39.015625 
Q 14.890625 38.140625 10.796875 36.28125 
z
" id="DejaVuSans-53"/>
      </defs>
      <use xlink:href="#DejaVuSans-48"/>
      <use x="63.623047" xlink:href="#DejaVuSans-46"/>
      <use x="95.410156" xlink:href="#DejaVuSans-53"/>
     </g>
    </g>
   </g>
  </g>
  <g id="axis3d_2">
   <g id="line2d_7">
    <path d="M 352.090401 209.294766 
L 272.679269 290.790123 
" style="fill:none;stroke:#000000;stroke-linecap:square;stroke-width:0.8;"/>
   </g>
   <g id="text_7">
    <!-- CHIP -->
    <g transform="translate(329.391375 278.988697)scale(0.1 -0.1)">
     <defs>
      <path d="M 9.8125 72.90625 
L 19.671875 72.90625 
L 19.671875 43.015625 
L 55.515625 43.015625 
L 55.515625 72.90625 
L 65.375 72.90625 
L 65.375 0 
L 55.515625 0 
L 55.515625 34.71875 
L 19.671875 34.71875 
L 19.671875 0 
L 9.8125 0 
z
" id="DejaVuSans-72"/>
      <path d="M 9.8125 72.90625 
L 19.671875 72.90625 
L 19.671875 0 
L 9.8125 0 
z
" id="DejaVuSans-73"/>
      <path d="M 19.671875 64.796875 
L 19.671875 37.40625 
L 32.078125 37.40625 
Q 38.96875 37.40625 42.71875 40.96875 
Q 46.484375 44.53125 46.484375 51.125 
Q 46.484375 57.671875 42.71875 61.234375 
Q 38.96875 64.796875 32.078125 64.796875 
z
M 9.8125 72.90625 
L 32.078125 72.90625 
Q 44.34375 72.90625 50.609375 67.359375 
Q 56.890625 61.8125 56.890625 51.125 
Q 56.890625 40.328125 50.609375 34.8125 
Q 44.34375 29.296875 32.078125 29.296875 
L 19.671875 29.296875 
L 19.671875 0 
L 9.8125 0 
z
" id="DejaVuSans-80"/>
     </defs>
     <use xlink:href="#DejaVuSans-67"/>
     <use x="69.824219" xlink:href="#DejaVuSans-72"/>
     <use x="145.019531" xlink:href="#DejaVuSans-73"/>
     <use x="174.511719" xlink:href="#DejaVuSans-80"/>
    </g>
   </g>
   <g id="Line3DCollection_2">
    <path d="M 124.138093 124.625967 
L 129.252888 236.893387 
L 278.173905 285.151275 
" style="fill:none;stroke:#b0b0b0;stroke-width:0.8;"/>
    <path d="M 144.236619 109.958978 
L 148.38668 220.855064 
L 295.513242 267.356849 
" style="fill:none;stroke:#b0b0b0;stroke-width:0.8;"/>
    <path d="M 163.597119 95.830567 
L 166.84786 205.380537 
L 312.211449 250.22038 
" style="fill:none;stroke:#b0b0b0;stroke-width:0.8;"/>
    <path d="M 182.259511 82.211604 
L 184.671283 190.44059 
L 328.303441 233.706039 
" style="fill:none;stroke:#b0b0b0;stroke-width:0.8;"/>
    <path d="M 200.260885 69.075021 
L 201.889435 176.007993 
L 343.82164 217.780549 
" style="fill:none;stroke:#b0b0b0;stroke-width:0.8;"/>
   </g>
   <g id="xtick_6">
    <g id="line2d_8">
     <path d="M 276.918943 284.744604 
L 280.687074 285.965668 
" style="fill:none;stroke:#000000;stroke-linecap:square;stroke-width:0.8;"/>
    </g>
    <g id="text_8">
     <!-- 0.0 -->
     <g transform="translate(283.102976 306.173005)scale(0.1 -0.1)">
      <use xlink:href="#DejaVuSans-48"/>
      <use x="63.623047" xlink:href="#DejaVuSans-46"/>
      <use x="95.410156" xlink:href="#DejaVuSans-48"/>
     </g>
    </g>
   </g>
   <g id="xtick_7">
    <g id="line2d_9">
     <path d="M 294.274585 266.965351 
L 297.993699 268.140839 
" style="fill:none;stroke:#000000;stroke-linecap:square;stroke-width:0.8;"/>
    </g>
    <g id="text_9">
     <!-- 0.1 -->
     <g transform="translate(300.209739 288.115136)scale(0.1 -0.1)">
      <use xlink:href="#DejaVuSans-48"/>
      <use x="63.623047" xlink:href="#DejaVuSans-46"/>
      <use x="95.410156" xlink:href="#DejaVuSans-49"/>
     </g>
    </g>
   </g>
   <g id="xtick_8">
    <g id="line2d_10">
     <path d="M 310.98876 249.843221 
L 314.659873 250.975638 
" style="fill:none;stroke:#000000;stroke-linecap:square;stroke-width:0.8;"/>
    </g>
    <g id="text_10">
     <!-- 0.2 -->
     <g transform="translate(316.683606 270.72535)scale(0.1 -0.1)">
      <use xlink:href="#DejaVuSans-48"/>
      <use x="63.623047" xlink:href="#DejaVuSans-46"/>
      <use x="95.410156" xlink:href="#DejaVuSans-50"/>
     </g>
    </g>
   </g>
   <g id="xtick_9">
    <g id="line2d_11">
     <path d="M 327.096387 233.342445 
L 330.7205 234.434115 
" style="fill:none;stroke:#000000;stroke-linecap:square;stroke-width:0.8;"/>
    </g>
    <g id="text_11">
     <!-- 0.3 -->
     <g transform="translate(332.559063 253.967245)scale(0.1 -0.1)">
      <use xlink:href="#DejaVuSans-48"/>
      <use x="63.623047" xlink:href="#DejaVuSans-46"/>
      <use x="95.410156" xlink:href="#DejaVuSans-51"/>
     </g>
    </g>
   </g>
   <g id="xtick_10">
    <g id="line2d_12">
     <path d="M 342.629893 217.429802 
L 346.207994 218.482885 
" style="fill:none;stroke:#000000;stroke-linecap:square;stroke-width:0.8;"/>
    </g>
    <g id="text_12">
     <!-- 0.4 -->
     <g transform="translate(347.868134 237.807016)scale(0.1 -0.1)">
      <use xlink:href="#DejaVuSans-48"/>
      <use x="63.623047" xlink:href="#DejaVuSans-46"/>
      <use x="95.410156" xlink:href="#DejaVuSans-52"/>
     </g>
    </g>
   </g>
  </g>
  <g id="axis3d_3">
   <g id="line2d_13">
    <path d="M 352.090401 209.294766 
L 357.122702 99.402171 
" style="fill:none;stroke:#000000;stroke-linecap:square;stroke-width:0.8;"/>
   </g>
   <g id="Line3DCollection_3">
    <path d="M 352.694878 196.094531 
L 210.929154 155.523065 
L 122.546363 228.452356 
" style="fill:none;stroke:#b0b0b0;stroke-width:0.8;"/>
    <path d="M 353.57669 176.838 
L 210.714828 136.884747 
L 121.596314 208.723982 
" style="fill:none;stroke:#b0b0b0;stroke-width:0.8;"/>
    <path d="M 354.472381 157.278398 
L 210.497291 117.967204 
L 120.630738 188.673175 
" style="fill:none;stroke:#b0b0b0;stroke-width:0.8;"/>
    <path d="M 355.382281 137.408512 
L 210.276471 98.764115 
L 119.649252 168.291967 
" style="fill:none;stroke:#b0b0b0;stroke-width:0.8;"/>
    <path d="M 356.30673 117.220901 
L 210.052292 79.268965 
L 118.651457 147.572124 
" style="fill:none;stroke:#b0b0b0;stroke-width:0.8;"/>
   </g>
   <g id="xtick_11">
    <g id="line2d_14">
     <path d="M 351.504773 195.753939 
L 355.077932 196.776529 
" style="fill:none;stroke:#000000;stroke-linecap:square;stroke-width:0.8;"/>
    </g>
    <g id="text_13">
     <!-- 2 -->
     <g transform="translate(367.858346 201.113785)scale(0.1 -0.1)">
      <use xlink:href="#DejaVuSans-50"/>
     </g>
    </g>
   </g>
   <g id="xtick_12">
    <g id="line2d_15">
     <path d="M 352.376943 176.502475 
L 355.979075 177.509859 
" style="fill:none;stroke:#000000;stroke-linecap:square;stroke-width:0.8;"/>
    </g>
    <g id="text_14">
     <!-- 4 -->
     <g transform="translate(368.880278 181.895674)scale(0.1 -0.1)">
      <use xlink:href="#DejaVuSans-52"/>
     </g>
    </g>
   </g>
   <g id="xtick_13">
    <g id="line2d_16">
     <path d="M 353.262835 156.948141 
L 356.894411 157.939713 
" style="fill:none;stroke:#000000;stroke-linecap:square;stroke-width:0.8;"/>
    </g>
    <g id="text_15">
     <!-- 6 -->
     <g transform="translate(369.918244 162.376023)scale(0.1 -0.1)">
      <defs>
       <path d="M 33.015625 40.375 
Q 26.375 40.375 22.484375 35.828125 
Q 18.609375 31.296875 18.609375 23.390625 
Q 18.609375 15.53125 22.484375 10.953125 
Q 26.375 6.390625 33.015625 6.390625 
Q 39.65625 6.390625 43.53125 10.953125 
Q 47.40625 15.53125 47.40625 23.390625 
Q 47.40625 31.296875 43.53125 35.828125 
Q 39.65625 40.375 33.015625 40.375 
z
M 52.59375 71.296875 
L 52.59375 62.3125 
Q 48.875 64.0625 45.09375 64.984375 
Q 41.3125 65.921875 37.59375 65.921875 
Q 27.828125 65.921875 22.671875 59.328125 
Q 17.53125 52.734375 16.796875 39.40625 
Q 19.671875 43.65625 24.015625 45.921875 
Q 28.375 48.1875 33.59375 48.1875 
Q 44.578125 48.1875 50.953125 41.515625 
Q 57.328125 34.859375 57.328125 23.390625 
Q 57.328125 12.15625 50.6875 5.359375 
Q 44.046875 -1.421875 33.015625 -1.421875 
Q 20.359375 -1.421875 13.671875 8.265625 
Q 6.984375 17.96875 6.984375 36.375 
Q 6.984375 53.65625 15.1875 63.9375 
Q 23.390625 74.21875 37.203125 74.21875 
Q 40.921875 74.21875 44.703125 73.484375 
Q 48.484375 72.75 52.59375 71.296875 
z
" id="DejaVuSans-54"/>
      </defs>
      <use xlink:href="#DejaVuSans-54"/>
     </g>
    </g>
   </g>
   <g id="xtick_14">
    <g id="line2d_17">
     <path d="M 354.162774 137.083735 
L 357.82428 138.058862 
" style="fill:none;stroke:#000000;stroke-linecap:square;stroke-width:0.8;"/>
    </g>
    <g id="text_16">
     <!-- 8 -->
     <g transform="translate(370.972626 142.547678)scale(0.1 -0.1)">
      <defs>
       <path d="M 31.78125 34.625 
Q 24.75 34.625 20.71875 30.859375 
Q 16.703125 27.09375 16.703125 20.515625 
Q 16.703125 13.921875 20.71875 10.15625 
Q 24.75 6.390625 31.78125 6.390625 
Q 38.8125 6.390625 42.859375 10.171875 
Q 46.921875 13.96875 46.921875 20.515625 
Q 46.921875 27.09375 42.890625 30.859375 
Q 38.875 34.625 31.78125 34.625 
z
M 21.921875 38.8125 
Q 15.578125 40.375 12.03125 44.71875 
Q 8.5 49.078125 8.5 55.328125 
Q 8.5 64.0625 14.71875 69.140625 
Q 20.953125 74.21875 31.78125 74.21875 
Q 42.671875 74.21875 48.875 69.140625 
Q 55.078125 64.0625 55.078125 55.328125 
Q 55.078125 49.078125 51.53125 44.71875 
Q 48 40.375 41.703125 38.8125 
Q 48.828125 37.15625 52.796875 32.3125 
Q 56.78125 27.484375 56.78125 20.515625 
Q 56.78125 9.90625 50.3125 4.234375 
Q 43.84375 -1.421875 31.78125 -1.421875 
Q 19.734375 -1.421875 13.25 4.234375 
Q 6.78125 9.90625 6.78125 20.515625 
Q 6.78125 27.484375 10.78125 32.3125 
Q 14.796875 37.15625 21.921875 38.8125 
z
M 18.3125 54.390625 
Q 18.3125 48.734375 21.84375 45.5625 
Q 25.390625 42.390625 31.78125 42.390625 
Q 38.140625 42.390625 41.71875 45.5625 
Q 45.3125 48.734375 45.3125 54.390625 
Q 45.3125 60.0625 41.71875 63.234375 
Q 38.140625 66.40625 31.78125 66.40625 
Q 25.390625 66.40625 21.84375 63.234375 
Q 18.3125 60.0625 18.3125 54.390625 
z
" id="DejaVuSans-56"/>
      </defs>
      <use xlink:href="#DejaVuSans-56"/>
     </g>
    </g>
   </g>
   <g id="xtick_15">
    <g id="line2d_18">
     <path d="M 355.077097 116.901821 
L 358.76903 117.859849 
" style="fill:none;stroke:#000000;stroke-linecap:square;stroke-width:0.8;"/>
    </g>
    <g id="text_17">
     <!-- 10 -->
     <g transform="translate(368.862565 122.403257)scale(0.1 -0.1)">
      <use xlink:href="#DejaVuSans-49"/>
      <use x="63.623047" xlink:href="#DejaVuSans-48"/>
     </g>
    </g>
   </g>
  </g>
  <g id="axes_1">
   <g id="Poly3DCollection_1">
    <path clip-path="url(#pd8d1a03be7)" d="M 219.43304 148.118534 
L 225.379315 158.499578 
L 212.337773 156.652002 
z
" style="fill:#85a8fc;"/>
    <path clip-path="url(#pd8d1a03be7)" d="M 225.379315 158.499578 
L 219.43304 148.118534 
L 221.620612 148.939533 
z
" style="fill:#92b4fe;"/>
    <path clip-path="url(#pd8d1a03be7)" d="M 221.620612 148.939533 
L 236.875361 149.360955 
L 225.379315 158.499578 
z
" style="fill:#96b7ff;"/>
    <path clip-path="url(#pd8d1a03be7)" d="M 225.379315 158.499578 
L 248.953205 151.516784 
L 251.619208 151.493158 
z
" style="fill:#93b5fe;"/>
    <path clip-path="url(#pd8d1a03be7)" d="M 247.103979 150.658957 
L 248.953205 151.516784 
L 225.379315 158.499578 
z
" style="fill:#94b6ff;"/>
    <path clip-path="url(#pd8d1a03be7)" d="M 251.619208 151.493158 
L 264.316787 155.268944 
L 225.379315 158.499578 
z
" style="fill:#90b2fe;"/>
    <path clip-path="url(#pd8d1a03be7)" d="M 212.337773 156.652002 
L 211.886989 142.365139 
L 219.43304 148.118534 
z
" style="fill:#a1c0ff;"/>
    <path clip-path="url(#pd8d1a03be7)" d="M 225.379315 158.499578 
L 236.875361 149.360955 
L 247.103979 150.658957 
z
" style="fill:#98b9ff;"/>
    <path clip-path="url(#pd8d1a03be7)" d="M 211.886989 142.365139 
L 212.337773 156.652002 
L 197.715007 162.699789 
z
" style="fill:#96b7ff;"/>
    <path clip-path="url(#pd8d1a03be7)" d="M 221.620612 148.939533 
L 219.43304 148.118534 
L 211.886989 142.365139 
z
" style="fill:#aec9fc;"/>
    <path clip-path="url(#pd8d1a03be7)" d="M 254.215302 145.867663 
L 251.619208 151.493158 
L 248.953205 151.516784 
z
" style="fill:#adc9fd;"/>
    <path clip-path="url(#pd8d1a03be7)" d="M 265.47276 155.54204 
L 269.628897 161.025017 
L 264.316787 155.268944 
z
" style="fill:#98b9ff;"/>
    <path clip-path="url(#pd8d1a03be7)" d="M 248.953205 151.516784 
L 247.103979 150.658957 
L 254.215302 145.867663 
z
" style="fill:#aec9fc;"/>
    <path clip-path="url(#pd8d1a03be7)" d="M 257.801133 146.467337 
L 264.316787 155.268944 
L 251.619208 151.493158 
z
" style="fill:#aac7fd;"/>
    <path clip-path="url(#pd8d1a03be7)" d="M 221.620612 148.939533 
L 231.507183 144.487138 
L 236.875361 149.360955 
z
" style="fill:#b3cdfb;"/>
    <path clip-path="url(#pd8d1a03be7)" d="M 197.715007 162.699789 
L 209.789042 141.235887 
L 211.886989 142.365139 
z
" style="fill:#b2ccfb;"/>
    <path clip-path="url(#pd8d1a03be7)" d="M 289.294598 191.755302 
L 269.628897 161.025017 
L 273.680489 167.632529 
z
" style="fill:#6f92f3;"/>
    <path clip-path="url(#pd8d1a03be7)" d="M 265.47276 155.54204 
L 264.316787 155.268944 
L 257.801133 146.467337 
z
" style="fill:#a9c6fd;"/>
    <path clip-path="url(#pd8d1a03be7)" d="M 197.715007 162.699789 
L 194.510642 167.052196 
L 205.522419 144.436992 
z
" style="fill:#9abbff;"/>
    <path clip-path="url(#pd8d1a03be7)" d="M 254.339801 145.947677 
L 251.619208 151.493158 
L 254.215302 145.867663 
z
" style="fill:#b5cdfa;"/>
    <path clip-path="url(#pd8d1a03be7)" d="M 251.619208 151.493158 
L 254.339801 145.947677 
L 257.801133 146.467337 
z
" style="fill:#b5cdfa;"/>
    <path clip-path="url(#pd8d1a03be7)" d="M 221.620612 148.939533 
L 211.886989 142.365139 
L 226.561956 142.087652 
z
" style="fill:#bed2f6;"/>
    <path clip-path="url(#pd8d1a03be7)" d="M 271.853381 163.876366 
L 273.680489 167.632529 
L 269.628897 161.025017 
z
" style="fill:#8badfd;"/>
    <path clip-path="url(#pd8d1a03be7)" d="M 265.47276 155.54204 
L 264.281899 149.047535 
L 269.628897 161.025017 
z
" style="fill:#a5c3fe;"/>
    <path clip-path="url(#pd8d1a03be7)" d="M 269.628897 161.025017 
L 289.294598 191.755302 
L 314.438583 206.776037 
z
" style="fill:#536edd;"/>
    <path clip-path="url(#pd8d1a03be7)" d="M 205.522419 144.436992 
L 209.789042 141.235887 
L 197.715007 162.699789 
z
" style="fill:#b5cdfa;"/>
    <path clip-path="url(#pd8d1a03be7)" d="M 226.561956 142.087652 
L 231.507183 144.487138 
L 221.620612 148.939533 
z
" style="fill:#bfd3f6;"/>
    <path clip-path="url(#pd8d1a03be7)" d="M 243.195564 139.284165 
L 247.103979 150.658957 
L 236.875361 149.360955 
z
" style="fill:#bcd2f7;"/>
    <path clip-path="url(#pd8d1a03be7)" d="M 269.628897 161.025017 
L 264.281899 149.047535 
L 271.853381 163.876366 
z
" style="fill:#9fbfff;"/>
    <path clip-path="url(#pd8d1a03be7)" d="M 257.801133 146.467337 
L 264.281899 149.047535 
L 265.47276 155.54204 
z
" style="fill:#b3cdfb;"/>
    <path clip-path="url(#pd8d1a03be7)" d="M 254.215302 145.867663 
L 247.103979 150.658957 
L 252.393047 138.70704 
z
" style="fill:#c1d4f4;"/>
    <path clip-path="url(#pd8d1a03be7)" d="M 280.453456 188.146586 
L 289.294598 191.755302 
L 273.680489 167.632529 
z
" style="fill:#6282ea;"/>
    <path clip-path="url(#pd8d1a03be7)" d="M 236.875361 149.360955 
L 231.507183 144.487138 
L 235.801209 143.706936 
z
" style="fill:#c1d4f4;"/>
    <path clip-path="url(#pd8d1a03be7)" d="M 252.393047 138.70704 
L 254.339801 145.947677 
L 254.215302 145.867663 
z
" style="fill:#c7d7f0;"/>
    <path clip-path="url(#pd8d1a03be7)" d="M 254.339801 145.947677 
L 252.393047 138.70704 
L 257.801133 146.467337 
z
" style="fill:#c7d7f0;"/>
    <path clip-path="url(#pd8d1a03be7)" d="M 235.801209 143.706936 
L 243.195564 139.284165 
L 236.875361 149.360955 
z
" style="fill:#c7d7f0;"/>
    <path clip-path="url(#pd8d1a03be7)" d="M 252.393047 138.70704 
L 247.103979 150.658957 
L 244.004695 139.100942 
z
" style="fill:#cbd8ee;"/>
    <path clip-path="url(#pd8d1a03be7)" d="M 206.927657 142.309766 
L 205.522419 144.436992 
L 194.510642 167.052196 
z
" style="fill:#b7cff9;"/>
    <path clip-path="url(#pd8d1a03be7)" d="M 247.103979 150.658957 
L 243.195564 139.284165 
L 244.004695 139.100942 
z
" style="fill:#cbd8ee;"/>
    <path clip-path="url(#pd8d1a03be7)" d="M 214.659485 137.941307 
L 211.886989 142.365139 
L 209.789042 141.235887 
z
" style="fill:#d1dae9;"/>
    <path clip-path="url(#pd8d1a03be7)" d="M 264.296611 147.182092 
L 273.680489 167.632529 
L 271.853381 163.876366 
z
" style="fill:#a2c1ff;"/>
    <path clip-path="url(#pd8d1a03be7)" d="M 289.294598 191.755302 
L 280.453456 188.146586 
L 314.438583 206.776037 
z
" style="fill:#455cce;"/>
    <path clip-path="url(#pd8d1a03be7)" d="M 257.801133 146.467337 
L 252.393047 138.70704 
L 264.281899 149.047535 
z
" style="fill:#c7d7f0;"/>
    <path clip-path="url(#pd8d1a03be7)" d="M 226.561956 142.087652 
L 211.886989 142.365139 
L 214.659485 137.941307 
z
" style="fill:#d3dbe7;"/>
    <path clip-path="url(#pd8d1a03be7)" d="M 209.789042 141.235887 
L 205.522419 144.436992 
L 206.927657 142.309766 
z
" style="fill:#cedaeb;"/>
    <path clip-path="url(#pd8d1a03be7)" d="M 271.853381 163.876366 
L 264.281899 149.047535 
L 264.296611 147.182092 
z
" style="fill:#b6cefa;"/>
    <path clip-path="url(#pd8d1a03be7)" d="M 194.510642 167.052196 
L 206.333285 144.3705 
L 206.927657 142.309766 
z
" style="fill:#bcd2f7;"/>
    <path clip-path="url(#pd8d1a03be7)" d="M 206.927657 142.309766 
L 214.659485 137.941307 
L 209.789042 141.235887 
z
" style="fill:#d6dce4;"/>
    <path clip-path="url(#pd8d1a03be7)" d="M 261.671621 141.935609 
L 264.281899 149.047535 
L 252.393047 138.70704 
z
" style="fill:#d2dbe8;"/>
    <path clip-path="url(#pd8d1a03be7)" d="M 231.507183 144.487138 
L 230.796065 136.62752 
L 235.801209 143.706936 
z
" style="fill:#d6dce4;"/>
    <path clip-path="url(#pd8d1a03be7)" d="M 230.796065 136.62752 
L 231.507183 144.487138 
L 226.561956 142.087652 
z
" style="fill:#d8dce2;"/>
    <path clip-path="url(#pd8d1a03be7)" d="M 280.453456 188.146586 
L 273.680489 167.632529 
L 264.321085 154.595106 
z
" style="fill:#92b4fe;"/>
    <path clip-path="url(#pd8d1a03be7)" d="M 194.510642 167.052196 
L 186.444039 187.290679 
L 197.745861 160.092887 
z
" style="fill:#8fb1fe;"/>
    <path clip-path="url(#pd8d1a03be7)" d="M 264.296611 147.182092 
L 264.281899 149.047535 
L 261.671621 141.935609 
z
" style="fill:#cedaeb;"/>
    <path clip-path="url(#pd8d1a03be7)" d="M 230.796065 136.62752 
L 243.195564 139.284165 
L 235.801209 143.706936 
z
" style="fill:#dcdddd;"/>
    <path clip-path="url(#pd8d1a03be7)" d="M 264.321085 154.595106 
L 273.680489 167.632529 
L 264.296611 147.182092 
z
" style="fill:#b7cff9;"/>
    <path clip-path="url(#pd8d1a03be7)" d="M 244.004695 139.100942 
L 248.220209 130.913941 
L 252.393047 138.70704 
z
" style="fill:#e3d9d3;"/>
    <path clip-path="url(#pd8d1a03be7)" d="M 197.745861 160.092887 
L 206.333285 144.3705 
L 194.510642 167.052196 
z
" style="fill:#b6cefa;"/>
    <path clip-path="url(#pd8d1a03be7)" d="M 244.004695 139.100942 
L 243.195564 139.284165 
L 248.220209 130.913941 
z
" style="fill:#e3d9d3;"/>
    <path clip-path="url(#pd8d1a03be7)" d="M 214.659485 137.941307 
L 225.792245 138.562303 
L 226.561956 142.087652 
z
" style="fill:#dedcdb;"/>
    <path clip-path="url(#pd8d1a03be7)" d="M 314.438583 206.776037 
L 280.453456 188.146586 
L 296.722635 208.842045 
z
" style="fill:#485fd1;"/>
    <path clip-path="url(#pd8d1a03be7)" d="M 214.659485 137.941307 
L 206.927657 142.309766 
L 209.610099 141.084061 
z
" style="fill:#dddcdc;"/>
    <path clip-path="url(#pd8d1a03be7)" d="M 209.610099 141.084061 
L 206.927657 142.309766 
L 206.333285 144.3705 
z
" style="fill:#dbdcde;"/>
    <path clip-path="url(#pd8d1a03be7)" d="M 255.528629 132.084588 
L 261.671621 141.935609 
L 252.393047 138.70704 
z
" style="fill:#e5d8d1;"/>
    <path clip-path="url(#pd8d1a03be7)" d="M 226.561956 142.087652 
L 225.792245 138.562303 
L 230.796065 136.62752 
z
" style="fill:#e2dad5;"/>
    <path clip-path="url(#pd8d1a03be7)" d="M 214.659485 137.941307 
L 210.595944 140.373115 
L 225.792245 138.562303 
z
" style="fill:#e4d9d2;"/>
    <path clip-path="url(#pd8d1a03be7)" d="M 210.595944 140.373115 
L 214.659485 137.941307 
L 209.610099 141.084061 
z
" style="fill:#e2dad5;"/>
    <path clip-path="url(#pd8d1a03be7)" d="M 252.393047 138.70704 
L 248.220209 130.913941 
L 255.528629 132.084588 
z
" style="fill:#edd2c3;"/>
    <path clip-path="url(#pd8d1a03be7)" d="M 197.715007 162.699789 
L 139.522554 211.646344 
L 194.510642 167.052196 
z
" style="fill:#82a6fb;"/>
    <path clip-path="url(#pd8d1a03be7)" d="M 261.671621 141.935609 
L 257.375079 134.869325 
L 264.296611 147.182092 
z
" style="fill:#e1dad6;"/>
    <path clip-path="url(#pd8d1a03be7)" d="M 296.722635 208.842045 
L 299.837097 212.383686 
L 314.438583 206.776037 
z
" style="fill:#3c4ec2;"/>
    <path clip-path="url(#pd8d1a03be7)" d="M 248.220209 130.913941 
L 243.195564 139.284165 
L 238.668965 127.856629 
z
" style="fill:#f0cdbb;"/>
    <path clip-path="url(#pd8d1a03be7)" d="M 238.668965 127.856629 
L 243.195564 139.284165 
L 230.796065 136.62752 
z
" style="fill:#eed0c0;"/>
    <path clip-path="url(#pd8d1a03be7)" d="M 206.333285 144.3705 
L 197.745861 160.092887 
L 209.610099 141.084061 
z
" style="fill:#d6dce4;"/>
    <path clip-path="url(#pd8d1a03be7)" d="M 269.602968 173.854304 
L 280.453456 188.146586 
L 264.321085 154.595106 
z
" style="fill:#9dbdff;"/>
    <path clip-path="url(#pd8d1a03be7)" d="M 257.375079 134.869325 
L 261.671621 141.935609 
L 255.528629 132.084588 
z
" style="fill:#edd2c3;"/>
    <path clip-path="url(#pd8d1a03be7)" d="M 260.731349 144.902924 
L 264.321085 154.595106 
L 264.296611 147.182092 
z
" style="fill:#d6dce4;"/>
    <path clip-path="url(#pd8d1a03be7)" d="M 264.296611 147.182092 
L 257.375079 134.869325 
L 260.731349 144.902924 
z
" style="fill:#e3d9d3;"/>
    <path clip-path="url(#pd8d1a03be7)" d="M 252.114449 128.780227 
L 255.528629 132.084588 
L 248.220209 130.913941 
z
" style="fill:#f4c5ad;"/>
    <path clip-path="url(#pd8d1a03be7)" d="M 257.375079 134.869325 
L 255.528629 132.084588 
L 255.241464 131.709029 
z
" style="fill:#f3c8b2;"/>
    <path clip-path="url(#pd8d1a03be7)" d="M 296.722635 208.842045 
L 280.453456 188.146586 
L 268.34513 172.562265 
z
" style="fill:#7597f6;"/>
    <path clip-path="url(#pd8d1a03be7)" d="M 252.114449 128.780227 
L 255.241464 131.709029 
L 255.528629 132.084588 
z
" style="fill:#f5c4ac;"/>
    <path clip-path="url(#pd8d1a03be7)" d="M 257.375079 134.869325 
L 255.241464 131.709029 
L 252.114449 128.780227 
z
" style="fill:#f4c5ad;"/>
    <path clip-path="url(#pd8d1a03be7)" d="M 186.444039 187.290679 
L 194.510642 167.052196 
L 139.522554 211.646344 
z
" style="fill:#7a9df8;"/>
    <path clip-path="url(#pd8d1a03be7)" d="M 269.602968 173.854304 
L 268.34513 172.562265 
L 280.453456 188.146586 
z
" style="fill:#96b7ff;"/>
    <path clip-path="url(#pd8d1a03be7)" d="M 248.220209 130.913941 
L 247.634096 126.404236 
L 252.114449 128.780227 
z
" style="fill:#f6bda2;"/>
    <path clip-path="url(#pd8d1a03be7)" d="M 259.447014 141.986688 
L 260.731349 144.902924 
L 257.375079 134.869325 
z
" style="fill:#ebd3c6;"/>
    <path clip-path="url(#pd8d1a03be7)" d="M 209.610099 141.084061 
L 206.81218 135.839019 
L 210.595944 140.373115 
z
" style="fill:#edd1c2;"/>
    <path clip-path="url(#pd8d1a03be7)" d="M 229.446251 125.654616 
L 230.796065 136.62752 
L 225.792245 138.562303 
z
" style="fill:#f3c8b2;"/>
    <path clip-path="url(#pd8d1a03be7)" d="M 252.114449 128.780227 
L 257.450731 137.036331 
L 257.375079 134.869325 
z
" style="fill:#f3c7b1;"/>
    <path clip-path="url(#pd8d1a03be7)" d="M 257.375079 134.869325 
L 257.450731 137.036331 
L 259.447014 141.986688 
z
" style="fill:#efcebd;"/>
    <path clip-path="url(#pd8d1a03be7)" d="M 238.668965 127.856629 
L 247.634096 126.404236 
L 248.220209 130.913941 
z
" style="fill:#f7ba9f;"/>
    <path clip-path="url(#pd8d1a03be7)" d="M 197.745861 160.092887 
L 206.81218 135.839019 
L 209.610099 141.084061 
z
" style="fill:#e4d9d2;"/>
    <path clip-path="url(#pd8d1a03be7)" d="M 264.321085 154.595106 
L 260.731349 144.902924 
L 252.100331 133.975011 
z
" style="fill:#e7d7ce;"/>
    <path clip-path="url(#pd8d1a03be7)" d="M 256.061308 136.180981 
L 257.450731 137.036331 
L 252.114449 128.780227 
z
" style="fill:#f4c6af;"/>
    <path clip-path="url(#pd8d1a03be7)" d="M 259.447014 141.986688 
L 257.450731 137.036331 
L 256.061308 136.180981 
z
" style="fill:#f0cdbb;"/>
    <path clip-path="url(#pd8d1a03be7)" d="M 264.321085 154.595106 
L 261.280071 164.595491 
L 269.602968 173.854304 
z
" style="fill:#bfd3f6;"/>
    <path clip-path="url(#pd8d1a03be7)" d="M 259.447014 141.986688 
L 252.100331 133.975011 
L 260.731349 144.902924 
z
" style="fill:#efcfbf;"/>
    <path clip-path="url(#pd8d1a03be7)" d="M 247.634096 126.404236 
L 256.061308 136.180981 
L 252.114449 128.780227 
z
" style="fill:#f7bca1;"/>
    <path clip-path="url(#pd8d1a03be7)" d="M 225.792245 138.562303 
L 210.595944 140.373115 
L 217.429501 118.756945 
z
" style="fill:#f5c1a9;"/>
    <path clip-path="url(#pd8d1a03be7)" d="M 230.796065 136.62752 
L 233.513287 125.422283 
L 238.668965 127.856629 
z
" style="fill:#f7ba9f;"/>
    <path clip-path="url(#pd8d1a03be7)" d="M 186.444039 187.290679 
L 201.317156 138.080747 
L 197.745861 160.092887 
z
" style="fill:#c6d6f1;"/>
    <path clip-path="url(#pd8d1a03be7)" d="M 256.061308 136.180981 
L 252.100331 133.975011 
L 259.447014 141.986688 
z
" style="fill:#f2c9b4;"/>
    <path clip-path="url(#pd8d1a03be7)" d="M 186.444039 187.290679 
L 183.590703 193.451975 
L 201.317156 138.080747 
z
" style="fill:#aec9fc;"/>
    <path clip-path="url(#pd8d1a03be7)" d="M 239.525869 126.261066 
L 247.634096 126.404236 
L 238.668965 127.856629 
z
" style="fill:#f7af91;"/>
    <path clip-path="url(#pd8d1a03be7)" d="M 252.100331 133.975011 
L 249.646417 135.881819 
L 264.321085 154.595106 
z
" style="fill:#efcebd;"/>
    <path clip-path="url(#pd8d1a03be7)" d="M 256.061308 136.180981 
L 247.634096 126.404236 
L 248.66576 129.556289 
z
" style="fill:#f7b89c;"/>
    <path clip-path="url(#pd8d1a03be7)" d="M 261.280071 164.595491 
L 264.321085 154.595106 
L 249.646417 135.881819 
z
" style="fill:#dfdbd9;"/>
    <path clip-path="url(#pd8d1a03be7)" d="M 229.446251 125.654616 
L 233.513287 125.422283 
L 230.796065 136.62752 
z
" style="fill:#f7b497;"/>
    <path clip-path="url(#pd8d1a03be7)" d="M 269.602968 173.854304 
L 261.280071 164.595491 
L 261.429353 164.867327 
z
" style="fill:#bfd3f6;"/>
    <path clip-path="url(#pd8d1a03be7)" d="M 252.100331 133.975011 
L 256.061308 136.180981 
L 248.66576 129.556289 
z
" style="fill:#f7bca1;"/>
    <path clip-path="url(#pd8d1a03be7)" d="M 261.429353 164.867327 
L 268.34513 172.562265 
L 269.602968 173.854304 
z
" style="fill:#b9d0f9;"/>
    <path clip-path="url(#pd8d1a03be7)" d="M 239.525869 126.261066 
L 245.738707 127.302775 
L 247.634096 126.404236 
z
" style="fill:#f7aa8c;"/>
    <path clip-path="url(#pd8d1a03be7)" d="M 238.668965 127.856629 
L 233.513287 125.422283 
L 239.525869 126.261066 
z
" style="fill:#f7aa8c;"/>
    <path clip-path="url(#pd8d1a03be7)" d="M 247.634096 126.404236 
L 245.738707 127.302775 
L 248.66576 129.556289 
z
" style="fill:#f7ad90;"/>
    <path clip-path="url(#pd8d1a03be7)" d="M 294.858643 247.981736 
L 314.438583 206.776037 
L 299.837097 212.383686 
z
" style="fill:#3b4cc0;"/>
    <path clip-path="url(#pd8d1a03be7)" d="M 296.722635 208.842045 
L 268.875859 173.015664 
L 299.837097 212.383686 
z
" style="fill:#7396f5;"/>
    <path clip-path="url(#pd8d1a03be7)" d="M 249.948637 131.422396 
L 252.100331 133.975011 
L 248.66576 129.556289 
z
" style="fill:#f7b599;"/>
    <path clip-path="url(#pd8d1a03be7)" d="M 183.590703 193.451975 
L 186.444039 187.290679 
L 139.522554 211.646344 
z
" style="fill:#7699f6;"/>
    <path clip-path="url(#pd8d1a03be7)" d="M 203.91408 136.628033 
L 206.81218 135.839019 
L 197.745861 160.092887 
z
" style="fill:#efcfbf;"/>
    <path clip-path="url(#pd8d1a03be7)" d="M 225.792245 138.562303 
L 217.429501 118.756945 
L 229.446251 125.654616 
z
" style="fill:#f7aa8c;"/>
    <path clip-path="url(#pd8d1a03be7)" d="M 240.695464 125.583975 
L 245.738707 127.302775 
L 239.525869 126.261066 
z
" style="fill:#f7a889;"/>
    <path clip-path="url(#pd8d1a03be7)" d="M 249.646417 135.881819 
L 252.100331 133.975011 
L 249.948637 131.422396 
z
" style="fill:#f7b99e;"/>
    <path clip-path="url(#pd8d1a03be7)" d="M 206.81218 135.839019 
L 217.429501 118.756945 
L 210.595944 140.373115 
z
" style="fill:#f7b497;"/>
    <path clip-path="url(#pd8d1a03be7)" d="M 239.525869 126.261066 
L 233.513287 125.422283 
L 240.695464 125.583975 
z
" style="fill:#f6a586;"/>
    <path clip-path="url(#pd8d1a03be7)" d="M 248.66576 129.556289 
L 246.093686 128.887821 
L 249.948637 131.422396 
z
" style="fill:#f7af91;"/>
    <path clip-path="url(#pd8d1a03be7)" d="M 248.66576 129.556289 
L 245.738707 127.302775 
L 246.093686 128.887821 
z
" style="fill:#f7aa8c;"/>
    <path clip-path="url(#pd8d1a03be7)" d="M 249.948637 131.422396 
L 246.093686 128.887821 
L 249.646417 135.881819 
z
" style="fill:#f7b497;"/>
    <path clip-path="url(#pd8d1a03be7)" d="M 259.048146 163.738819 
L 261.429353 164.867327 
L 261.280071 164.595491 
z
" style="fill:#cdd9ec;"/>
    <path clip-path="url(#pd8d1a03be7)" d="M 240.695464 125.583975 
L 241.824549 126.729666 
L 245.738707 127.302775 
z
" style="fill:#f6a385;"/>
    <path clip-path="url(#pd8d1a03be7)" d="M 268.34513 172.562265 
L 261.429353 164.867327 
L 259.048146 163.738819 
z
" style="fill:#c7d7f0;"/>
    <path clip-path="url(#pd8d1a03be7)" d="M 246.093686 128.887821 
L 245.738707 127.302775 
L 243.912612 128.769201 
z
" style="fill:#f7a889;"/>
    <path clip-path="url(#pd8d1a03be7)" d="M 249.646417 135.881819 
L 250.223181 150.719088 
L 261.280071 164.595491 
z
" style="fill:#e9d5cb;"/>
    <path clip-path="url(#pd8d1a03be7)" d="M 243.912612 128.769201 
L 249.646417 135.881819 
L 246.093686 128.887821 
z
" style="fill:#f7af91;"/>
    <path clip-path="url(#pd8d1a03be7)" d="M 261.280071 164.595491 
L 250.223181 150.719088 
L 259.048146 163.738819 
z
" style="fill:#d8dce2;"/>
    <path clip-path="url(#pd8d1a03be7)" d="M 243.912612 128.769201 
L 245.738707 127.302775 
L 241.824549 126.729666 
z
" style="fill:#f6a586;"/>
    <path clip-path="url(#pd8d1a03be7)" d="M 197.329283 153.099028 
L 183.590703 193.451975 
L 182.930936 198.242768 
z
" style="fill:#a5c3fe;"/>
    <path clip-path="url(#pd8d1a03be7)" d="M 233.513287 125.422283 
L 229.446251 125.654616 
L 232.163946 124.669904 
z
" style="fill:#f59d7e;"/>
    <path clip-path="url(#pd8d1a03be7)" d="M 249.646417 135.881819 
L 243.912612 128.769201 
L 248.304302 142.51471 
z
" style="fill:#f7b99e;"/>
    <path clip-path="url(#pd8d1a03be7)" d="M 248.304302 142.51471 
L 250.223181 150.719088 
L 249.646417 135.881819 
z
" style="fill:#f2c9b4;"/>
    <path clip-path="url(#pd8d1a03be7)" d="M 268.34513 172.562265 
L 268.875859 173.015664 
L 296.722635 208.842045 
z
" style="fill:#9ebeff;"/>
    <path clip-path="url(#pd8d1a03be7)" d="M 240.695464 125.583975 
L 233.513287 125.422283 
L 233.650867 123.310724 
z
" style="fill:#f49a7b;"/>
    <path clip-path="url(#pd8d1a03be7)" d="M 203.91408 136.628033 
L 197.745861 160.092887 
L 201.317156 138.080747 
z
" style="fill:#f1ccb8;"/>
    <path clip-path="url(#pd8d1a03be7)" d="M 233.650867 123.310724 
L 241.824549 126.729666 
L 240.695464 125.583975 
z
" style="fill:#f59c7d;"/>
    <path clip-path="url(#pd8d1a03be7)" d="M 233.650867 123.310724 
L 233.513287 125.422283 
L 232.163946 124.669904 
z
" style="fill:#f4987a;"/>
    <path clip-path="url(#pd8d1a03be7)" d="M 233.650867 123.310724 
L 243.912612 128.769201 
L 241.824549 126.729666 
z
" style="fill:#f59d7e;"/>
    <path clip-path="url(#pd8d1a03be7)" d="M 230.805255 121.685272 
L 232.163946 124.669904 
L 229.446251 125.654616 
z
" style="fill:#f39577;"/>
    <path clip-path="url(#pd8d1a03be7)" d="M 206.81218 135.839019 
L 203.91408 136.628033 
L 206.676314 131.527099 
z
" style="fill:#f7b194;"/>
    <path clip-path="url(#pd8d1a03be7)" d="M 139.522554 211.646344 
L 182.930936 198.242768 
L 183.590703 193.451975 
z
" style="fill:#7a9df8;"/>
    <path clip-path="url(#pd8d1a03be7)" d="M 259.048146 163.738819 
L 263.540418 164.797311 
L 268.34513 172.562265 
z
" style="fill:#cfdaea;"/>
    <path clip-path="url(#pd8d1a03be7)" d="M 233.650867 123.310724 
L 232.163946 124.669904 
L 230.805255 121.685272 
z
" style="fill:#f18f71;"/>
    <path clip-path="url(#pd8d1a03be7)" d="M 206.676314 131.527099 
L 208.726137 126.820541 
L 206.81218 135.839019 
z
" style="fill:#f7a688;"/>
    <path clip-path="url(#pd8d1a03be7)" d="M 259.048146 163.738819 
L 250.223181 150.719088 
L 250.491876 168.362576 
z
" style="fill:#dcdddd;"/>
    <path clip-path="url(#pd8d1a03be7)" d="M 197.329283 153.099028 
L 201.317156 138.080747 
L 183.590703 193.451975 
z
" style="fill:#dbdcde;"/>
    <path clip-path="url(#pd8d1a03be7)" d="M 243.912612 128.769201 
L 231.639853 121.517801 
L 248.304302 142.51471 
z
" style="fill:#f6a586;"/>
    <path clip-path="url(#pd8d1a03be7)" d="M 229.446251 125.654616 
L 223.185523 118.353728 
L 230.805255 121.685272 
z
" style="fill:#ef886b;"/>
    <path clip-path="url(#pd8d1a03be7)" d="M 268.875859 173.015664 
L 285.97432 218.889092 
L 299.837097 212.383686 
z
" style="fill:#7b9ff9;"/>
    <path clip-path="url(#pd8d1a03be7)" d="M 285.97432 218.889092 
L 289.935564 226.275157 
L 299.837097 212.383686 
z
" style="fill:#516ddb;"/>
    <path clip-path="url(#pd8d1a03be7)" d="M 248.304302 142.51471 
L 234.773431 134.207898 
L 250.223181 150.719088 
z
" style="fill:#f5c0a7;"/>
    <path clip-path="url(#pd8d1a03be7)" d="M 217.429501 118.756945 
L 206.81218 135.839019 
L 208.726137 126.820541 
z
" style="fill:#f39778;"/>
    <path clip-path="url(#pd8d1a03be7)" d="M 203.91408 136.628033 
L 208.726137 126.820541 
L 206.676314 131.527099 
z
" style="fill:#f6a586;"/>
    <path clip-path="url(#pd8d1a03be7)" d="M 233.650867 123.310724 
L 231.639853 121.517801 
L 243.912612 128.769201 
z
" style="fill:#f18f71;"/>
    <path clip-path="url(#pd8d1a03be7)" d="M 223.185523 118.353728 
L 229.446251 125.654616 
L 217.429501 118.756945 
z
" style="fill:#ed8366;"/>
    <path clip-path="url(#pd8d1a03be7)" d="M 182.930936 198.242768 
L 179.764186 210.393986 
L 192.716813 180.72752 
z
" style="fill:#8db0fe;"/>
    <path clip-path="url(#pd8d1a03be7)" d="M 192.716813 180.72752 
L 197.329283 153.099028 
L 182.930936 198.242768 
z
" style="fill:#bfd3f6;"/>
    <path clip-path="url(#pd8d1a03be7)" d="M 263.540418 164.797311 
L 265.481245 166.295671 
L 268.34513 172.562265 
z
" style="fill:#d4dbe6;"/>
    <path clip-path="url(#pd8d1a03be7)" d="M 240.763603 161.32718 
L 250.491876 168.362576 
L 250.223181 150.719088 
z
" style="fill:#e3d9d3;"/>
    <path clip-path="url(#pd8d1a03be7)" d="M 230.805255 121.685272 
L 231.639853 121.517801 
L 233.650867 123.310724 
z
" style="fill:#ed8366;"/>
    <path clip-path="url(#pd8d1a03be7)" d="M 240.763603 161.32718 
L 250.223181 150.719088 
L 238.425297 154.991785 
z
" style="fill:#ebd3c6;"/>
    <path clip-path="url(#pd8d1a03be7)" d="M 182.930936 198.242768 
L 165.973825 218.560137 
L 179.764186 210.393986 
z
" style="fill:#7093f3;"/>
    <path clip-path="url(#pd8d1a03be7)" d="M 259.048146 163.738819 
L 250.491876 168.362576 
L 260.005554 163.769053 
z
" style="fill:#dadce0;"/>
    <path clip-path="url(#pd8d1a03be7)" d="M 260.005554 163.769053 
L 263.540418 164.797311 
L 259.048146 163.738819 
z
" style="fill:#dddcdc;"/>
    <path clip-path="url(#pd8d1a03be7)" d="M 265.481245 166.295671 
L 268.875859 173.015664 
L 268.34513 172.562265 
z
" style="fill:#d1dae9;"/>
    <path clip-path="url(#pd8d1a03be7)" d="M 238.425297 154.991785 
L 250.223181 150.719088 
L 234.773431 134.207898 
z
" style="fill:#f5c2aa;"/>
    <path clip-path="url(#pd8d1a03be7)" d="M 203.91408 136.628033 
L 201.317156 138.080747 
L 202.406069 134.99627 
z
" style="fill:#f7aa8c;"/>
    <path clip-path="url(#pd8d1a03be7)" d="M 231.639853 121.517801 
L 234.773431 134.207898 
L 248.304302 142.51471 
z
" style="fill:#f5a081;"/>
    <path clip-path="url(#pd8d1a03be7)" d="M 230.1453 119.358746 
L 230.805255 121.685272 
L 223.185523 118.353728 
z
" style="fill:#e8765c;"/>
    <path clip-path="url(#pd8d1a03be7)" d="M 206.358375 123.09128 
L 208.726137 126.820541 
L 203.91408 136.628033 
z
" style="fill:#f39475;"/>
    <path clip-path="url(#pd8d1a03be7)" d="M 216.376718 114.131708 
L 217.429501 118.756945 
L 208.726137 126.820541 
z
" style="fill:#e7745b;"/>
    <path clip-path="url(#pd8d1a03be7)" d="M 231.639853 121.517801 
L 230.805255 121.685272 
L 230.1453 119.358746 
z
" style="fill:#e9785d;"/>
    <path clip-path="url(#pd8d1a03be7)" d="M 206.358375 123.09128 
L 203.91408 136.628033 
L 202.406069 134.99627 
z
" style="fill:#f4987a;"/>
    <path clip-path="url(#pd8d1a03be7)" d="M 223.185523 118.353728 
L 217.429501 118.756945 
L 219.330649 113.499384 
z
" style="fill:#e26952;"/>
    <path clip-path="url(#pd8d1a03be7)" d="M 294.858643 247.981736 
L 299.837097 212.383686 
L 289.935564 226.275157 
z
" style="fill:#465ecf;"/>
    <path clip-path="url(#pd8d1a03be7)" d="M 165.973825 218.560137 
L 182.930936 198.242768 
L 139.522554 211.646344 
z
" style="fill:#779af7;"/>
    <path clip-path="url(#pd8d1a03be7)" d="M 240.763603 161.32718 
L 235.824352 156.865832 
L 250.491876 168.362576 
z
" style="fill:#e6d7cf;"/>
    <path clip-path="url(#pd8d1a03be7)" d="M 216.376718 114.131708 
L 219.330649 113.499384 
L 217.429501 118.756945 
z
" style="fill:#dd5f4b;"/>
    <path clip-path="url(#pd8d1a03be7)" d="M 223.185523 118.353728 
L 225.417184 113.733676 
L 230.1453 119.358746 
z
" style="fill:#e0654f;"/>
    <path clip-path="url(#pd8d1a03be7)" d="M 238.425297 154.991785 
L 235.824352 156.865832 
L 240.763603 161.32718 
z
" style="fill:#edd1c2;"/>
    <path clip-path="url(#pd8d1a03be7)" d="M 202.406069 134.99627 
L 201.317156 138.080747 
L 206.358375 123.09128 
z
" style="fill:#f39577;"/>
    <path clip-path="url(#pd8d1a03be7)" d="M 225.417184 113.733676 
L 223.185523 118.353728 
L 219.330649 113.499384 
z
" style="fill:#da5a49;"/>
    <path clip-path="url(#pd8d1a03be7)" d="M 179.764186 210.393986 
L 190.21964 193.958773 
L 192.716813 180.72752 
z
" style="fill:#9fbfff;"/>
    <path clip-path="url(#pd8d1a03be7)" d="M 216.376718 114.131708 
L 208.726137 126.820541 
L 213.770087 111.508128 
z
" style="fill:#df634e;"/>
    <path clip-path="url(#pd8d1a03be7)" d="M 234.773431 134.207898 
L 234.020206 133.795128 
L 238.425297 154.991785 
z
" style="fill:#f7ad90;"/>
    <path clip-path="url(#pd8d1a03be7)" d="M 265.481245 166.295671 
L 263.540418 164.797311 
L 265.379448 167.095799 
z
" style="fill:#e1dad6;"/>
    <path clip-path="url(#pd8d1a03be7)" d="M 229.024642 118.373902 
L 231.639853 121.517801 
L 230.1453 119.358746 
z
" style="fill:#e36b54;"/>
    <path clip-path="url(#pd8d1a03be7)" d="M 201.317156 138.080747 
L 197.329283 153.099028 
L 203.345327 131.238767 
z
" style="fill:#f7ac8e;"/>
    <path clip-path="url(#pd8d1a03be7)" d="M 231.639853 121.517801 
L 229.024642 118.373902 
L 234.773431 134.207898 
z
" style="fill:#ea7b60;"/>
    <path clip-path="url(#pd8d1a03be7)" d="M 265.379448 167.095799 
L 263.540418 164.797311 
L 260.005554 163.769053 
z
" style="fill:#e3d9d3;"/>
    <path clip-path="url(#pd8d1a03be7)" d="M 206.358375 123.09128 
L 213.770087 111.508128 
L 208.726137 126.820541 
z
" style="fill:#e36c55;"/>
    <path clip-path="url(#pd8d1a03be7)" d="M 268.765191 175.027489 
L 285.97432 218.889092 
L 268.875859 173.015664 
z
" style="fill:#b1cbfc;"/>
    <path clip-path="url(#pd8d1a03be7)" d="M 229.024642 118.373902 
L 234.020206 133.795128 
L 234.773431 134.207898 
z
" style="fill:#ee8669;"/>
    <path clip-path="url(#pd8d1a03be7)" d="M 268.875859 173.015664 
L 265.481245 166.295671 
L 265.379448 167.095799 
z
" style="fill:#dddcdc;"/>
    <path clip-path="url(#pd8d1a03be7)" d="M 230.1453 119.358746 
L 225.417184 113.733676 
L 229.024642 118.373902 
z
" style="fill:#dc5d4a;"/>
    <path clip-path="url(#pd8d1a03be7)" d="M 251.651529 169.832865 
L 260.005554 163.769053 
L 250.491876 168.362576 
z
" style="fill:#e1dad6;"/>
    <path clip-path="url(#pd8d1a03be7)" d="M 201.317156 138.080747 
L 207.084963 120.385051 
L 206.358375 123.09128 
z
" style="fill:#ec7f63;"/>
    <path clip-path="url(#pd8d1a03be7)" d="M 230.134936 139.09318 
L 238.425297 154.991785 
L 234.020206 133.795128 
z
" style="fill:#f7ad90;"/>
    <path clip-path="url(#pd8d1a03be7)" d="M 219.210047 109.858339 
L 219.330649 113.499384 
L 216.376718 114.131708 
z
" style="fill:#d1493f;"/>
    <path clip-path="url(#pd8d1a03be7)" d="M 235.824352 156.865832 
L 238.425297 154.991785 
L 230.134936 139.09318 
z
" style="fill:#f6bfa6;"/>
    <path clip-path="url(#pd8d1a03be7)" d="M 250.491876 168.362576 
L 235.824352 156.865832 
L 251.651529 169.832865 
z
" style="fill:#e6d7cf;"/>
    <path clip-path="url(#pd8d1a03be7)" d="M 201.317156 138.080747 
L 203.345327 131.238767 
L 207.084963 120.385051 
z
" style="fill:#ee8669;"/>
    <path clip-path="url(#pd8d1a03be7)" d="M 197.329283 153.099028 
L 192.716813 180.72752 
L 203.689077 142.719584 
z
" style="fill:#efcebd;"/>
    <path clip-path="url(#pd8d1a03be7)" d="M 225.417184 113.733676 
L 219.330649 113.499384 
L 221.81142 110.267378 
z
" style="fill:#cf453c;"/>
    <path clip-path="url(#pd8d1a03be7)" d="M 234.020206 133.795128 
L 229.024642 118.373902 
L 226.728295 115.893213 
z
" style="fill:#e36c55;"/>
    <path clip-path="url(#pd8d1a03be7)" d="M 265.81418 185.074988 
L 285.97432 218.889092 
L 268.765191 175.027489 
z
" style="fill:#adc9fd;"/>
    <path clip-path="url(#pd8d1a03be7)" d="M 213.770087 111.508128 
L 219.210047 109.858339 
L 216.376718 114.131708 
z
" style="fill:#cc403a;"/>
    <path clip-path="url(#pd8d1a03be7)" d="M 221.81142 110.267378 
L 219.330649 113.499384 
L 219.210047 109.858339 
z
" style="fill:#cb3e38;"/>
    <path clip-path="url(#pd8d1a03be7)" d="M 229.024642 118.373902 
L 225.417184 113.733676 
L 226.728295 115.893213 
z
" style="fill:#d65244;"/>
    <path clip-path="url(#pd8d1a03be7)" d="M 260.005554 163.769053 
L 261.942132 167.190535 
L 265.379448 167.095799 
z
" style="fill:#e6d7cf;"/>
    <path clip-path="url(#pd8d1a03be7)" d="M 165.973825 218.560137 
L 180.038048 214.016374 
L 179.764186 210.393986 
z
" style="fill:#779af7;"/>
    <path clip-path="url(#pd8d1a03be7)" d="M 268.875859 173.015664 
L 265.379448 167.095799 
L 264.288972 168.618658 
z
" style="fill:#e0dbd8;"/>
    <path clip-path="url(#pd8d1a03be7)" d="M 268.765191 175.027489 
L 268.875859 173.015664 
L 264.288972 168.618658 
z
" style="fill:#dbdcde;"/>
    <path clip-path="url(#pd8d1a03be7)" d="M 207.084963 120.385051 
L 213.770087 111.508128 
L 206.358375 123.09128 
z
" style="fill:#d95847;"/>
    <path clip-path="url(#pd8d1a03be7)" d="M 235.824352 156.865832 
L 230.134936 139.09318 
L 231.305926 147.430802 
z
" style="fill:#f7b599;"/>
    <path clip-path="url(#pd8d1a03be7)" d="M 203.689077 142.719584 
L 203.345327 131.238767 
L 197.329283 153.099028 
z
" style="fill:#f7a889;"/>
    <path clip-path="url(#pd8d1a03be7)" d="M 226.728295 115.893213 
L 225.417184 113.733676 
L 221.81142 110.267378 
z
" style="fill:#cd423b;"/>
    <path clip-path="url(#pd8d1a03be7)" d="M 190.21964 193.958773 
L 179.764186 210.393986 
L 187.594017 202.05462 
z
" style="fill:#97b8ff;"/>
    <path clip-path="url(#pd8d1a03be7)" d="M 226.728295 115.893213 
L 228.000918 127.883974 
L 234.020206 133.795128 
z
" style="fill:#e67259;"/>
    <path clip-path="url(#pd8d1a03be7)" d="M 289.935564 226.275157 
L 285.97432 218.889092 
L 266.056189 219.266769 
z
" style="fill:#6788ee;"/>
    <path clip-path="url(#pd8d1a03be7)" d="M 228.000918 127.883974 
L 230.134936 139.09318 
L 234.020206 133.795128 
z
" style="fill:#f08b6e;"/>
    <path clip-path="url(#pd8d1a03be7)" d="M 192.716813 180.72752 
L 190.21964 193.958773 
L 202.378475 163.269867 
z
" style="fill:#cfdaea;"/>
    <path clip-path="url(#pd8d1a03be7)" d="M 261.942132 167.190535 
L 260.005554 163.769053 
L 251.651529 169.832865 
z
" style="fill:#e7d7ce;"/>
    <path clip-path="url(#pd8d1a03be7)" d="M 264.288972 168.618658 
L 265.379448 167.095799 
L 261.942132 167.190535 
z
" style="fill:#e7d7ce;"/>
    <path clip-path="url(#pd8d1a03be7)" d="M 140.126258 210.895736 
L 165.973825 218.560137 
L 139.522554 211.646344 
z
" style="fill:#7ea1fa;"/>
    <path clip-path="url(#pd8d1a03be7)" d="M 213.770087 111.508128 
L 213.638768 109.078473 
L 219.210047 109.858339 
z
" style="fill:#c32e31;"/>
    <path clip-path="url(#pd8d1a03be7)" d="M 231.305926 147.430802 
L 223.737922 163.019172 
L 235.824352 156.865832 
z
" style="fill:#f5c2aa;"/>
    <path clip-path="url(#pd8d1a03be7)" d="M 213.770087 111.508128 
L 207.084963 120.385051 
L 213.638768 109.078473 
z
" style="fill:#cb3e38;"/>
    <path clip-path="url(#pd8d1a03be7)" d="M 221.81142 110.267378 
L 219.210047 109.858339 
L 219.22294 108.11466 
z
" style="fill:#c0282f;"/>
    <path clip-path="url(#pd8d1a03be7)" d="M 207.084963 120.385051 
L 203.345327 131.238767 
L 213.056017 109.578301 
z
" style="fill:#d95847;"/>
    <path clip-path="url(#pd8d1a03be7)" d="M 264.288972 168.618658 
L 263.45038 178.717181 
L 268.765191 175.027489 
z
" style="fill:#dcdddd;"/>
    <path clip-path="url(#pd8d1a03be7)" d="M 140.126258 210.895736 
L 142.030614 209.159179 
L 165.973825 218.560137 
z
" style="fill:#82a6fb;"/>
    <path clip-path="url(#pd8d1a03be7)" d="M 219.22294 108.11466 
L 226.728295 115.893213 
L 221.81142 110.267378 
z
" style="fill:#c43032;"/>
    <path clip-path="url(#pd8d1a03be7)" d="M 203.689077 142.719584 
L 192.716813 180.72752 
L 202.378475 163.269867 
z
" style="fill:#f0cdbb;"/>
    <path clip-path="url(#pd8d1a03be7)" d="M 179.764186 210.393986 
L 180.038048 214.016374 
L 187.594017 202.05462 
z
" style="fill:#8caffe;"/>
    <path clip-path="url(#pd8d1a03be7)" d="M 231.305926 147.430802 
L 230.134936 139.09318 
L 225.426835 136.723312 
z
" style="fill:#f59d7e;"/>
    <path clip-path="url(#pd8d1a03be7)" d="M 265.81418 185.074988 
L 266.056189 219.266769 
L 285.97432 218.889092 
z
" style="fill:#90b2fe;"/>
    <path clip-path="url(#pd8d1a03be7)" d="M 230.134936 139.09318 
L 228.000918 127.883974 
L 226.921991 129.143786 
z
" style="fill:#ec7f63;"/>
    <path clip-path="url(#pd8d1a03be7)" d="M 165.973825 218.560137 
L 142.030614 209.159179 
L 142.723853 208.77791 
z
" style="fill:#85a8fc;"/>
    <path clip-path="url(#pd8d1a03be7)" d="M 165.973825 218.560137 
L 142.723853 208.77791 
L 142.735369 208.772728 
z
" style="fill:#86a9fc;"/>
    <path clip-path="url(#pd8d1a03be7)" d="M 142.735369 208.772728 
L 143.057733 208.642933 
L 165.973825 218.560137 
z
" style="fill:#86a9fc;"/>
    <path clip-path="url(#pd8d1a03be7)" d="M 251.651529 169.832865 
L 235.824352 156.865832 
L 238.266532 172.287384 
z
" style="fill:#ecd3c5;"/>
    <path clip-path="url(#pd8d1a03be7)" d="M 268.765191 175.027489 
L 263.45038 178.717181 
L 265.81418 185.074988 
z
" style="fill:#d4dbe6;"/>
    <path clip-path="url(#pd8d1a03be7)" d="M 165.973825 218.560137 
L 143.057733 208.642933 
L 143.190423 208.598056 
z
" style="fill:#86a9fc;"/>
    <path clip-path="url(#pd8d1a03be7)" d="M 143.190423 208.598056 
L 143.344884 208.552076 
L 165.973825 218.560137 
z
" style="fill:#86a9fc;"/>
    <path clip-path="url(#pd8d1a03be7)" d="M 226.921991 129.143786 
L 226.521363 128.960608 
L 230.134936 139.09318 
z
" style="fill:#ec7f63;"/>
    <path clip-path="url(#pd8d1a03be7)" d="M 264.288972 168.618658 
L 261.942132 167.190535 
L 263.45038 178.717181 
z
" style="fill:#e3d9d3;"/>
    <path clip-path="url(#pd8d1a03be7)" d="M 219.210047 109.858339 
L 213.638768 109.078473 
L 219.22294 108.11466 
z
" style="fill:#bb1b2c;"/>
    <path clip-path="url(#pd8d1a03be7)" d="M 289.935564 226.275157 
L 281.614209 233.578574 
L 288.20974 232.660247 
z
" style="fill:#5977e3;"/>
    <path clip-path="url(#pd8d1a03be7)" d="M 165.973825 218.560137 
L 143.344884 208.552076 
L 145.298599 208.538093 
z
" style="fill:#88abfd;"/>
    <path clip-path="url(#pd8d1a03be7)" d="M 213.056017 109.578301 
L 213.638768 109.078473 
L 207.084963 120.385051 
z
" style="fill:#c53334;"/>
    <path clip-path="url(#pd8d1a03be7)" d="M 222.510769 119.065848 
L 228.000918 127.883974 
L 226.728295 115.893213 
z
" style="fill:#d75445;"/>
    <path clip-path="url(#pd8d1a03be7)" d="M 225.426835 136.723312 
L 230.134936 139.09318 
L 226.521363 128.960608 
z
" style="fill:#ee8669;"/>
    <path clip-path="url(#pd8d1a03be7)" d="M 251.651529 169.832865 
L 263.45038 178.717181 
L 261.942132 167.190535 
z
" style="fill:#e3d9d3;"/>
    <path clip-path="url(#pd8d1a03be7)" d="M 294.858643 247.981736 
L 289.935564 226.275157 
L 288.20974 232.660247 
z
" style="fill:#4f69d9;"/>
    <path clip-path="url(#pd8d1a03be7)" d="M 165.973825 218.560137 
L 145.298599 208.538093 
L 146.040272 208.79518 
z
" style="fill:#88abfd;"/>
    <path clip-path="url(#pd8d1a03be7)" d="M 146.040272 208.79518 
L 146.121427 208.83152 
L 165.973825 218.560137 
z
" style="fill:#88abfd;"/>
    <path clip-path="url(#pd8d1a03be7)" d="M 165.973825 218.560137 
L 163.471551 229.328323 
L 180.038048 214.016374 
z
" style="fill:#7396f5;"/>
    <path clip-path="url(#pd8d1a03be7)" d="M 165.973825 218.560137 
L 147.933948 210.030088 
L 163.471551 229.328323 
z
" style="fill:#7699f6;"/>
    <path clip-path="url(#pd8d1a03be7)" d="M 146.121427 208.83152 
L 146.876361 209.243469 
L 165.973825 218.560137 
z
" style="fill:#88abfd;"/>
    <path clip-path="url(#pd8d1a03be7)" d="M 165.973825 218.560137 
L 146.876361 209.243469 
L 147.400128 209.604013 
z
" style="fill:#88abfd;"/>
    <path clip-path="url(#pd8d1a03be7)" d="M 147.400128 209.604013 
L 147.933948 210.030088 
L 165.973825 218.560137 
z
" style="fill:#88abfd;"/>
    <path clip-path="url(#pd8d1a03be7)" d="M 203.345327 131.238767 
L 203.689077 142.719584 
L 208.632465 124.822525 
z
" style="fill:#eb7d62;"/>
    <path clip-path="url(#pd8d1a03be7)" d="M 225.426835 136.723312 
L 223.737922 163.019172 
L 231.305926 147.430802 
z
" style="fill:#f7ad90;"/>
    <path clip-path="url(#pd8d1a03be7)" d="M 222.510769 119.065848 
L 226.728295 115.893213 
L 219.22294 108.11466 
z
" style="fill:#c73635;"/>
    <path clip-path="url(#pd8d1a03be7)" d="M 223.737922 163.019172 
L 238.266532 172.287384 
L 235.824352 156.865832 
z
" style="fill:#f0cdbb;"/>
    <path clip-path="url(#pd8d1a03be7)" d="M 213.056017 109.578301 
L 203.345327 131.238767 
L 208.632465 124.822525 
z
" style="fill:#d85646;"/>
    <path clip-path="url(#pd8d1a03be7)" d="M 226.921991 129.143786 
L 228.000918 127.883974 
L 222.510769 119.065848 
z
" style="fill:#df634e;"/>
    <path clip-path="url(#pd8d1a03be7)" d="M 266.056189 219.266769 
L 281.614209 233.578574 
L 289.935564 226.275157 
z
" style="fill:#6788ee;"/>
    <path clip-path="url(#pd8d1a03be7)" d="M 226.921991 129.143786 
L 222.510769 119.065848 
L 226.521363 128.960608 
z
" style="fill:#df634e;"/>
    <path clip-path="url(#pd8d1a03be7)" d="M 193.282937 190.94655 
L 190.21964 193.958773 
L 187.594017 202.05462 
z
" style="fill:#b5cdfa;"/>
    <path clip-path="url(#pd8d1a03be7)" d="M 219.22294 108.11466 
L 213.638768 109.078473 
L 213.056017 109.578301 
z
" style="fill:#b70d28;"/>
    <path clip-path="url(#pd8d1a03be7)" d="M 190.21964 193.958773 
L 201.014917 177.224381 
L 202.378475 163.269867 
z
" style="fill:#dbdcde;"/>
    <path clip-path="url(#pd8d1a03be7)" d="M 226.521363 128.960608 
L 222.213426 127.772643 
L 225.426835 136.723312 
z
" style="fill:#e7745b;"/>
    <path clip-path="url(#pd8d1a03be7)" d="M 201.014917 177.224381 
L 190.21964 193.958773 
L 193.282937 190.94655 
z
" style="fill:#c9d7f0;"/>
    <path clip-path="url(#pd8d1a03be7)" d="M 213.056017 109.578301 
L 217.906968 109.509816 
L 219.22294 108.11466 
z
" style="fill:#b40426;"/>
    <path clip-path="url(#pd8d1a03be7)" d="M 222.213426 127.772643 
L 226.521363 128.960608 
L 222.510769 119.065848 
z
" style="fill:#dc5d4a;"/>
    <path clip-path="url(#pd8d1a03be7)" d="M 218.060699 110.107338 
L 222.510769 119.065848 
L 219.22294 108.11466 
z
" style="fill:#bd1f2d;"/>
    <path clip-path="url(#pd8d1a03be7)" d="M 206.882873 134.456596 
L 208.632465 124.822525 
L 203.689077 142.719584 
z
" style="fill:#e97a5f;"/>
    <path clip-path="url(#pd8d1a03be7)" d="M 263.45038 178.717181 
L 251.651529 169.832865 
L 248.252482 170.898117 
z
" style="fill:#e7d7ce;"/>
    <path clip-path="url(#pd8d1a03be7)" d="M 219.22294 108.11466 
L 217.906968 109.509816 
L 218.060699 110.107338 
z
" style="fill:#b40426;"/>
    <path clip-path="url(#pd8d1a03be7)" d="M 288.20974 232.660247 
L 281.614209 233.578574 
L 294.858643 247.981736 
z
" style="fill:#506bda;"/>
    <path clip-path="url(#pd8d1a03be7)" d="M 180.038048 214.016374 
L 163.471551 229.328323 
L 171.008906 232.03772 
z
" style="fill:#6f92f3;"/>
    <path clip-path="url(#pd8d1a03be7)" d="M 202.378475 163.269867 
L 211.77173 139.70078 
L 203.689077 142.719584 
z
" style="fill:#f7a688;"/>
    <path clip-path="url(#pd8d1a03be7)" d="M 215.561291 111.525067 
L 217.906968 109.509816 
L 213.056017 109.578301 
z
" style="fill:#b50927;"/>
    <path clip-path="url(#pd8d1a03be7)" d="M 222.213426 127.772643 
L 218.5056 123.455919 
L 225.426835 136.723312 
z
" style="fill:#e26952;"/>
    <path clip-path="url(#pd8d1a03be7)" d="M 206.882873 134.456596 
L 203.689077 142.719584 
L 211.77173 139.70078 
z
" style="fill:#ef886b;"/>
    <path clip-path="url(#pd8d1a03be7)" d="M 225.426835 136.723312 
L 211.77173 139.70078 
L 223.737922 163.019172 
z
" style="fill:#f59f80;"/>
    <path clip-path="url(#pd8d1a03be7)" d="M 180.74153 213.565428 
L 180.038048 214.016374 
L 171.008906 232.03772 
z
" style="fill:#7ea1fa;"/>
    <path clip-path="url(#pd8d1a03be7)" d="M 265.81418 185.074988 
L 263.45038 178.717181 
L 258.348799 190.716518 
z
" style="fill:#d2dbe8;"/>
    <path clip-path="url(#pd8d1a03be7)" d="M 213.056017 109.578301 
L 208.632465 124.822525 
L 211.134856 120.983861 
z
" style="fill:#ca3b37;"/>
    <path clip-path="url(#pd8d1a03be7)" d="M 187.594017 202.05462 
L 180.038048 214.016374 
L 180.74153 213.565428 
z
" style="fill:#97b8ff;"/>
    <path clip-path="url(#pd8d1a03be7)" d="M 206.882873 134.456596 
L 207.32987 133.565169 
L 208.632465 124.822525 
z
" style="fill:#e36c55;"/>
    <path clip-path="url(#pd8d1a03be7)" d="M 211.134856 120.983861 
L 215.561291 111.525067 
L 213.056017 109.578301 
z
" style="fill:#be242e;"/>
    <path clip-path="url(#pd8d1a03be7)" d="M 215.561291 111.525067 
L 222.510769 119.065848 
L 218.060699 110.107338 
z
" style="fill:#bd1f2d;"/>
    <path clip-path="url(#pd8d1a03be7)" d="M 218.5056 123.455919 
L 222.213426 127.772643 
L 222.510769 119.065848 
z
" style="fill:#d55042;"/>
    <path clip-path="url(#pd8d1a03be7)" d="M 218.060699 110.107338 
L 217.906968 109.509816 
L 215.561291 111.525067 
z
" style="fill:#b40426;"/>
    <path clip-path="url(#pd8d1a03be7)" d="M 218.5056 123.455919 
L 211.77173 139.70078 
L 225.426835 136.723312 
z
" style="fill:#e7745b;"/>
    <path clip-path="url(#pd8d1a03be7)" d="M 248.252482 170.898117 
L 251.651529 169.832865 
L 238.266532 172.287384 
z
" style="fill:#ecd3c5;"/>
    <path clip-path="url(#pd8d1a03be7)" d="M 218.5056 123.455919 
L 222.510769 119.065848 
L 215.561291 111.525067 
z
" style="fill:#c73635;"/>
    <path clip-path="url(#pd8d1a03be7)" d="M 211.77173 139.70078 
L 207.32987 133.565169 
L 206.882873 134.456596 
z
" style="fill:#ea7b60;"/>
    <path clip-path="url(#pd8d1a03be7)" d="M 208.632465 124.822525 
L 207.32987 133.565169 
L 212.04873 121.612676 
z
" style="fill:#da5a49;"/>
    <path clip-path="url(#pd8d1a03be7)" d="M 211.602163 152.114696 
L 211.77173 139.70078 
L 202.378475 163.269867 
z
" style="fill:#f7aa8c;"/>
    <path clip-path="url(#pd8d1a03be7)" d="M 202.378475 163.269867 
L 211.524354 152.376801 
L 211.602163 152.114696 
z
" style="fill:#f7b497;"/>
    <path clip-path="url(#pd8d1a03be7)" d="M 212.04873 121.612676 
L 211.134856 120.983861 
L 208.632465 124.822525 
z
" style="fill:#d1493f;"/>
    <path clip-path="url(#pd8d1a03be7)" d="M 258.348799 190.716518 
L 266.056189 219.266769 
L 265.81418 185.074988 
z
" style="fill:#b7cff9;"/>
    <path clip-path="url(#pd8d1a03be7)" d="M 211.007639 130.892008 
L 212.04873 121.612676 
L 207.32987 133.565169 
z
" style="fill:#de614d;"/>
    <path clip-path="url(#pd8d1a03be7)" d="M 211.007639 130.892008 
L 207.32987 133.565169 
L 211.77173 139.70078 
z
" style="fill:#e8765c;"/>
    <path clip-path="url(#pd8d1a03be7)" d="M 225.624738 171.035477 
L 238.266532 172.287384 
L 223.737922 163.019172 
z
" style="fill:#efcebd;"/>
    <path clip-path="url(#pd8d1a03be7)" d="M 215.561291 111.525067 
L 211.134856 120.983861 
L 212.04873 121.612676 
z
" style="fill:#c53334;"/>
    <path clip-path="url(#pd8d1a03be7)" d="M 215.154169 156.276716 
L 223.737922 163.019172 
L 211.77173 139.70078 
z
" style="fill:#f7ac8e;"/>
    <path clip-path="url(#pd8d1a03be7)" d="M 218.5056 123.455919 
L 215.561291 111.525067 
L 212.04873 121.612676 
z
" style="fill:#c83836;"/>
    <path clip-path="url(#pd8d1a03be7)" d="M 208.427349 166.693637 
L 211.524354 152.376801 
L 202.378475 163.269867 
z
" style="fill:#f6bea4;"/>
    <path clip-path="url(#pd8d1a03be7)" d="M 202.378475 163.269867 
L 201.014917 177.224381 
L 208.427349 166.693637 
z
" style="fill:#f0cdbb;"/>
    <path clip-path="url(#pd8d1a03be7)" d="M 218.5056 123.455919 
L 212.04873 121.612676 
L 212.322735 130.901031 
z
" style="fill:#d65244;"/>
    <path clip-path="url(#pd8d1a03be7)" d="M 211.77173 139.70078 
L 218.5056 123.455919 
L 212.322735 130.901031 
z
" style="fill:#e26952;"/>
    <path clip-path="url(#pd8d1a03be7)" d="M 212.04873 121.612676 
L 211.007639 130.892008 
L 212.322735 130.901031 
z
" style="fill:#da5a49;"/>
    <path clip-path="url(#pd8d1a03be7)" d="M 212.322735 130.901031 
L 211.007639 130.892008 
L 211.77173 139.70078 
z
" style="fill:#e57058;"/>
    <path clip-path="url(#pd8d1a03be7)" d="M 215.571219 166.055434 
L 223.737922 163.019172 
L 215.154169 156.276716 
z
" style="fill:#f6bfa6;"/>
    <path clip-path="url(#pd8d1a03be7)" d="M 211.77173 139.70078 
L 211.602163 152.114696 
L 215.154169 156.276716 
z
" style="fill:#f5a081;"/>
    <path clip-path="url(#pd8d1a03be7)" d="M 248.252482 170.898117 
L 258.348799 190.716518 
L 263.45038 178.717181 
z
" style="fill:#dfdbd9;"/>
    <path clip-path="url(#pd8d1a03be7)" d="M 187.594017 202.05462 
L 198.93043 184.603095 
L 193.282937 190.94655 
z
" style="fill:#c6d6f1;"/>
    <path clip-path="url(#pd8d1a03be7)" d="M 215.154169 156.276716 
L 211.602163 152.114696 
L 211.524354 152.376801 
z
" style="fill:#f7ac8e;"/>
    <path clip-path="url(#pd8d1a03be7)" d="M 223.737922 163.019172 
L 218.728591 169.568144 
L 225.624738 171.035477 
z
" style="fill:#f2cbb7;"/>
    <path clip-path="url(#pd8d1a03be7)" d="M 171.008906 232.03772 
L 187.712019 209.252966 
L 180.74153 213.565428 
z
" style="fill:#88abfd;"/>
    <path clip-path="url(#pd8d1a03be7)" d="M 180.74153 213.565428 
L 187.712019 209.252966 
L 187.594017 202.05462 
z
" style="fill:#a2c1ff;"/>
    <path clip-path="url(#pd8d1a03be7)" d="M 215.571219 166.055434 
L 218.728591 169.568144 
L 223.737922 163.019172 
z
" style="fill:#f3c7b1;"/>
    <path clip-path="url(#pd8d1a03be7)" d="M 211.524354 152.376801 
L 208.427349 166.693637 
L 215.154169 156.276716 
z
" style="fill:#f7b79b;"/>
    <path clip-path="url(#pd8d1a03be7)" d="M 193.282937 190.94655 
L 198.93043 184.603095 
L 201.014917 177.224381 
z
" style="fill:#d9dce1;"/>
    <path clip-path="url(#pd8d1a03be7)" d="M 257.926671 215.286742 
L 281.614209 233.578574 
L 266.056189 219.266769 
z
" style="fill:#7ea1fa;"/>
    <path clip-path="url(#pd8d1a03be7)" d="M 215.154169 156.276716 
L 208.427349 166.693637 
L 215.571219 166.055434 
z
" style="fill:#f6bfa6;"/>
    <path clip-path="url(#pd8d1a03be7)" d="M 225.624738 171.035477 
L 218.728591 169.568144 
L 223.0857 171.370749 
z
" style="fill:#f1cdba;"/>
    <path clip-path="url(#pd8d1a03be7)" d="M 281.614209 233.578574 
L 250.818062 251.595299 
L 294.858643 247.981736 
z
" style="fill:#4e68d8;"/>
    <path clip-path="url(#pd8d1a03be7)" d="M 215.571219 166.055434 
L 208.427349 166.693637 
L 211.456259 169.034873 
z
" style="fill:#f4c6af;"/>
    <path clip-path="url(#pd8d1a03be7)" d="M 201.014917 177.224381 
L 207.917803 173.879018 
L 208.427349 166.693637 
z
" style="fill:#efcfbf;"/>
    <path clip-path="url(#pd8d1a03be7)" d="M 225.624738 171.035477 
L 236.579979 167.791629 
L 238.266532 172.287384 
z
" style="fill:#f1ccb8;"/>
    <path clip-path="url(#pd8d1a03be7)" d="M 211.456259 169.034873 
L 218.728591 169.568144 
L 215.571219 166.055434 
z
" style="fill:#f3c8b2;"/>
    <path clip-path="url(#pd8d1a03be7)" d="M 266.056189 219.266769 
L 258.348799 190.716518 
L 257.926671 215.286742 
z
" style="fill:#a7c5fe;"/>
    <path clip-path="url(#pd8d1a03be7)" d="M 248.252482 170.898117 
L 238.266532 172.287384 
L 244.112939 168.530681 
z
" style="fill:#f2cbb7;"/>
    <path clip-path="url(#pd8d1a03be7)" d="M 195.074025 193.713471 
L 198.93043 184.603095 
L 187.594017 202.05462 
z
" style="fill:#cbd8ee;"/>
    <path clip-path="url(#pd8d1a03be7)" d="M 198.93043 184.603095 
L 207.917803 173.879018 
L 201.014917 177.224381 
z
" style="fill:#e7d7ce;"/>
    <path clip-path="url(#pd8d1a03be7)" d="M 211.456259 169.034873 
L 208.427349 166.693637 
L 207.917803 173.879018 
z
" style="fill:#f2cab5;"/>
    <path clip-path="url(#pd8d1a03be7)" d="M 187.594017 202.05462 
L 187.712019 209.252966 
L 195.074025 193.713471 
z
" style="fill:#b9d0f9;"/>
    <path clip-path="url(#pd8d1a03be7)" d="M 171.008906 232.03772 
L 186.488359 227.28341 
L 187.712019 209.252966 
z
" style="fill:#85a8fc;"/>
    <path clip-path="url(#pd8d1a03be7)" d="M 225.624738 171.035477 
L 223.0857 171.370749 
L 234.39026 167.862318 
z
" style="fill:#f2c9b4;"/>
    <path clip-path="url(#pd8d1a03be7)" d="M 223.0857 171.370749 
L 218.728591 169.568144 
L 218.009972 176.819336 
z
" style="fill:#f1cdba;"/>
    <path clip-path="url(#pd8d1a03be7)" d="M 281.614209 233.578574 
L 257.926671 215.286742 
L 250.818062 251.595299 
z
" style="fill:#6c8ff1;"/>
    <path clip-path="url(#pd8d1a03be7)" d="M 250.699166 178.130256 
L 258.348799 190.716518 
L 248.252482 170.898117 
z
" style="fill:#e7d7ce;"/>
    <path clip-path="url(#pd8d1a03be7)" d="M 218.009972 176.819336 
L 218.728591 169.568144 
L 211.456259 169.034873 
z
" style="fill:#f2cbb7;"/>
    <path clip-path="url(#pd8d1a03be7)" d="M 244.112939 168.530681 
L 238.266532 172.287384 
L 236.579979 167.791629 
z
" style="fill:#f3c7b1;"/>
    <path clip-path="url(#pd8d1a03be7)" d="M 211.456259 169.034873 
L 207.917803 173.879018 
L 218.009972 176.819336 
z
" style="fill:#f1cdba;"/>
    <path clip-path="url(#pd8d1a03be7)" d="M 207.964398 178.460335 
L 207.917803 173.879018 
L 198.93043 184.603095 
z
" style="fill:#ead5c9;"/>
    <path clip-path="url(#pd8d1a03be7)" d="M 234.39026 167.862318 
L 236.579979 167.791629 
L 225.624738 171.035477 
z
" style="fill:#f5c4ac;"/>
    <path clip-path="url(#pd8d1a03be7)" d="M 244.112939 168.530681 
L 250.699166 178.130256 
L 248.252482 170.898117 
z
" style="fill:#f2cab5;"/>
    <path clip-path="url(#pd8d1a03be7)" d="M 207.964398 178.460335 
L 218.009972 176.819336 
L 207.917803 173.879018 
z
" style="fill:#efcfbf;"/>
    <path clip-path="url(#pd8d1a03be7)" d="M 198.93043 184.603095 
L 195.074025 193.713471 
L 202.66664 187.607117 
z
" style="fill:#dbdcde;"/>
    <path clip-path="url(#pd8d1a03be7)" d="M 191.743918 212.236158 
L 187.712019 209.252966 
L 186.488359 227.28341 
z
" style="fill:#9ebeff;"/>
    <path clip-path="url(#pd8d1a03be7)" d="M 195.074025 193.713471 
L 187.712019 209.252966 
L 198.685538 194.787805 
z
" style="fill:#c6d6f1;"/>
    <path clip-path="url(#pd8d1a03be7)" d="M 207.964398 178.460335 
L 198.93043 184.603095 
L 202.66664 187.607117 
z
" style="fill:#e5d8d1;"/>
    <path clip-path="url(#pd8d1a03be7)" d="M 258.348799 190.716518 
L 247.591423 187.530863 
L 257.926671 215.286742 
z
" style="fill:#cad8ef;"/>
    <path clip-path="url(#pd8d1a03be7)" d="M 232.294112 168.903652 
L 223.0857 171.370749 
L 218.009972 176.819336 
z
" style="fill:#f3c7b1;"/>
    <path clip-path="url(#pd8d1a03be7)" d="M 198.685538 194.787805 
L 187.712019 209.252966 
L 191.743918 212.236158 
z
" style="fill:#bad0f8;"/>
    <path clip-path="url(#pd8d1a03be7)" d="M 247.591423 187.530863 
L 258.348799 190.716518 
L 250.699166 178.130256 
z
" style="fill:#e3d9d3;"/>
    <path clip-path="url(#pd8d1a03be7)" d="M 188.964489 227.07719 
L 191.743918 212.236158 
L 186.488359 227.28341 
z
" style="fill:#92b4fe;"/>
    <path clip-path="url(#pd8d1a03be7)" d="M 223.0857 171.370749 
L 232.294112 168.903652 
L 234.39026 167.862318 
z
" style="fill:#f5c0a7;"/>
    <path clip-path="url(#pd8d1a03be7)" d="M 202.66664 187.607117 
L 195.074025 193.713471 
L 198.685538 194.787805 
z
" style="fill:#d8dce2;"/>
    <path clip-path="url(#pd8d1a03be7)" d="M 209.886684 187.745203 
L 218.009972 176.819336 
L 207.964398 178.460335 
z
" style="fill:#ebd3c6;"/>
    <path clip-path="url(#pd8d1a03be7)" d="M 202.66664 187.607117 
L 204.426263 187.972396 
L 207.964398 178.460335 
z
" style="fill:#e6d7cf;"/>
    <path clip-path="url(#pd8d1a03be7)" d="M 194.487083 228.954047 
L 191.743918 212.236158 
L 188.964489 227.07719 
z
" style="fill:#93b5fe;"/>
    <path clip-path="url(#pd8d1a03be7)" d="M 237.934886 166.783329 
L 244.112939 168.530681 
L 236.579979 167.791629 
z
" style="fill:#f7ba9f;"/>
    <path clip-path="url(#pd8d1a03be7)" d="M 204.426263 187.972396 
L 209.886684 187.745203 
L 207.964398 178.460335 
z
" style="fill:#e6d7cf;"/>
    <path clip-path="url(#pd8d1a03be7)" d="M 250.699166 178.130256 
L 244.112939 168.530681 
L 243.780722 171.140066 
z
" style="fill:#f5c4ac;"/>
    <path clip-path="url(#pd8d1a03be7)" d="M 198.685538 194.787805 
L 204.426263 187.972396 
L 202.66664 187.607117 
z
" style="fill:#dddcdc;"/>
    <path clip-path="url(#pd8d1a03be7)" d="M 236.579979 167.791629 
L 234.39026 167.862318 
L 237.934886 166.783329 
z
" style="fill:#f7b99e;"/>
    <path clip-path="url(#pd8d1a03be7)" d="M 191.743918 212.236158 
L 198.682945 220.189803 
L 198.685538 194.787805 
z
" style="fill:#b6cefa;"/>
    <path clip-path="url(#pd8d1a03be7)" d="M 250.818062 251.595299 
L 257.926671 215.286742 
L 245.363384 204.115016 
z
" style="fill:#92b4fe;"/>
    <path clip-path="url(#pd8d1a03be7)" d="M 210.723458 190.767974 
L 218.009972 176.819336 
L 209.886684 187.745203 
z
" style="fill:#e7d7ce;"/>
    <path clip-path="url(#pd8d1a03be7)" d="M 191.743918 212.236158 
L 194.487083 228.954047 
L 198.682945 220.189803 
z
" style="fill:#9abbff;"/>
    <path clip-path="url(#pd8d1a03be7)" d="M 198.685538 194.787805 
L 207.525004 194.624516 
L 204.426263 187.972396 
z
" style="fill:#dadce0;"/>
    <path clip-path="url(#pd8d1a03be7)" d="M 199.541007 233.343893 
L 198.682945 220.189803 
L 194.487083 228.954047 
z
" style="fill:#8badfd;"/>
    <path clip-path="url(#pd8d1a03be7)" d="M 204.426263 187.972396 
L 207.525004 194.624516 
L 209.886684 187.745203 
z
" style="fill:#dfdbd9;"/>
    <path clip-path="url(#pd8d1a03be7)" d="M 198.682945 220.189803 
L 204.303951 212.120156 
L 198.685538 194.787805 
z
" style="fill:#b9d0f9;"/>
    <path clip-path="url(#pd8d1a03be7)" d="M 257.926671 215.286742 
L 247.591423 187.530863 
L 245.363384 204.115016 
z
" style="fill:#c7d7f0;"/>
    <path clip-path="url(#pd8d1a03be7)" d="M 237.934886 166.783329 
L 243.780722 171.140066 
L 244.112939 168.530681 
z
" style="fill:#f7b99e;"/>
    <path clip-path="url(#pd8d1a03be7)" d="M 198.685538 194.787805 
L 204.303951 212.120156 
L 207.525004 194.624516 
z
" style="fill:#cbd8ee;"/>
    <path clip-path="url(#pd8d1a03be7)" d="M 199.541007 233.343893 
L 204.303951 212.120156 
L 198.682945 220.189803 
z
" style="fill:#9abbff;"/>
    <path clip-path="url(#pd8d1a03be7)" d="M 210.723458 190.767974 
L 209.886684 187.745203 
L 207.525004 194.624516 
z
" style="fill:#dedcdb;"/>
    <path clip-path="url(#pd8d1a03be7)" d="M 247.591423 187.530863 
L 250.699166 178.130256 
L 243.780722 171.140066 
z
" style="fill:#f1cdba;"/>
    <path clip-path="url(#pd8d1a03be7)" d="M 237.934886 166.783329 
L 234.39026 167.862318 
L 232.294112 168.903652 
z
" style="fill:#f7b599;"/>
    <path clip-path="url(#pd8d1a03be7)" d="M 226.668108 180.271537 
L 218.009972 176.819336 
L 210.723458 190.767974 
z
" style="fill:#edd2c3;"/>
    <path clip-path="url(#pd8d1a03be7)" d="M 228.088804 177.612238 
L 232.294112 168.903652 
L 218.009972 176.819336 
z
" style="fill:#f5c4ac;"/>
    <path clip-path="url(#pd8d1a03be7)" d="M 199.541007 233.343893 
L 219.944379 212.012898 
L 204.303951 212.120156 
z
" style="fill:#a3c2fe;"/>
    <path clip-path="url(#pd8d1a03be7)" d="M 199.541007 233.343893 
L 250.818062 251.595299 
L 229.239432 218.149079 
z
" style="fill:#7da0f9;"/>
    <path clip-path="url(#pd8d1a03be7)" d="M 207.525004 194.624516 
L 219.944379 212.012898 
L 210.723458 190.767974 
z
" style="fill:#d1dae9;"/>
    <path clip-path="url(#pd8d1a03be7)" d="M 207.525004 194.624516 
L 204.303951 212.120156 
L 219.944379 212.012898 
z
" style="fill:#c3d5f4;"/>
    <path clip-path="url(#pd8d1a03be7)" d="M 218.009972 176.819336 
L 226.668108 180.271537 
L 228.088804 177.612238 
z
" style="fill:#f2c9b4;"/>
    <path clip-path="url(#pd8d1a03be7)" d="M 250.818062 251.595299 
L 245.363384 204.115016 
L 234.857871 212.303623 
z
" style="fill:#9ebeff;"/>
    <path clip-path="url(#pd8d1a03be7)" d="M 227.360713 216.370239 
L 219.944379 212.012898 
L 199.541007 233.343893 
z
" style="fill:#a3c2fe;"/>
    <path clip-path="url(#pd8d1a03be7)" d="M 210.723458 190.767974 
L 219.944379 212.012898 
L 226.668108 180.271537 
z
" style="fill:#dcdddd;"/>
    <path clip-path="url(#pd8d1a03be7)" d="M 243.780722 171.140066 
L 237.934886 166.783329 
L 239.935259 177.8347 
z
" style="fill:#f7b99e;"/>
    <path clip-path="url(#pd8d1a03be7)" d="M 247.591423 187.530863 
L 243.780722 171.140066 
L 239.935259 177.8347 
z
" style="fill:#f3c8b2;"/>
    <path clip-path="url(#pd8d1a03be7)" d="M 232.294112 168.903652 
L 236.552006 176.877685 
L 237.934886 166.783329 
z
" style="fill:#f7b79b;"/>
    <path clip-path="url(#pd8d1a03be7)" d="M 229.239432 218.149079 
L 250.818062 251.595299 
L 234.857871 212.303623 
z
" style="fill:#93b5fe;"/>
    <path clip-path="url(#pd8d1a03be7)" d="M 227.360713 216.370239 
L 199.541007 233.343893 
L 229.239432 218.149079 
z
" style="fill:#9fbfff;"/>
    <path clip-path="url(#pd8d1a03be7)" d="M 239.935259 177.8347 
L 245.363384 204.115016 
L 247.591423 187.530863 
z
" style="fill:#e6d7cf;"/>
    <path clip-path="url(#pd8d1a03be7)" d="M 232.294112 168.903652 
L 228.088804 177.612238 
L 236.552006 176.877685 
z
" style="fill:#f6bda2;"/>
    <path clip-path="url(#pd8d1a03be7)" d="M 239.935259 177.8347 
L 237.934886 166.783329 
L 236.552006 176.877685 
z
" style="fill:#f7ba9f;"/>
    <path clip-path="url(#pd8d1a03be7)" d="M 231.014459 193.918457 
L 226.668108 180.271537 
L 219.944379 212.012898 
z
" style="fill:#dedcdb;"/>
    <path clip-path="url(#pd8d1a03be7)" d="M 219.944379 212.012898 
L 227.360713 216.370239 
L 231.014459 193.918457 
z
" style="fill:#c7d7f0;"/>
    <path clip-path="url(#pd8d1a03be7)" d="M 245.363384 204.115016 
L 231.014459 193.918457 
L 234.857871 212.303623 
z
" style="fill:#cfdaea;"/>
    <path clip-path="url(#pd8d1a03be7)" d="M 239.935259 177.8347 
L 236.552006 176.877685 
L 245.363384 204.115016 
z
" style="fill:#edd1c2;"/>
    <path clip-path="url(#pd8d1a03be7)" d="M 226.668108 180.271537 
L 231.014459 193.918457 
L 228.088804 177.612238 
z
" style="fill:#f0cdbb;"/>
    <path clip-path="url(#pd8d1a03be7)" d="M 236.552006 176.877685 
L 231.014459 193.918457 
L 245.363384 204.115016 
z
" style="fill:#e6d7cf;"/>
    <path clip-path="url(#pd8d1a03be7)" d="M 231.014459 193.918457 
L 227.360713 216.370239 
L 229.239432 218.149079 
z
" style="fill:#c4d5f3;"/>
    <path clip-path="url(#pd8d1a03be7)" d="M 234.857871 212.303623 
L 231.014459 193.918457 
L 229.239432 218.149079 
z
" style="fill:#c7d7f0;"/>
    <path clip-path="url(#pd8d1a03be7)" d="M 236.552006 176.877685 
L 228.088804 177.612238 
L 231.014459 193.918457 
z
" style="fill:#f2cab5;"/>
   </g>
  </g>
 </g>
 <defs>
  <clipPath id="pd8d1a03be7">
   <rect height="266.112" width="266.112" x="103.104" y="41.472"/>
  </clipPath>
 </defs>
</svg>
