<?xml version="1.0" encoding="utf-8" standalone="no"?>
<!DOCTYPE svg PUBLIC "-//W3C//DTD SVG 1.1//EN"
  "http://www.w3.org/Graphics/SVG/1.1/DTD/svg11.dtd">
<!-- Created with matplotlib (https://matplotlib.org/) -->
<svg height="345.6pt" version="1.1" viewBox="0 0 460.8 345.6" width="460.8pt" xmlns="http://www.w3.org/2000/svg" xmlns:xlink="http://www.w3.org/1999/xlink">
 <metadata>
  <rdf:RDF xmlns:cc="http://creativecommons.org/ns#" xmlns:dc="http://purl.org/dc/elements/1.1/" xmlns:rdf="http://www.w3.org/1999/02/22-rdf-syntax-ns#">
   <cc:Work>
    <dc:type rdf:resource="http://purl.org/dc/dcmitype/StillImage"/>
    <dc:date>2021-04-12T02:12:24.322677</dc:date>
    <dc:format>image/svg+xml</dc:format>
    <dc:creator>
     <cc:Agent>
      <dc:title>Matplotlib v3.3.4, https://matplotlib.org/</dc:title>
     </cc:Agent>
    </dc:creator>
   </cc:Work>
  </rdf:RDF>
 </metadata>
 <defs>
  <style type="text/css">*{stroke-linecap:butt;stroke-linejoin:round;}</style>
 </defs>
 <g id="figure_1">
  <g id="patch_1">
   <path d="M 0 345.6 
L 460.8 345.6 
L 460.8 0 
L 0 0 
z
" style="fill:#ffffff;"/>
  </g>
  <g id="patch_2">
   <path d="M 103.104 307.584 
L 369.216 307.584 
L 369.216 41.472 
L 103.104 41.472 
z
" style="fill:#ffffff;"/>
  </g>
  <g id="pane3d_1">
   <g id="patch_3">
    <path d="M 123.197291 241.969309 
L 211.076164 168.307495 
L 209.854564 62.073991 
L 117.770234 129.272941 
" style="fill:#f2f2f2;opacity:0.5;stroke:#f2f2f2;stroke-linejoin:miter;"/>
   </g>
  </g>
  <g id="pane3d_2">
   <g id="patch_4">
    <path d="M 211.076164 168.307495 
L 352.090401 209.294766 
L 357.122702 99.402171 
L 209.854564 62.073991 
" style="fill:#e6e6e6;opacity:0.5;stroke:#e6e6e6;stroke-linejoin:miter;"/>
   </g>
  </g>
  <g id="pane3d_3">
   <g id="patch_5">
    <path d="M 123.197291 241.969309 
L 272.679269 290.790123 
L 352.090401 209.294766 
L 211.076164 168.307495 
" style="fill:#ececec;opacity:0.5;stroke:#ececec;stroke-linejoin:miter;"/>
   </g>
  </g>
  <g id="axis3d_1">
   <g id="line2d_1">
    <path d="M 123.197291 241.969309 
L 272.679269 290.790123 
" style="fill:none;stroke:#000000;stroke-linecap:square;stroke-width:0.8;"/>
   </g>
   <g id="text_1">
    <!-- ATAC -->
    <g transform="translate(167.15299 303.76759)scale(0.1 -0.1)">
     <defs>
      <path d="M 34.1875 63.1875 
L 20.796875 26.90625 
L 47.609375 26.90625 
z
M 28.609375 72.90625 
L 39.796875 72.90625 
L 67.578125 0 
L 57.328125 0 
L 50.6875 18.703125 
L 17.828125 18.703125 
L 11.1875 0 
L 0.78125 0 
z
" id="DejaVuSans-65"/>
      <path d="M -0.296875 72.90625 
L 61.375 72.90625 
L 61.375 64.59375 
L 35.5 64.59375 
L 35.5 0 
L 25.59375 0 
L 25.59375 64.59375 
L -0.296875 64.59375 
z
" id="DejaVuSans-84"/>
      <path d="M 64.40625 67.28125 
L 64.40625 56.890625 
Q 59.421875 61.53125 53.78125 63.8125 
Q 48.140625 66.109375 41.796875 66.109375 
Q 29.296875 66.109375 22.65625 58.46875 
Q 16.015625 50.828125 16.015625 36.375 
Q 16.015625 21.96875 22.65625 14.328125 
Q 29.296875 6.6875 41.796875 6.6875 
Q 48.140625 6.6875 53.78125 8.984375 
Q 59.421875 11.28125 64.40625 15.921875 
L 64.40625 5.609375 
Q 59.234375 2.09375 53.4375 0.328125 
Q 47.65625 -1.421875 41.21875 -1.421875 
Q 24.65625 -1.421875 15.125 8.703125 
Q 5.609375 18.84375 5.609375 36.375 
Q 5.609375 53.953125 15.125 64.078125 
Q 24.65625 74.21875 41.21875 74.21875 
Q 47.75 74.21875 53.53125 72.484375 
Q 59.328125 70.75 64.40625 67.28125 
z
" id="DejaVuSans-67"/>
     </defs>
     <use xlink:href="#DejaVuSans-65"/>
     <use x="60.658203" xlink:href="#DejaVuSans-84"/>
     <use x="113.992188" xlink:href="#DejaVuSans-65"/>
     <use x="180.650391" xlink:href="#DejaVuSans-67"/>
    </g>
   </g>
   <g id="Line3DCollection_1">
    <path d="M 132.250704 244.926154 
L 219.652219 170.800215 
L 218.79322 64.33968 
" style="fill:none;stroke:#b0b0b0;stroke-width:0.8;"/>
    <path d="M 159.597686 253.857678 
L 245.529395 178.321689 
L 245.778406 71.179638 
" style="fill:none;stroke:#b0b0b0;stroke-width:0.8;"/>
    <path d="M 187.490143 262.967354 
L 271.879655 185.980669 
L 273.278415 78.150088 
" style="fill:none;stroke:#b0b0b0;stroke-width:0.8;"/>
    <path d="M 215.944562 272.260568 
L 298.716092 193.780962 
L 301.308121 85.254802 
" style="fill:none;stroke:#b0b0b0;stroke-width:0.8;"/>
    <path d="M 244.978098 281.74292 
L 326.052288 201.726515 
L 329.882976 92.497695 
" style="fill:none;stroke:#b0b0b0;stroke-width:0.8;"/>
   </g>
   <g id="xtick_1">
    <g id="line2d_2">
     <path d="M 133.011792 244.280669 
L 130.725263 246.219892 
" style="fill:none;stroke:#000000;stroke-linecap:square;stroke-width:0.8;"/>
    </g>
    <g id="text_2">
     <!-- 0.0 -->
     <g transform="translate(116.770092 268.235303)scale(0.1 -0.1)">
      <defs>
       <path d="M 31.78125 66.40625 
Q 24.171875 66.40625 20.328125 58.90625 
Q 16.5 51.421875 16.5 36.375 
Q 16.5 21.390625 20.328125 13.890625 
Q 24.171875 6.390625 31.78125 6.390625 
Q 39.453125 6.390625 43.28125 13.890625 
Q 47.125 21.390625 47.125 36.375 
Q 47.125 51.421875 43.28125 58.90625 
Q 39.453125 66.40625 31.78125 66.40625 
z
M 31.78125 74.21875 
Q 44.046875 74.21875 50.515625 64.515625 
Q 56.984375 54.828125 56.984375 36.375 
Q 56.984375 17.96875 50.515625 8.265625 
Q 44.046875 -1.421875 31.78125 -1.421875 
Q 19.53125 -1.421875 13.0625 8.265625 
Q 6.59375 17.96875 6.59375 36.375 
Q 6.59375 54.828125 13.0625 64.515625 
Q 19.53125 74.21875 31.78125 74.21875 
z
" id="DejaVuSans-48"/>
       <path d="M 10.6875 12.40625 
L 21 12.40625 
L 21 0 
L 10.6875 0 
z
" id="DejaVuSans-46"/>
      </defs>
      <use xlink:href="#DejaVuSans-48"/>
      <use x="63.623047" xlink:href="#DejaVuSans-46"/>
      <use x="95.410156" xlink:href="#DejaVuSans-48"/>
     </g>
    </g>
   </g>
   <g id="xtick_2">
    <g id="line2d_3">
     <path d="M 160.346574 253.199387 
L 158.096663 255.177112 
" style="fill:none;stroke:#000000;stroke-linecap:square;stroke-width:0.8;"/>
    </g>
    <g id="text_3">
     <!-- 0.1 -->
     <g transform="translate(144.14511 277.356079)scale(0.1 -0.1)">
      <defs>
       <path d="M 12.40625 8.296875 
L 28.515625 8.296875 
L 28.515625 63.921875 
L 10.984375 60.40625 
L 10.984375 69.390625 
L 28.421875 72.90625 
L 38.28125 72.90625 
L 38.28125 8.296875 
L 54.390625 8.296875 
L 54.390625 0 
L 12.40625 0 
z
" id="DejaVuSans-49"/>
      </defs>
      <use xlink:href="#DejaVuSans-48"/>
      <use x="63.623047" xlink:href="#DejaVuSans-46"/>
      <use x="95.410156" xlink:href="#DejaVuSans-49"/>
     </g>
    </g>
   </g>
   <g id="xtick_3">
    <g id="line2d_4">
     <path d="M 188.226193 262.295872 
L 186.014822 264.313257 
" style="fill:none;stroke:#000000;stroke-linecap:square;stroke-width:0.8;"/>
    </g>
    <g id="text_4">
     <!-- 0.2 -->
     <g transform="translate(172.068234 286.659472)scale(0.1 -0.1)">
      <defs>
       <path d="M 19.1875 8.296875 
L 53.609375 8.296875 
L 53.609375 0 
L 7.328125 0 
L 7.328125 8.296875 
Q 12.9375 14.109375 22.625 23.890625 
Q 32.328125 33.6875 34.8125 36.53125 
Q 39.546875 41.84375 41.421875 45.53125 
Q 43.3125 49.21875 43.3125 52.78125 
Q 43.3125 58.59375 39.234375 62.25 
Q 35.15625 65.921875 28.609375 65.921875 
Q 23.96875 65.921875 18.8125 64.3125 
Q 13.671875 62.703125 7.8125 59.421875 
L 7.8125 69.390625 
Q 13.765625 71.78125 18.9375 73 
Q 24.125 74.21875 28.421875 74.21875 
Q 39.75 74.21875 46.484375 68.546875 
Q 53.21875 62.890625 53.21875 53.421875 
Q 53.21875 48.921875 51.53125 44.890625 
Q 49.859375 40.875 45.40625 35.40625 
Q 44.1875 33.984375 37.640625 27.21875 
Q 31.109375 20.453125 19.1875 8.296875 
z
" id="DejaVuSans-50"/>
      </defs>
      <use xlink:href="#DejaVuSans-48"/>
      <use x="63.623047" xlink:href="#DejaVuSans-46"/>
      <use x="95.410156" xlink:href="#DejaVuSans-50"/>
     </g>
    </g>
   </g>
   <g id="xtick_4">
    <g id="line2d_5">
     <path d="M 216.667102 271.575494 
L 214.496289 273.633744 
" style="fill:none;stroke:#000000;stroke-linecap:square;stroke-width:0.8;"/>
    </g>
    <g id="text_5">
     <!-- 0.3 -->
     <g transform="translate(200.556092 296.151022)scale(0.1 -0.1)">
      <defs>
       <path d="M 40.578125 39.3125 
Q 47.65625 37.796875 51.625 33 
Q 55.609375 28.21875 55.609375 21.1875 
Q 55.609375 10.40625 48.1875 4.484375 
Q 40.765625 -1.421875 27.09375 -1.421875 
Q 22.515625 -1.421875 17.65625 -0.515625 
Q 12.796875 0.390625 7.625 2.203125 
L 7.625 11.71875 
Q 11.71875 9.328125 16.59375 8.109375 
Q 21.484375 6.890625 26.8125 6.890625 
Q 36.078125 6.890625 40.9375 10.546875 
Q 45.796875 14.203125 45.796875 21.1875 
Q 45.796875 27.640625 41.28125 31.265625 
Q 36.765625 34.90625 28.71875 34.90625 
L 20.21875 34.90625 
L 20.21875 43.015625 
L 29.109375 43.015625 
Q 36.375 43.015625 40.234375 45.921875 
Q 44.09375 48.828125 44.09375 54.296875 
Q 44.09375 59.90625 40.109375 62.90625 
Q 36.140625 65.921875 28.71875 65.921875 
Q 24.65625 65.921875 20.015625 65.03125 
Q 15.375 64.15625 9.8125 62.3125 
L 9.8125 71.09375 
Q 15.4375 72.65625 20.34375 73.4375 
Q 25.25 74.21875 29.59375 74.21875 
Q 40.828125 74.21875 47.359375 69.109375 
Q 53.90625 64.015625 53.90625 55.328125 
Q 53.90625 49.265625 50.4375 45.09375 
Q 46.96875 40.921875 40.578125 39.3125 
z
" id="DejaVuSans-51"/>
      </defs>
      <use xlink:href="#DejaVuSans-48"/>
      <use x="63.623047" xlink:href="#DejaVuSans-46"/>
      <use x="95.410156" xlink:href="#DejaVuSans-51"/>
     </g>
    </g>
   </g>
   <g id="xtick_5">
    <g id="line2d_6">
     <path d="M 245.686422 281.043838 
L 243.558287 283.144207 
" style="fill:none;stroke:#000000;stroke-linecap:square;stroke-width:0.8;"/>
    </g>
    <g id="text_6">
     <!-- 0.4 -->
     <g transform="translate(229.625991 305.836497)scale(0.1 -0.1)">
      <defs>
       <path d="M 37.796875 64.3125 
L 12.890625 25.390625 
L 37.796875 25.390625 
z
M 35.203125 72.90625 
L 47.609375 72.90625 
L 47.609375 25.390625 
L 58.015625 25.390625 
L 58.015625 17.1875 
L 47.609375 17.1875 
L 47.609375 0 
L 37.796875 0 
L 37.796875 17.1875 
L 4.890625 17.1875 
L 4.890625 26.703125 
z
" id="DejaVuSans-52"/>
      </defs>
      <use xlink:href="#DejaVuSans-48"/>
      <use x="63.623047" xlink:href="#DejaVuSans-46"/>
      <use x="95.410156" xlink:href="#DejaVuSans-52"/>
     </g>
    </g>
   </g>
  </g>
  <g id="axis3d_2">
   <g id="line2d_7">
    <path d="M 352.090401 209.294766 
L 272.679269 290.790123 
" style="fill:none;stroke:#000000;stroke-linecap:square;stroke-width:0.8;"/>
   </g>
   <g id="text_7">
    <!-- CHIP -->
    <g transform="translate(329.391375 278.988697)scale(0.1 -0.1)">
     <defs>
      <path d="M 9.8125 72.90625 
L 19.671875 72.90625 
L 19.671875 43.015625 
L 55.515625 43.015625 
L 55.515625 72.90625 
L 65.375 72.90625 
L 65.375 0 
L 55.515625 0 
L 55.515625 34.71875 
L 19.671875 34.71875 
L 19.671875 0 
L 9.8125 0 
z
" id="DejaVuSans-72"/>
      <path d="M 9.8125 72.90625 
L 19.671875 72.90625 
L 19.671875 0 
L 9.8125 0 
z
" id="DejaVuSans-73"/>
      <path d="M 19.671875 64.796875 
L 19.671875 37.40625 
L 32.078125 37.40625 
Q 38.96875 37.40625 42.71875 40.96875 
Q 46.484375 44.53125 46.484375 51.125 
Q 46.484375 57.671875 42.71875 61.234375 
Q 38.96875 64.796875 32.078125 64.796875 
z
M 9.8125 72.90625 
L 32.078125 72.90625 
Q 44.34375 72.90625 50.609375 67.359375 
Q 56.890625 61.8125 56.890625 51.125 
Q 56.890625 40.328125 50.609375 34.8125 
Q 44.34375 29.296875 32.078125 29.296875 
L 19.671875 29.296875 
L 19.671875 0 
L 9.8125 0 
z
" id="DejaVuSans-80"/>
     </defs>
     <use xlink:href="#DejaVuSans-67"/>
     <use x="69.824219" xlink:href="#DejaVuSans-72"/>
     <use x="145.019531" xlink:href="#DejaVuSans-73"/>
     <use x="174.511719" xlink:href="#DejaVuSans-80"/>
    </g>
   </g>
   <g id="Line3DCollection_2">
    <path d="M 128.616272 121.357996 
L 133.513371 233.322166 
L 282.03771 281.18606 
" style="fill:none;stroke:#b0b0b0;stroke-width:0.8;"/>
    <path d="M 144.514482 109.756207 
L 148.651427 220.633148 
L 295.752926 267.110875 
" style="fill:none;stroke:#b0b0b0;stroke-width:0.8;"/>
    <path d="M 159.947216 98.4941 
L 163.365245 208.299733 
L 309.063782 253.450661 
" style="fill:none;stroke:#b0b0b0;stroke-width:0.8;"/>
    <path d="M 174.934623 87.556973 
L 177.672414 196.307181 
L 321.987902 240.187335 
" style="fill:none;stroke:#b0b0b0;stroke-width:0.8;"/>
    <path d="M 189.495704 76.930959 
L 191.589561 184.641552 
L 334.541898 227.303847 
" style="fill:none;stroke:#b0b0b0;stroke-width:0.8;"/>
    <path d="M 203.648395 66.60297 
L 205.13242 173.289659 
L 346.741445 214.78411 
" style="fill:none;stroke:#b0b0b0;stroke-width:0.8;"/>
   </g>
   <g id="xtick_6">
    <g id="line2d_8">
     <path d="M 280.786357 280.782795 
L 284.543638 281.993628 
" style="fill:none;stroke:#000000;stroke-linecap:square;stroke-width:0.8;"/>
    </g>
    <g id="text_8">
     <!-- 0.10 -->
     <g transform="translate(283.733739 302.14905)scale(0.1 -0.1)">
      <use xlink:href="#DejaVuSans-48"/>
      <use x="63.623047" xlink:href="#DejaVuSans-46"/>
      <use x="95.410156" xlink:href="#DejaVuSans-49"/>
      <use x="159.033203" xlink:href="#DejaVuSans-48"/>
     </g>
    </g>
   </g>
   <g id="xtick_7">
    <g id="line2d_9">
     <path d="M 294.514496 266.719584 
L 298.232927 267.894448 
" style="fill:none;stroke:#000000;stroke-linecap:square;stroke-width:0.8;"/>
    </g>
    <g id="text_9">
     <!-- 0.15 -->
     <g transform="translate(297.264955 287.865523)scale(0.1 -0.1)">
      <defs>
       <path d="M 10.796875 72.90625 
L 49.515625 72.90625 
L 49.515625 64.59375 
L 19.828125 64.59375 
L 19.828125 46.734375 
Q 21.96875 47.46875 24.109375 47.828125 
Q 26.265625 48.1875 28.421875 48.1875 
Q 40.625 48.1875 47.75 41.5 
Q 54.890625 34.8125 54.890625 23.390625 
Q 54.890625 11.625 47.5625 5.09375 
Q 40.234375 -1.421875 26.90625 -1.421875 
Q 22.3125 -1.421875 17.546875 -0.640625 
Q 12.796875 0.140625 7.71875 1.703125 
L 7.71875 11.625 
Q 12.109375 9.234375 16.796875 8.0625 
Q 21.484375 6.890625 26.703125 6.890625 
Q 35.15625 6.890625 40.078125 11.328125 
Q 45.015625 15.765625 45.015625 23.390625 
Q 45.015625 31 40.078125 35.4375 
Q 35.15625 39.890625 26.703125 39.890625 
Q 22.75 39.890625 18.8125 39.015625 
Q 14.890625 38.140625 10.796875 36.28125 
z
" id="DejaVuSans-53"/>
      </defs>
      <use xlink:href="#DejaVuSans-48"/>
      <use x="63.623047" xlink:href="#DejaVuSans-46"/>
      <use x="95.410156" xlink:href="#DejaVuSans-49"/>
      <use x="159.033203" xlink:href="#DejaVuSans-53"/>
     </g>
    </g>
   </g>
   <g id="xtick_8">
    <g id="line2d_10">
     <path d="M 307.838063 253.07082 
L 311.518284 254.211294 
" style="fill:none;stroke:#000000;stroke-linecap:square;stroke-width:0.8;"/>
    </g>
    <g id="text_10">
     <!-- 0.20 -->
     <g transform="translate(310.397005 274.003353)scale(0.1 -0.1)">
      <use xlink:href="#DejaVuSans-48"/>
      <use x="63.623047" xlink:href="#DejaVuSans-46"/>
      <use x="95.410156" xlink:href="#DejaVuSans-50"/>
      <use x="159.033203" xlink:href="#DejaVuSans-48"/>
     </g>
    </g>
   </g>
   <g id="xtick_9">
    <g id="line2d_11">
     <path d="M 320.774683 239.818447 
L 324.417328 240.92602 
" style="fill:none;stroke:#000000;stroke-linecap:square;stroke-width:0.8;"/>
    </g>
    <g id="text_11">
     <!-- 0.25 -->
     <g transform="translate(323.147296 260.544168)scale(0.1 -0.1)">
      <use xlink:href="#DejaVuSans-48"/>
      <use x="63.623047" xlink:href="#DejaVuSans-46"/>
      <use x="95.410156" xlink:href="#DejaVuSans-50"/>
      <use x="159.033203" xlink:href="#DejaVuSans-53"/>
     </g>
    </g>
   </g>
   <g id="xtick_10">
    <g id="line2d_12">
     <path d="M 333.340971 226.945446 
L 336.946667 228.02152 
" style="fill:none;stroke:#000000;stroke-linecap:square;stroke-width:0.8;"/>
    </g>
    <g id="text_12">
     <!-- 0.30 -->
     <g transform="translate(335.532236 247.470647)scale(0.1 -0.1)">
      <use xlink:href="#DejaVuSans-48"/>
      <use x="63.623047" xlink:href="#DejaVuSans-46"/>
      <use x="95.410156" xlink:href="#DejaVuSans-51"/>
      <use x="159.033203" xlink:href="#DejaVuSans-48"/>
     </g>
    </g>
   </g>
   <g id="xtick_11">
    <g id="line2d_13">
     <path d="M 345.552604 214.435755 
L 349.121972 215.481656 
" style="fill:none;stroke:#000000;stroke-linecap:square;stroke-width:0.8;"/>
    </g>
    <g id="text_13">
     <!-- 0.35 -->
     <g transform="translate(347.567306 234.766447)scale(0.1 -0.1)">
      <use xlink:href="#DejaVuSans-48"/>
      <use x="63.623047" xlink:href="#DejaVuSans-46"/>
      <use x="95.410156" xlink:href="#DejaVuSans-51"/>
      <use x="159.033203" xlink:href="#DejaVuSans-53"/>
     </g>
    </g>
   </g>
  </g>
  <g id="axis3d_3">
   <g id="line2d_14">
    <path d="M 352.090401 209.294766 
L 357.122702 99.402171 
" style="fill:none;stroke:#000000;stroke-linecap:square;stroke-width:0.8;"/>
   </g>
   <g id="Line3DCollection_3">
    <path d="M 352.551217 199.231714 
L 210.964086 158.56084 
L 122.701087 231.665307 
" style="fill:none;stroke:#b0b0b0;stroke-width:0.8;"/>
    <path d="M 353.157214 185.998295 
L 210.816762 145.749239 
L 122.04832 218.110185 
" style="fill:none;stroke:#b0b0b0;stroke-width:0.8;"/>
    <path d="M 353.769757 172.621913 
L 210.667924 132.805854 
L 121.388232 204.403033 
" style="fill:none;stroke:#b0b0b0;stroke-width:0.8;"/>
    <path d="M 354.388954 159.10024 
L 210.517546 119.728643 
L 120.720699 190.541278 
" style="fill:none;stroke:#b0b0b0;stroke-width:0.8;"/>
    <path d="M 355.014913 145.430896 
L 210.365606 106.515518 
L 120.045595 176.522291 
" style="fill:none;stroke:#b0b0b0;stroke-width:0.8;"/>
    <path d="M 355.647745 131.611447 
L 210.212078 93.16435 
L 119.362789 162.34338 
" style="fill:none;stroke:#b0b0b0;stroke-width:0.8;"/>
    <path d="M 356.287566 117.639408 
L 210.056938 79.672963 
L 118.672149 148.001794 
" style="fill:none;stroke:#b0b0b0;stroke-width:0.8;"/>
    <path d="M 356.93449 103.512237 
L 209.90016 66.039138 
L 117.973539 133.494717 
" style="fill:none;stroke:#b0b0b0;stroke-width:0.8;"/>
   </g>
   <g id="xtick_12">
    <g id="line2d_15">
     <path d="M 351.362683 198.890308 
L 354.931123 199.915342 
" style="fill:none;stroke:#000000;stroke-linecap:square;stroke-width:0.8;"/>
    </g>
    <g id="text_14">
     <!-- 4 -->
     <g transform="translate(367.691853 204.244795)scale(0.1 -0.1)">
      <use xlink:href="#DejaVuSans-52"/>
     </g>
    </g>
   </g>
   <g id="xtick_13">
    <g id="line2d_16">
     <path d="M 351.962054 185.660344 
L 355.550401 186.675007 
" style="fill:none;stroke:#000000;stroke-linecap:square;stroke-width:0.8;"/>
    </g>
    <g id="text_15">
     <!-- 6 -->
     <g transform="translate(368.394153 191.03758)scale(0.1 -0.1)">
      <defs>
       <path d="M 33.015625 40.375 
Q 26.375 40.375 22.484375 35.828125 
Q 18.609375 31.296875 18.609375 23.390625 
Q 18.609375 15.53125 22.484375 10.953125 
Q 26.375 6.390625 33.015625 6.390625 
Q 39.65625 6.390625 43.53125 10.953125 
Q 47.40625 15.53125 47.40625 23.390625 
Q 47.40625 31.296875 43.53125 35.828125 
Q 39.65625 40.375 33.015625 40.375 
z
M 52.59375 71.296875 
L 52.59375 62.3125 
Q 48.875 64.0625 45.09375 64.984375 
Q 41.3125 65.921875 37.59375 65.921875 
Q 27.828125 65.921875 22.671875 59.328125 
Q 17.53125 52.734375 16.796875 39.40625 
Q 19.671875 43.65625 24.015625 45.921875 
Q 28.375 48.1875 33.59375 48.1875 
Q 44.578125 48.1875 50.953125 41.515625 
Q 57.328125 34.859375 57.328125 23.390625 
Q 57.328125 12.15625 50.6875 5.359375 
Q 44.046875 -1.421875 33.015625 -1.421875 
Q 20.359375 -1.421875 13.671875 8.265625 
Q 6.984375 17.96875 6.984375 36.375 
Q 6.984375 53.65625 15.1875 63.9375 
Q 23.390625 74.21875 37.203125 74.21875 
Q 40.921875 74.21875 44.703125 73.484375 
Q 48.484375 72.75 52.59375 71.296875 
z
" id="DejaVuSans-54"/>
      </defs>
      <use xlink:href="#DejaVuSans-54"/>
     </g>
    </g>
   </g>
   <g id="xtick_14">
    <g id="line2d_17">
     <path d="M 352.567899 172.287513 
L 356.176375 173.291521 
" style="fill:none;stroke:#000000;stroke-linecap:square;stroke-width:0.8;"/>
    </g>
    <g id="text_16">
     <!-- 8 -->
     <g transform="translate(369.104016 177.68812)scale(0.1 -0.1)">
      <defs>
       <path d="M 31.78125 34.625 
Q 24.75 34.625 20.71875 30.859375 
Q 16.703125 27.09375 16.703125 20.515625 
Q 16.703125 13.921875 20.71875 10.15625 
Q 24.75 6.390625 31.78125 6.390625 
Q 38.8125 6.390625 42.859375 10.171875 
Q 46.921875 13.96875 46.921875 20.515625 
Q 46.921875 27.09375 42.890625 30.859375 
Q 38.875 34.625 31.78125 34.625 
z
M 21.921875 38.8125 
Q 15.578125 40.375 12.03125 44.71875 
Q 8.5 49.078125 8.5 55.328125 
Q 8.5 64.0625 14.71875 69.140625 
Q 20.953125 74.21875 31.78125 74.21875 
Q 42.671875 74.21875 48.875 69.140625 
Q 55.078125 64.0625 55.078125 55.328125 
Q 55.078125 49.078125 51.53125 44.71875 
Q 48 40.375 41.703125 38.8125 
Q 48.828125 37.15625 52.796875 32.3125 
Q 56.78125 27.484375 56.78125 20.515625 
Q 56.78125 9.90625 50.3125 4.234375 
Q 43.84375 -1.421875 31.78125 -1.421875 
Q 19.734375 -1.421875 13.25 4.234375 
Q 6.78125 9.90625 6.78125 20.515625 
Q 6.78125 27.484375 10.78125 32.3125 
Q 14.796875 37.15625 21.921875 38.8125 
z
M 18.3125 54.390625 
Q 18.3125 48.734375 21.84375 45.5625 
Q 25.390625 42.390625 31.78125 42.390625 
Q 38.140625 42.390625 41.71875 45.5625 
Q 45.3125 48.734375 45.3125 54.390625 
Q 45.3125 60.0625 41.71875 63.234375 
Q 38.140625 66.40625 31.78125 66.40625 
Q 25.390625 66.40625 21.84375 63.234375 
Q 18.3125 60.0625 18.3125 54.390625 
z
" id="DejaVuSans-56"/>
      </defs>
      <use xlink:href="#DejaVuSans-56"/>
     </g>
    </g>
   </g>
   <g id="xtick_15">
    <g id="line2d_18">
     <path d="M 353.18032 158.769488 
L 356.809153 159.762548 
" style="fill:none;stroke:#000000;stroke-linecap:square;stroke-width:0.8;"/>
    </g>
    <g id="text_17">
     <!-- 10 -->
     <g transform="translate(366.640317 164.194105)scale(0.1 -0.1)">
      <use xlink:href="#DejaVuSans-49"/>
      <use x="63.623047" xlink:href="#DejaVuSans-48"/>
     </g>
    </g>
   </g>
   <g id="xtick_16">
    <g id="line2d_19">
     <path d="M 353.799428 145.103891 
L 357.448848 146.085703 
" style="fill:none;stroke:#000000;stroke-linecap:square;stroke-width:0.8;"/>
    </g>
    <g id="text_18">
     <!-- 12 -->
     <g transform="translate(367.36568 150.553173)scale(0.1 -0.1)">
      <use xlink:href="#DejaVuSans-49"/>
      <use x="63.623047" xlink:href="#DejaVuSans-50"/>
     </g>
    </g>
   </g>
   <g id="xtick_17">
    <g id="line2d_20">
     <path d="M 354.425331 131.288292 
L 358.095573 132.25855 
" style="fill:none;stroke:#000000;stroke-linecap:square;stroke-width:0.8;"/>
    </g>
    <g id="text_19">
     <!-- 14 -->
     <g transform="translate(368.098983 136.762913)scale(0.1 -0.1)">
      <use xlink:href="#DejaVuSans-49"/>
      <use x="63.623047" xlink:href="#DejaVuSans-52"/>
     </g>
    </g>
   </g>
   <g id="xtick_18">
    <g id="line2d_21">
     <path d="M 355.058143 117.320208 
L 358.749444 118.278595 
" style="fill:none;stroke:#000000;stroke-linecap:square;stroke-width:0.8;"/>
    </g>
    <g id="text_20">
     <!-- 16 -->
     <g transform="translate(368.840359 122.820858)scale(0.1 -0.1)">
      <use xlink:href="#DejaVuSans-49"/>
      <use x="63.623047" xlink:href="#DejaVuSans-54"/>
     </g>
    </g>
   </g>
   <g id="xtick_19">
    <g id="line2d_22">
     <path d="M 355.697977 103.1971 
L 359.410582 104.143293 
" style="fill:none;stroke:#000000;stroke-linecap:square;stroke-width:0.8;"/>
    </g>
    <g id="text_21">
     <!-- 18 -->
     <g transform="translate(369.58994 108.724489)scale(0.1 -0.1)">
      <use xlink:href="#DejaVuSans-49"/>
      <use x="63.623047" xlink:href="#DejaVuSans-56"/>
     </g>
    </g>
   </g>
  </g>
  <g id="axes_1">
   <g id="Poly3DCollection_1">
    <path clip-path="url(#pb88f8c3919)" d="M 249.469284 182.693054 
L 246.47084 182.909999 
L 268.140383 191.660091 
z
" style="fill:#3b4cc0;"/>
    <path clip-path="url(#pb88f8c3919)" d="M 204.404215 179.735462 
L 246.47084 182.909999 
L 249.469284 182.693054 
z
" style="fill:#485fd1;"/>
    <path clip-path="url(#pb88f8c3919)" d="M 249.469284 182.693054 
L 197.9067 187.139481 
L 204.404215 179.735462 
z
" style="fill:#445acc;"/>
    <path clip-path="url(#pb88f8c3919)" d="M 249.469284 182.693054 
L 268.140383 191.660091 
L 289.923301 190.692723 
z
" style="fill:#3f53c6;"/>
    <path clip-path="url(#pb88f8c3919)" d="M 197.9067 187.139481 
L 192.31314 186.553519 
L 204.404215 179.735462 
z
" style="fill:#4961d2;"/>
    <path clip-path="url(#pb88f8c3919)" d="M 289.923301 190.692723 
L 293.378284 190.838914 
L 249.469284 182.693054 
z
" style="fill:#465ecf;"/>
    <path clip-path="url(#pb88f8c3919)" d="M 246.47084 182.909999 
L 236.962227 175.314715 
L 268.140383 191.660091 
z
" style="fill:#536edd;"/>
    <path clip-path="url(#pb88f8c3919)" d="M 204.404215 179.735462 
L 192.31314 186.553519 
L 189.788233 188.34476 
z
" style="fill:#4f69d9;"/>
    <path clip-path="url(#pb88f8c3919)" d="M 223.119002 170.018881 
L 246.47084 182.909999 
L 204.404215 179.735462 
z
" style="fill:#688aef;"/>
    <path clip-path="url(#pb88f8c3919)" d="M 189.788233 188.34476 
L 203.676657 176.458655 
L 204.404215 179.735462 
z
" style="fill:#6384eb;"/>
    <path clip-path="url(#pb88f8c3919)" d="M 236.962227 175.314715 
L 246.47084 182.909999 
L 223.119002 170.018881 
z
" style="fill:#7396f5;"/>
    <path clip-path="url(#pb88f8c3919)" d="M 289.923301 190.692723 
L 268.140383 191.660091 
L 261.834862 173.830744 
z
" style="fill:#5e7de7;"/>
    <path clip-path="url(#pb88f8c3919)" d="M 216.252828 166.835535 
L 204.404215 179.735462 
L 203.676657 176.458655 
z
" style="fill:#86a9fc;"/>
    <path clip-path="url(#pb88f8c3919)" d="M 223.119002 170.018881 
L 204.404215 179.735462 
L 216.252828 166.835535 
z
" style="fill:#8fb1fe;"/>
    <path clip-path="url(#pb88f8c3919)" d="M 236.962227 175.314715 
L 252.518998 157.048427 
L 268.140383 191.660091 
z
" style="fill:#88abfd;"/>
    <path clip-path="url(#pb88f8c3919)" d="M 194.30477 197.07076 
L 203.676657 176.458655 
L 189.788233 188.34476 
z
" style="fill:#6788ee;"/>
    <path clip-path="url(#pb88f8c3919)" d="M 268.140383 191.660091 
L 252.518998 157.048427 
L 261.834862 173.830744 
z
" style="fill:#8db0fe;"/>
    <path clip-path="url(#pb88f8c3919)" d="M 289.923301 190.692723 
L 287.158064 149.18759 
L 293.378284 190.838914 
z
" style="fill:#8badfd;"/>
    <path clip-path="url(#pb88f8c3919)" d="M 202.873033 175.492436 
L 216.252828 166.835535 
L 203.676657 176.458655 
z
" style="fill:#9dbdff;"/>
    <path clip-path="url(#pb88f8c3919)" d="M 227.826669 153.513214 
L 236.962227 175.314715 
L 223.119002 170.018881 
z
" style="fill:#afcafc;"/>
    <path clip-path="url(#pb88f8c3919)" d="M 261.834862 173.830744 
L 280.035183 144.246674 
L 289.923301 190.692723 
z
" style="fill:#a7c5fe;"/>
    <path clip-path="url(#pb88f8c3919)" d="M 223.119002 170.018881 
L 216.252828 166.835535 
L 214.588263 162.013344 
z
" style="fill:#b2ccfb;"/>
    <path clip-path="url(#pb88f8c3919)" d="M 203.676657 176.458655 
L 194.30477 197.07076 
L 202.873033 175.492436 
z
" style="fill:#86a9fc;"/>
    <path clip-path="url(#pb88f8c3919)" d="M 298.155785 165.636874 
L 312.7147 175.67853 
L 293.378284 190.838914 
z
" style="fill:#98b9ff;"/>
    <path clip-path="url(#pb88f8c3919)" d="M 293.378284 190.838914 
L 287.158064 149.18759 
L 298.155785 165.636874 
z
" style="fill:#b3cdfb;"/>
    <path clip-path="url(#pb88f8c3919)" d="M 207.430567 169.26199 
L 216.252828 166.835535 
L 202.873033 175.492436 
z
" style="fill:#afcafc;"/>
    <path clip-path="url(#pb88f8c3919)" d="M 148.487272 192.551621 
L 194.30477 197.07076 
L 189.788233 188.34476 
z
" style="fill:#7396f5;"/>
    <path clip-path="url(#pb88f8c3919)" d="M 214.588263 162.013344 
L 227.826669 153.513214 
L 223.119002 170.018881 
z
" style="fill:#c6d6f1;"/>
    <path clip-path="url(#pb88f8c3919)" d="M 214.588263 162.013344 
L 216.252828 166.835535 
L 207.430567 169.26199 
z
" style="fill:#bcd2f7;"/>
    <path clip-path="url(#pb88f8c3919)" d="M 236.962227 175.314715 
L 227.826669 153.513214 
L 228.344932 152.980165 
z
" style="fill:#cad8ef;"/>
    <path clip-path="url(#pb88f8c3919)" d="M 289.923301 190.692723 
L 280.035183 144.246674 
L 287.158064 149.18759 
z
" style="fill:#cad8ef;"/>
    <path clip-path="url(#pb88f8c3919)" d="M 202.873033 175.492436 
L 194.30477 197.07076 
L 204.785914 178.874014 
z
" style="fill:#94b6ff;"/>
    <path clip-path="url(#pb88f8c3919)" d="M 252.518998 157.048427 
L 236.962227 175.314715 
L 240.232093 136.698772 
z
" style="fill:#d7dce3;"/>
    <path clip-path="url(#pb88f8c3919)" d="M 204.785914 178.874014 
L 207.430567 169.26199 
L 202.873033 175.492436 
z
" style="fill:#afcafc;"/>
    <path clip-path="url(#pb88f8c3919)" d="M 240.232093 136.698772 
L 236.962227 175.314715 
L 228.344932 152.980165 
z
" style="fill:#dcdddd;"/>
    <path clip-path="url(#pb88f8c3919)" d="M 207.683409 171.486647 
L 214.588263 162.013344 
L 207.430567 169.26199 
z
" style="fill:#c3d5f4;"/>
    <path clip-path="url(#pb88f8c3919)" d="M 207.683409 171.486647 
L 207.430567 169.26199 
L 204.785914 178.874014 
z
" style="fill:#b7cff9;"/>
    <path clip-path="url(#pb88f8c3919)" d="M 261.834862 173.830744 
L 252.518998 157.048427 
L 254.117672 125.299485 
z
" style="fill:#e6d7cf;"/>
    <path clip-path="url(#pb88f8c3919)" d="M 207.683409 171.486647 
L 217.309838 159.255792 
L 214.588263 162.013344 
z
" style="fill:#d1dae9;"/>
    <path clip-path="url(#pb88f8c3919)" d="M 227.826669 153.513214 
L 214.588263 162.013344 
L 217.309838 159.255792 
z
" style="fill:#dddcdc;"/>
    <path clip-path="url(#pb88f8c3919)" d="M 194.30477 197.07076 
L 180.876555 227.0455 
L 204.785914 178.874014 
z
" style="fill:#7699f6;"/>
    <path clip-path="url(#pb88f8c3919)" d="M 204.785914 178.874014 
L 214.965504 164.764144 
L 207.683409 171.486647 
z
" style="fill:#c3d5f4;"/>
    <path clip-path="url(#pb88f8c3919)" d="M 227.826669 153.513214 
L 217.309838 159.255792 
L 228.344932 152.980165 
z
" style="fill:#e5d8d1;"/>
    <path clip-path="url(#pb88f8c3919)" d="M 293.171571 146.719146 
L 298.155785 165.636874 
L 287.158064 149.18759 
z
" style="fill:#e8d6cc;"/>
    <path clip-path="url(#pb88f8c3919)" d="M 264.206972 120.88602 
L 280.035183 144.246674 
L 261.834862 173.830744 
z
" style="fill:#f2c9b4;"/>
    <path clip-path="url(#pb88f8c3919)" d="M 214.965504 164.764144 
L 217.309838 159.255792 
L 207.683409 171.486647 
z
" style="fill:#d5dbe5;"/>
    <path clip-path="url(#pb88f8c3919)" d="M 312.7147 175.67853 
L 298.155785 165.636874 
L 299.341171 137.507761 
z
" style="fill:#e1dad6;"/>
    <path clip-path="url(#pb88f8c3919)" d="M 293.171571 146.719146 
L 293.688172 140.987117 
L 298.155785 165.636874 
z
" style="fill:#efcebd;"/>
    <path clip-path="url(#pb88f8c3919)" d="M 310.698763 166.500289 
L 311.507378 164.535339 
L 312.7147 175.67853 
z
" style="fill:#cfdaea;"/>
    <path clip-path="url(#pb88f8c3919)" d="M 204.785914 178.874014 
L 198.385862 226.243829 
L 214.965504 164.764144 
z
" style="fill:#9ebeff;"/>
    <path clip-path="url(#pb88f8c3919)" d="M 317.836135 184.586273 
L 312.7147 175.67853 
L 311.507378 164.535339 
z
" style="fill:#c4d5f3;"/>
    <path clip-path="url(#pb88f8c3919)" d="M 248.857717 133.193852 
L 252.518998 157.048427 
L 240.232093 136.698772 
z
" style="fill:#f7ba9f;"/>
    <path clip-path="url(#pb88f8c3919)" d="M 180.876555 227.0455 
L 194.30477 197.07076 
L 148.487272 192.551621 
z
" style="fill:#7699f6;"/>
    <path clip-path="url(#pb88f8c3919)" d="M 228.344932 152.980165 
L 217.309838 159.255792 
L 227.175873 145.586866 
z
" style="fill:#efcebd;"/>
    <path clip-path="url(#pb88f8c3919)" d="M 180.876555 227.0455 
L 198.385862 226.243829 
L 204.785914 178.874014 
z
" style="fill:#6b8df0;"/>
    <path clip-path="url(#pb88f8c3919)" d="M 312.7147 175.67853 
L 299.341171 137.507761 
L 310.698763 166.500289 
z
" style="fill:#e5d8d1;"/>
    <path clip-path="url(#pb88f8c3919)" d="M 254.117672 125.299485 
L 259.078085 118.024913 
L 261.834862 173.830744 
z
" style="fill:#f7b093;"/>
    <path clip-path="url(#pb88f8c3919)" d="M 248.857717 133.193852 
L 254.117672 125.299485 
L 252.518998 157.048427 
z
" style="fill:#f7ad90;"/>
    <path clip-path="url(#pb88f8c3919)" d="M 228.344932 152.980165 
L 227.175873 145.586866 
L 240.232093 136.698772 
z
" style="fill:#f6bda2;"/>
    <path clip-path="url(#pb88f8c3919)" d="M 217.309838 159.255792 
L 214.965504 164.764144 
L 227.175873 145.586866 
z
" style="fill:#edd2c3;"/>
    <path clip-path="url(#pb88f8c3919)" d="M 293.688172 140.987117 
L 299.341171 137.507761 
L 298.155785 165.636874 
z
" style="fill:#f5c2aa;"/>
    <path clip-path="url(#pb88f8c3919)" d="M 259.078085 118.024913 
L 264.206972 120.88602 
L 261.834862 173.830744 
z
" style="fill:#f7aa8c;"/>
    <path clip-path="url(#pb88f8c3919)" d="M 287.158064 149.18759 
L 290.127419 131.103351 
L 293.171571 146.719146 
z
" style="fill:#f7b497;"/>
    <path clip-path="url(#pb88f8c3919)" d="M 198.385862 226.243829 
L 227.175873 145.586866 
L 214.965504 164.764144 
z
" style="fill:#c4d5f3;"/>
    <path clip-path="url(#pb88f8c3919)" d="M 311.507378 164.535339 
L 313.853627 185.404861 
L 317.836135 184.586273 
z
" style="fill:#c6d6f1;"/>
    <path clip-path="url(#pb88f8c3919)" d="M 287.158064 149.18759 
L 280.035183 144.246674 
L 282.211717 119.83155 
z
" style="fill:#f6a586;"/>
    <path clip-path="url(#pb88f8c3919)" d="M 290.127419 131.103351 
L 293.688172 140.987117 
L 293.171571 146.719146 
z
" style="fill:#f7a889;"/>
    <path clip-path="url(#pb88f8c3919)" d="M 304.909609 150.330026 
L 311.507378 164.535339 
L 310.698763 166.500289 
z
" style="fill:#ebd3c6;"/>
    <path clip-path="url(#pb88f8c3919)" d="M 311.603075 224.549595 
L 317.836135 184.586273 
L 313.853627 185.404861 
z
" style="fill:#97b8ff;"/>
    <path clip-path="url(#pb88f8c3919)" d="M 180.876555 227.0455 
L 148.487272 192.551621 
L 147.585385 191.407991 
z
" style="fill:#8db0fe;"/>
    <path clip-path="url(#pb88f8c3919)" d="M 313.853627 185.404861 
L 312.227861 187.039982 
L 311.603075 224.549595 
z
" style="fill:#9abbff;"/>
    <path clip-path="url(#pb88f8c3919)" d="M 147.024065 190.87541 
L 180.876555 227.0455 
L 147.585385 191.407991 
z
" style="fill:#90b2fe;"/>
    <path clip-path="url(#pb88f8c3919)" d="M 240.232093 136.698772 
L 227.175873 145.586866 
L 232.378187 137.791617 
z
" style="fill:#f6a283;"/>
    <path clip-path="url(#pb88f8c3919)" d="M 302.346405 142.964152 
L 310.698763 166.500289 
L 299.341171 137.507761 
z
" style="fill:#f7b99e;"/>
    <path clip-path="url(#pb88f8c3919)" d="M 287.158064 149.18759 
L 282.211717 119.83155 
L 290.127419 131.103351 
z
" style="fill:#f18d6f;"/>
    <path clip-path="url(#pb88f8c3919)" d="M 304.909609 150.330026 
L 313.853627 185.404861 
L 311.507378 164.535339 
z
" style="fill:#e5d8d1;"/>
    <path clip-path="url(#pb88f8c3919)" d="M 304.909609 150.330026 
L 310.698763 166.500289 
L 302.346405 142.964152 
z
" style="fill:#f5c2aa;"/>
    <path clip-path="url(#pb88f8c3919)" d="M 228.253915 182.314359 
L 227.175873 145.586866 
L 198.385862 226.243829 
z
" style="fill:#c0d4f5;"/>
    <path clip-path="url(#pb88f8c3919)" d="M 146.400536 190.462968 
L 180.876555 227.0455 
L 147.024065 190.87541 
z
" style="fill:#93b5fe;"/>
    <path clip-path="url(#pb88f8c3919)" d="M 280.035183 144.246674 
L 264.206972 120.88602 
L 270.303031 120.632952 
z
" style="fill:#ea7b60;"/>
    <path clip-path="url(#pb88f8c3919)" d="M 240.232093 136.698772 
L 238.549217 128.272437 
L 248.857717 133.193852 
z
" style="fill:#ef886b;"/>
    <path clip-path="url(#pb88f8c3919)" d="M 146.400536 190.462968 
L 145.687804 190.242995 
L 180.876555 227.0455 
z
" style="fill:#94b6ff;"/>
    <path clip-path="url(#pb88f8c3919)" d="M 313.853627 185.404861 
L 304.909609 150.330026 
L 312.227861 187.039982 
z
" style="fill:#d8dce2;"/>
    <path clip-path="url(#pb88f8c3919)" d="M 180.876555 227.0455 
L 145.687804 190.242995 
L 145.508571 190.232548 
z
" style="fill:#96b7ff;"/>
    <path clip-path="url(#pb88f8c3919)" d="M 145.508571 190.232548 
L 145.413201 190.234614 
L 180.876555 227.0455 
z
" style="fill:#96b7ff;"/>
    <path clip-path="url(#pb88f8c3919)" d="M 198.385862 226.243829 
L 180.876555 227.0455 
L 223.732721 232.357192 
z
" style="fill:#5470de;"/>
    <path clip-path="url(#pb88f8c3919)" d="M 145.413201 190.234614 
L 144.546604 190.505583 
L 180.876555 227.0455 
z
" style="fill:#96b7ff;"/>
    <path clip-path="url(#pb88f8c3919)" d="M 198.385862 226.243829 
L 223.831605 201.78337 
L 228.253915 182.314359 
z
" style="fill:#94b6ff;"/>
    <path clip-path="url(#pb88f8c3919)" d="M 295.146029 130.263959 
L 293.688172 140.987117 
L 290.127419 131.103351 
z
" style="fill:#f08a6c;"/>
    <path clip-path="url(#pb88f8c3919)" d="M 311.603075 224.549595 
L 312.227861 187.039982 
L 295.300424 203.630164 
z
" style="fill:#92b4fe;"/>
    <path clip-path="url(#pb88f8c3919)" d="M 144.546604 190.505583 
L 142.310198 193.489033 
L 180.876555 227.0455 
z
" style="fill:#96b7ff;"/>
    <path clip-path="url(#pb88f8c3919)" d="M 299.341171 137.507761 
L 293.688172 140.987117 
L 295.146029 130.263959 
z
" style="fill:#f18f71;"/>
    <path clip-path="url(#pb88f8c3919)" d="M 227.175873 145.586866 
L 228.253915 182.314359 
L 232.378187 137.791617 
z
" style="fill:#f5c1a9;"/>
    <path clip-path="url(#pb88f8c3919)" d="M 232.378187 137.791617 
L 238.549217 128.272437 
L 240.232093 136.698772 
z
" style="fill:#ee8669;"/>
    <path clip-path="url(#pb88f8c3919)" d="M 180.876555 227.0455 
L 142.310198 193.489033 
L 141.987337 194.208512 
z
" style="fill:#94b6ff;"/>
    <path clip-path="url(#pb88f8c3919)" d="M 246.824444 118.654453 
L 254.117672 125.299485 
L 248.857717 133.193852 
z
" style="fill:#e26952;"/>
    <path clip-path="url(#pb88f8c3919)" d="M 180.876555 227.0455 
L 141.987337 194.208512 
L 141.626628 195.100328 
z
" style="fill:#93b5fe;"/>
    <path clip-path="url(#pb88f8c3919)" d="M 141.626628 195.100328 
L 141.613776 195.133814 
L 180.876555 227.0455 
z
" style="fill:#92b4fe;"/>
    <path clip-path="url(#pb88f8c3919)" d="M 270.303031 120.632952 
L 274.12489 113.326602 
L 280.035183 144.246674 
z
" style="fill:#e36b54;"/>
    <path clip-path="url(#pb88f8c3919)" d="M 138.766479 205.299215 
L 180.876555 227.0455 
L 140.562851 198.26532 
z
" style="fill:#86a9fc;"/>
    <path clip-path="url(#pb88f8c3919)" d="M 141.613776 195.133814 
L 140.562851 198.26532 
L 180.876555 227.0455 
z
" style="fill:#8fb1fe;"/>
    <path clip-path="url(#pb88f8c3919)" d="M 223.732721 232.357192 
L 223.831605 201.78337 
L 198.385862 226.243829 
z
" style="fill:#6e90f2;"/>
    <path clip-path="url(#pb88f8c3919)" d="M 274.12489 113.326602 
L 282.211717 119.83155 
L 280.035183 144.246674 
z
" style="fill:#e16751;"/>
    <path clip-path="url(#pb88f8c3919)" d="M 295.300424 203.630164 
L 293.842093 211.446158 
L 311.603075 224.549595 
z
" style="fill:#81a4fb;"/>
    <path clip-path="url(#pb88f8c3919)" d="M 304.909609 150.330026 
L 297.623667 155.536134 
L 312.227861 187.039982 
z
" style="fill:#efcebd;"/>
    <path clip-path="url(#pb88f8c3919)" d="M 238.549217 128.272437 
L 246.824444 118.654453 
L 248.857717 133.193852 
z
" style="fill:#e16751;"/>
    <path clip-path="url(#pb88f8c3919)" d="M 302.346405 142.964152 
L 302.10384 142.851281 
L 304.909609 150.330026 
z
" style="fill:#f6a385;"/>
    <path clip-path="url(#pb88f8c3919)" d="M 267.6826 118.230688 
L 270.303031 120.632952 
L 264.206972 120.88602 
z
" style="fill:#d1493f;"/>
    <path clip-path="url(#pb88f8c3919)" d="M 312.227861 187.039982 
L 297.623667 155.536134 
L 295.300424 203.630164 
z
" style="fill:#d2dbe8;"/>
    <path clip-path="url(#pb88f8c3919)" d="M 228.253915 182.314359 
L 233.564793 149.554242 
L 232.378187 137.791617 
z
" style="fill:#f6bda2;"/>
    <path clip-path="url(#pb88f8c3919)" d="M 264.206972 120.88602 
L 266.642563 117.848128 
L 267.6826 118.230688 
z
" style="fill:#cd423b;"/>
    <path clip-path="url(#pb88f8c3919)" d="M 299.341171 137.507761 
L 295.146029 130.263959 
L 295.901932 131.220533 
z
" style="fill:#e97a5f;"/>
    <path clip-path="url(#pb88f8c3919)" d="M 302.346405 142.964152 
L 299.341171 137.507761 
L 298.221009 139.488159 
z
" style="fill:#f29072;"/>
    <path clip-path="url(#pb88f8c3919)" d="M 223.831605 201.78337 
L 240.863021 158.885467 
L 228.253915 182.314359 
z
" style="fill:#d5dbe5;"/>
    <path clip-path="url(#pb88f8c3919)" d="M 259.078085 118.024913 
L 254.117672 125.299485 
L 253.362662 114.143223 
z
" style="fill:#cd423b;"/>
    <path clip-path="url(#pb88f8c3919)" d="M 302.10384 142.851281 
L 298.827658 141.087745 
L 304.909609 150.330026 
z
" style="fill:#f59d7e;"/>
    <path clip-path="url(#pb88f8c3919)" d="M 298.221009 139.488159 
L 302.10384 142.851281 
L 302.346405 142.964152 
z
" style="fill:#f39475;"/>
    <path clip-path="url(#pb88f8c3919)" d="M 298.221009 139.488159 
L 299.341171 137.507761 
L 295.901932 131.220533 
z
" style="fill:#ec8165;"/>
    <path clip-path="url(#pb88f8c3919)" d="M 293.842093 211.446158 
L 295.300424 203.630164 
L 292.205878 204.278692 
z
" style="fill:#9abbff;"/>
    <path clip-path="url(#pb88f8c3919)" d="M 280.991265 117.048821 
L 290.127419 131.103351 
L 282.211717 119.83155 
z
" style="fill:#d55042;"/>
    <path clip-path="url(#pb88f8c3919)" d="M 238.250518 129.641253 
L 238.549217 128.272437 
L 232.378187 137.791617 
z
" style="fill:#e67259;"/>
    <path clip-path="url(#pb88f8c3919)" d="M 232.378187 137.791617 
L 233.564793 149.554242 
L 238.250518 129.641253 
z
" style="fill:#f08a6c;"/>
    <path clip-path="url(#pb88f8c3919)" d="M 253.362662 114.143223 
L 254.117672 125.299485 
L 246.824444 118.654453 
z
" style="fill:#cb3e38;"/>
    <path clip-path="url(#pb88f8c3919)" d="M 236.193912 146.986917 
L 233.564793 149.554242 
L 228.253915 182.314359 
z
" style="fill:#f5c0a7;"/>
    <path clip-path="url(#pb88f8c3919)" d="M 297.623667 155.536134 
L 304.909609 150.330026 
L 298.827658 141.087745 
z
" style="fill:#f6a586;"/>
    <path clip-path="url(#pb88f8c3919)" d="M 274.12489 113.326602 
L 270.303031 120.632952 
L 267.6826 118.230688 
z
" style="fill:#c53334;"/>
    <path clip-path="url(#pb88f8c3919)" d="M 290.127419 131.103351 
L 283.931832 126.133454 
L 295.146029 130.263959 
z
" style="fill:#e0654f;"/>
    <path clip-path="url(#pb88f8c3919)" d="M 298.221009 139.488159 
L 298.827658 141.087745 
L 302.10384 142.851281 
z
" style="fill:#f18d6f;"/>
    <path clip-path="url(#pb88f8c3919)" d="M 223.831605 201.78337 
L 223.732721 232.357192 
L 240.863021 158.885467 
z
" style="fill:#b5cdfa;"/>
    <path clip-path="url(#pb88f8c3919)" d="M 236.193912 146.986917 
L 228.253915 182.314359 
L 237.456377 146.064022 
z
" style="fill:#f7bca1;"/>
    <path clip-path="url(#pb88f8c3919)" d="M 295.300424 203.630164 
L 290.595956 161.1297 
L 292.205878 204.278692 
z
" style="fill:#c7d7f0;"/>
    <path clip-path="url(#pb88f8c3919)" d="M 257.545234 112.427313 
L 264.206972 120.88602 
L 259.078085 118.024913 
z
" style="fill:#c32e31;"/>
    <path clip-path="url(#pb88f8c3919)" d="M 228.253915 182.314359 
L 240.863021 158.885467 
L 237.456377 146.064022 
z
" style="fill:#f5c4ac;"/>
    <path clip-path="url(#pb88f8c3919)" d="M 266.642563 117.848128 
L 264.206972 120.88602 
L 257.545234 112.427313 
z
" style="fill:#c32e31;"/>
    <path clip-path="url(#pb88f8c3919)" d="M 292.205878 204.278692 
L 268.088221 212.610059 
L 293.842093 211.446158 
z
" style="fill:#97b8ff;"/>
    <path clip-path="url(#pb88f8c3919)" d="M 238.250518 129.641253 
L 233.564793 149.554242 
L 236.193912 146.986917 
z
" style="fill:#f18d6f;"/>
    <path clip-path="url(#pb88f8c3919)" d="M 238.549217 128.272437 
L 238.250518 129.641253 
L 242.266002 123.764426 
z
" style="fill:#d95847;"/>
    <path clip-path="url(#pb88f8c3919)" d="M 290.595956 161.1297 
L 295.300424 203.630164 
L 297.623667 155.536134 
z
" style="fill:#e9d5cb;"/>
    <path clip-path="url(#pb88f8c3919)" d="M 290.127419 131.103351 
L 280.991265 117.048821 
L 283.931832 126.133454 
z
" style="fill:#d44e41;"/>
    <path clip-path="url(#pb88f8c3919)" d="M 246.824444 118.654453 
L 238.549217 128.272437 
L 242.266002 123.764426 
z
" style="fill:#d1493f;"/>
    <path clip-path="url(#pb88f8c3919)" d="M 298.221009 139.488159 
L 297.623667 155.536134 
L 298.827658 141.087745 
z
" style="fill:#f39778;"/>
    <path clip-path="url(#pb88f8c3919)" d="M 295.901932 131.220533 
L 295.146029 130.263959 
L 284.749738 128.106582 
z
" style="fill:#de614d;"/>
    <path clip-path="url(#pb88f8c3919)" d="M 242.266002 123.764426 
L 238.250518 129.641253 
L 236.193912 146.986917 
z
" style="fill:#e46e56;"/>
    <path clip-path="url(#pb88f8c3919)" d="M 253.026121 113.525661 
L 259.078085 118.024913 
L 253.362662 114.143223 
z
" style="fill:#ba162b;"/>
    <path clip-path="url(#pb88f8c3919)" d="M 267.6826 118.230688 
L 266.642563 117.848128 
L 262.073311 118.645054 
z
" style="fill:#c32e31;"/>
    <path clip-path="url(#pb88f8c3919)" d="M 290.595956 161.1297 
L 297.623667 155.536134 
L 298.221009 139.488159 
z
" style="fill:#f7a889;"/>
    <path clip-path="url(#pb88f8c3919)" d="M 277.724965 184.052497 
L 292.205878 204.278692 
L 290.595956 161.1297 
z
" style="fill:#d9dce1;"/>
    <path clip-path="url(#pb88f8c3919)" d="M 237.456377 146.064022 
L 242.266002 123.764426 
L 236.193912 146.986917 
z
" style="fill:#ec7f63;"/>
    <path clip-path="url(#pb88f8c3919)" d="M 282.211717 119.83155 
L 274.12489 113.326602 
L 280.991265 117.048821 
z
" style="fill:#bd1f2d;"/>
    <path clip-path="url(#pb88f8c3919)" d="M 272.155932 201.332973 
L 292.205878 204.278692 
L 277.724965 184.052497 
z
" style="fill:#bcd2f7;"/>
    <path clip-path="url(#pb88f8c3919)" d="M 295.901932 131.220533 
L 284.749738 128.106582 
L 298.221009 139.488159 
z
" style="fill:#e36b54;"/>
    <path clip-path="url(#pb88f8c3919)" d="M 272.155932 201.332973 
L 268.088221 212.610059 
L 292.205878 204.278692 
z
" style="fill:#a5c3fe;"/>
    <path clip-path="url(#pb88f8c3919)" d="M 240.863021 158.885467 
L 223.732721 232.357192 
L 226.373831 231.123284 
z
" style="fill:#a2c1ff;"/>
    <path clip-path="url(#pb88f8c3919)" d="M 253.505039 113.507357 
L 259.078085 118.024913 
L 253.026121 113.525661 
z
" style="fill:#b70d28;"/>
    <path clip-path="url(#pb88f8c3919)" d="M 246.824444 118.654453 
L 253.026121 113.525661 
L 253.362662 114.143223 
z
" style="fill:#b8122a;"/>
    <path clip-path="url(#pb88f8c3919)" d="M 288.430717 155.317631 
L 290.595956 161.1297 
L 298.221009 139.488159 
z
" style="fill:#f6a586;"/>
    <path clip-path="url(#pb88f8c3919)" d="M 245.811663 122.27087 
L 246.824444 118.654453 
L 242.266002 123.764426 
z
" style="fill:#c83836;"/>
    <path clip-path="url(#pb88f8c3919)" d="M 180.876555 227.0455 
L 138.766479 205.299215 
L 235.151534 256.600514 
z
" style="fill:#6a8bef;"/>
    <path clip-path="url(#pb88f8c3919)" d="M 311.603075 224.549595 
L 293.842093 211.446158 
L 271.139387 247.825382 
z
" style="fill:#6f92f3;"/>
    <path clip-path="url(#pb88f8c3919)" d="M 255.114476 180.1696 
L 240.863021 158.885467 
L 226.373831 231.123284 
z
" style="fill:#cdd9ec;"/>
    <path clip-path="url(#pb88f8c3919)" d="M 244.032094 141.330408 
L 237.456377 146.064022 
L 240.863021 158.885467 
z
" style="fill:#f59c7d;"/>
    <path clip-path="url(#pb88f8c3919)" d="M 245.811663 122.27087 
L 242.266002 123.764426 
L 237.456377 146.064022 
z
" style="fill:#dd5f4b;"/>
    <path clip-path="url(#pb88f8c3919)" d="M 226.373831 231.123284 
L 256.865765 196.683049 
L 255.114476 180.1696 
z
" style="fill:#b1cbfc;"/>
    <path clip-path="url(#pb88f8c3919)" d="M 246.824444 118.654453 
L 245.811663 122.27087 
L 253.026121 113.525661 
z
" style="fill:#be242e;"/>
    <path clip-path="url(#pb88f8c3919)" d="M 257.545234 112.427313 
L 259.078085 118.024913 
L 253.505039 113.507357 
z
" style="fill:#b40426;"/>
    <path clip-path="url(#pb88f8c3919)" d="M 267.6826 118.230688 
L 262.073311 118.645054 
L 274.12489 113.326602 
z
" style="fill:#ba162b;"/>
    <path clip-path="url(#pb88f8c3919)" d="M 244.032094 141.330408 
L 240.863021 158.885467 
L 255.114476 180.1696 
z
" style="fill:#f7b89c;"/>
    <path clip-path="url(#pb88f8c3919)" d="M 290.595956 161.1297 
L 288.430717 155.317631 
L 277.724965 184.052497 
z
" style="fill:#f3c7b1;"/>
    <path clip-path="url(#pb88f8c3919)" d="M 256.865765 196.683049 
L 257.795229 211.933065 
L 272.155932 201.332973 
z
" style="fill:#b1cbfc;"/>
    <path clip-path="url(#pb88f8c3919)" d="M 245.811663 122.27087 
L 237.456377 146.064022 
L 244.032094 141.330408 
z
" style="fill:#e57058;"/>
    <path clip-path="url(#pb88f8c3919)" d="M 298.221009 139.488159 
L 284.749738 128.106582 
L 288.430717 155.317631 
z
" style="fill:#ec7f63;"/>
    <path clip-path="url(#pb88f8c3919)" d="M 295.146029 130.263959 
L 283.931832 126.133454 
L 284.749738 128.106582 
z
" style="fill:#d55042;"/>
    <path clip-path="url(#pb88f8c3919)" d="M 272.155932 201.332973 
L 257.795229 211.933065 
L 268.088221 212.610059 
z
" style="fill:#a3c2fe;"/>
    <path clip-path="url(#pb88f8c3919)" d="M 277.724965 184.052497 
L 271.170787 164.431975 
L 272.155932 201.332973 
z
" style="fill:#dddcdc;"/>
    <path clip-path="url(#pb88f8c3919)" d="M 255.114476 180.1696 
L 256.865765 196.683049 
L 271.170787 164.431975 
z
" style="fill:#e2dad5;"/>
    <path clip-path="url(#pb88f8c3919)" d="M 272.155932 201.332973 
L 271.170787 164.431975 
L 256.865765 196.683049 
z
" style="fill:#d5dbe5;"/>
    <path clip-path="url(#pb88f8c3919)" d="M 223.732721 232.357192 
L 180.876555 227.0455 
L 235.151534 256.600514 
z
" style="fill:#5875e1;"/>
    <path clip-path="url(#pb88f8c3919)" d="M 277.724965 184.052497 
L 288.430717 155.317631 
L 271.170787 164.431975 
z
" style="fill:#f3c7b1;"/>
    <path clip-path="url(#pb88f8c3919)" d="M 257.545234 112.427313 
L 262.073311 118.645054 
L 266.642563 117.848128 
z
" style="fill:#b50927;"/>
    <path clip-path="url(#pb88f8c3919)" d="M 280.991265 117.048821 
L 274.12489 113.326602 
L 272.961666 120.808737 
z
" style="fill:#b70d28;"/>
    <path clip-path="url(#pb88f8c3919)" d="M 253.505039 113.507357 
L 253.026121 113.525661 
L 245.811663 122.27087 
z
" style="fill:#b50927;"/>
    <path clip-path="url(#pb88f8c3919)" d="M 253.505039 113.507357 
L 245.811663 122.27087 
L 244.032094 141.330408 
z
" style="fill:#cd423b;"/>
    <path clip-path="url(#pb88f8c3919)" d="M 288.430717 155.317631 
L 284.749738 128.106582 
L 271.170787 164.431975 
z
" style="fill:#f39778;"/>
    <path clip-path="url(#pb88f8c3919)" d="M 266.028221 139.013091 
L 255.114476 180.1696 
L 271.170787 164.431975 
z
" style="fill:#f7b79b;"/>
    <path clip-path="url(#pb88f8c3919)" d="M 244.032094 141.330408 
L 255.114476 180.1696 
L 262.073311 118.645054 
z
" style="fill:#f18d6f;"/>
    <path clip-path="url(#pb88f8c3919)" d="M 283.931832 126.133454 
L 280.991265 117.048821 
L 276.860769 124.933499 
z
" style="fill:#c43032;"/>
    <path clip-path="url(#pb88f8c3919)" d="M 244.032094 141.330408 
L 257.545234 112.427313 
L 253.505039 113.507357 
z
" style="fill:#c43032;"/>
    <path clip-path="url(#pb88f8c3919)" d="M 272.961666 120.808737 
L 276.860769 124.933499 
L 280.991265 117.048821 
z
" style="fill:#be242e;"/>
    <path clip-path="url(#pb88f8c3919)" d="M 271.170787 164.431975 
L 284.749738 128.106582 
L 283.931832 126.133454 
z
" style="fill:#e7745b;"/>
    <path clip-path="url(#pb88f8c3919)" d="M 264.905318 134.745204 
L 255.114476 180.1696 
L 266.028221 139.013091 
z
" style="fill:#f49a7b;"/>
    <path clip-path="url(#pb88f8c3919)" d="M 262.073311 118.645054 
L 255.114476 180.1696 
L 264.905318 134.745204 
z
" style="fill:#ed8366;"/>
    <path clip-path="url(#pb88f8c3919)" d="M 283.931832 126.133454 
L 276.860769 124.933499 
L 271.170787 164.431975 
z
" style="fill:#e46e56;"/>
    <path clip-path="url(#pb88f8c3919)" d="M 262.073311 118.645054 
L 257.545234 112.427313 
L 244.032094 141.330408 
z
" style="fill:#c53334;"/>
    <path clip-path="url(#pb88f8c3919)" d="M 271.170787 164.431975 
L 270.69723 139.084764 
L 266.028221 139.013091 
z
" style="fill:#f18d6f;"/>
    <path clip-path="url(#pb88f8c3919)" d="M 272.961666 120.808737 
L 274.12489 113.326602 
L 262.073311 118.645054 
z
" style="fill:#b40426;"/>
    <path clip-path="url(#pb88f8c3919)" d="M 271.170787 164.431975 
L 276.860769 124.933499 
L 270.69723 139.084764 
z
" style="fill:#eb7d62;"/>
    <path clip-path="url(#pb88f8c3919)" d="M 226.373831 231.123284 
L 240.534658 231.831398 
L 256.865765 196.683049 
z
" style="fill:#8fb1fe;"/>
    <path clip-path="url(#pb88f8c3919)" d="M 268.088221 212.610059 
L 271.139387 247.825382 
L 293.842093 211.446158 
z
" style="fill:#84a7fc;"/>
    <path clip-path="url(#pb88f8c3919)" d="M 240.534658 231.831398 
L 257.795229 211.933065 
L 256.865765 196.683049 
z
" style="fill:#a1c0ff;"/>
    <path clip-path="url(#pb88f8c3919)" d="M 266.028221 139.013091 
L 270.69723 139.084764 
L 272.961666 120.808737 
z
" style="fill:#d85646;"/>
    <path clip-path="url(#pb88f8c3919)" d="M 270.69723 139.084764 
L 276.860769 124.933499 
L 272.961666 120.808737 
z
" style="fill:#cd423b;"/>
    <path clip-path="url(#pb88f8c3919)" d="M 272.961666 120.808737 
L 264.905318 134.745204 
L 266.028221 139.013091 
z
" style="fill:#d55042;"/>
    <path clip-path="url(#pb88f8c3919)" d="M 262.073311 118.645054 
L 264.905318 134.745204 
L 272.961666 120.808737 
z
" style="fill:#c43032;"/>
    <path clip-path="url(#pb88f8c3919)" d="M 235.151534 256.600514 
L 226.373831 231.123284 
L 223.732721 232.357192 
z
" style="fill:#6180e9;"/>
    <path clip-path="url(#pb88f8c3919)" d="M 246.673158 231.647864 
L 268.088221 212.610059 
L 257.795229 211.933065 
z
" style="fill:#98b9ff;"/>
    <path clip-path="url(#pb88f8c3919)" d="M 246.673158 231.647864 
L 257.795229 211.933065 
L 240.534658 231.831398 
z
" style="fill:#92b4fe;"/>
    <path clip-path="url(#pb88f8c3919)" d="M 240.534658 231.831398 
L 226.373831 231.123284 
L 235.151534 256.600514 
z
" style="fill:#6c8ff1;"/>
    <path clip-path="url(#pb88f8c3919)" d="M 257.659677 232.356759 
L 271.139387 247.825382 
L 268.088221 212.610059 
z
" style="fill:#86a9fc;"/>
    <path clip-path="url(#pb88f8c3919)" d="M 257.659677 232.356759 
L 268.088221 212.610059 
L 246.673158 231.647864 
z
" style="fill:#96b7ff;"/>
    <path clip-path="url(#pb88f8c3919)" d="M 246.673158 231.647864 
L 240.534658 231.831398 
L 235.151534 256.600514 
z
" style="fill:#7b9ff9;"/>
    <path clip-path="url(#pb88f8c3919)" d="M 257.659677 232.356759 
L 257.55711 235.375907 
L 271.139387 247.825382 
z
" style="fill:#84a7fc;"/>
    <path clip-path="url(#pb88f8c3919)" d="M 246.673158 231.647864 
L 257.55711 235.375907 
L 257.659677 232.356759 
z
" style="fill:#92b4fe;"/>
    <path clip-path="url(#pb88f8c3919)" d="M 235.151534 256.600514 
L 257.55711 235.375907 
L 246.673158 231.647864 
z
" style="fill:#80a3fa;"/>
    <path clip-path="url(#pb88f8c3919)" d="M 271.139387 247.825382 
L 257.55711 235.375907 
L 256.294059 258.195145 
z
" style="fill:#7295f4;"/>
    <path clip-path="url(#pb88f8c3919)" d="M 235.151534 256.600514 
L 256.294059 258.195145 
L 257.55711 235.375907 
z
" style="fill:#6e90f2;"/>
   </g>
  </g>
 </g>
 <defs>
  <clipPath id="pb88f8c3919">
   <rect height="266.112" width="266.112" x="103.104" y="41.472"/>
  </clipPath>
 </defs>
</svg>
