<?xml version="1.0" encoding="utf-8" standalone="no"?>
<!DOCTYPE svg PUBLIC "-//W3C//DTD SVG 1.1//EN"
  "http://www.w3.org/Graphics/SVG/1.1/DTD/svg11.dtd">
<!-- Created with matplotlib (https://matplotlib.org/) -->
<svg height="345.6pt" version="1.1" viewBox="0 0 460.8 345.6" width="460.8pt" xmlns="http://www.w3.org/2000/svg" xmlns:xlink="http://www.w3.org/1999/xlink">
 <metadata>
  <rdf:RDF xmlns:cc="http://creativecommons.org/ns#" xmlns:dc="http://purl.org/dc/elements/1.1/" xmlns:rdf="http://www.w3.org/1999/02/22-rdf-syntax-ns#">
   <cc:Work>
    <dc:type rdf:resource="http://purl.org/dc/dcmitype/StillImage"/>
    <dc:date>2021-03-27T13:52:20.867525</dc:date>
    <dc:format>image/svg+xml</dc:format>
    <dc:creator>
     <cc:Agent>
      <dc:title>Matplotlib v3.3.4, https://matplotlib.org/</dc:title>
     </cc:Agent>
    </dc:creator>
   </cc:Work>
  </rdf:RDF>
 </metadata>
 <defs>
  <style type="text/css">*{stroke-linecap:butt;stroke-linejoin:round;}</style>
 </defs>
 <g id="figure_1">
  <g id="patch_1">
   <path d="M 0 345.6 
L 460.8 345.6 
L 460.8 0 
L 0 0 
z
" style="fill:#ffffff;"/>
  </g>
  <g id="patch_2">
   <path d="M 103.104 307.584 
L 369.216 307.584 
L 369.216 41.472 
L 103.104 41.472 
z
" style="fill:#ffffff;"/>
  </g>
  <g id="pane3d_1">
   <g id="patch_3">
    <path d="M 123.197291 241.969309 
L 211.076164 168.307495 
L 209.854564 62.073991 
L 117.770234 129.272941 
" style="fill:#f2f2f2;opacity:0.5;stroke:#f2f2f2;stroke-linejoin:miter;"/>
   </g>
  </g>
  <g id="pane3d_2">
   <g id="patch_4">
    <path d="M 211.076164 168.307495 
L 352.090401 209.294766 
L 357.122702 99.402171 
L 209.854564 62.073991 
" style="fill:#e6e6e6;opacity:0.5;stroke:#e6e6e6;stroke-linejoin:miter;"/>
   </g>
  </g>
  <g id="pane3d_3">
   <g id="patch_5">
    <path d="M 123.197291 241.969309 
L 272.679269 290.790123 
L 352.090401 209.294766 
L 211.076164 168.307495 
" style="fill:#ececec;opacity:0.5;stroke:#ececec;stroke-linejoin:miter;"/>
   </g>
  </g>
  <g id="axis3d_1">
   <g id="line2d_1">
    <path d="M 123.197291 241.969309 
L 272.679269 290.790123 
" style="fill:none;stroke:#000000;stroke-linecap:square;stroke-width:0.8;"/>
   </g>
   <g id="text_1">
    <!-- ATAC -->
    <g transform="translate(167.15299 303.76759)scale(0.1 -0.1)">
     <defs>
      <path d="M 34.1875 63.1875 
L 20.796875 26.90625 
L 47.609375 26.90625 
z
M 28.609375 72.90625 
L 39.796875 72.90625 
L 67.578125 0 
L 57.328125 0 
L 50.6875 18.703125 
L 17.828125 18.703125 
L 11.1875 0 
L 0.78125 0 
z
" id="DejaVuSans-65"/>
      <path d="M -0.296875 72.90625 
L 61.375 72.90625 
L 61.375 64.59375 
L 35.5 64.59375 
L 35.5 0 
L 25.59375 0 
L 25.59375 64.59375 
L -0.296875 64.59375 
z
" id="DejaVuSans-84"/>
      <path d="M 64.40625 67.28125 
L 64.40625 56.890625 
Q 59.421875 61.53125 53.78125 63.8125 
Q 48.140625 66.109375 41.796875 66.109375 
Q 29.296875 66.109375 22.65625 58.46875 
Q 16.015625 50.828125 16.015625 36.375 
Q 16.015625 21.96875 22.65625 14.328125 
Q 29.296875 6.6875 41.796875 6.6875 
Q 48.140625 6.6875 53.78125 8.984375 
Q 59.421875 11.28125 64.40625 15.921875 
L 64.40625 5.609375 
Q 59.234375 2.09375 53.4375 0.328125 
Q 47.65625 -1.421875 41.21875 -1.421875 
Q 24.65625 -1.421875 15.125 8.703125 
Q 5.609375 18.84375 5.609375 36.375 
Q 5.609375 53.953125 15.125 64.078125 
Q 24.65625 74.21875 41.21875 74.21875 
Q 47.75 74.21875 53.53125 72.484375 
Q 59.328125 70.75 64.40625 67.28125 
z
" id="DejaVuSans-67"/>
     </defs>
     <use xlink:href="#DejaVuSans-65"/>
     <use x="60.658203" xlink:href="#DejaVuSans-84"/>
     <use x="113.992188" xlink:href="#DejaVuSans-65"/>
     <use x="180.650391" xlink:href="#DejaVuSans-67"/>
    </g>
   </g>
   <g id="Line3DCollection_1">
    <path d="M 143.950988 248.747466 
L 230.728777 174.019734 
L 230.341498 67.266832 
" style="fill:none;stroke:#b0b0b0;stroke-width:0.8;"/>
    <path d="M 162.453873 254.790509 
L 248.229659 179.106549 
L 248.595495 71.893688 
" style="fill:none;stroke:#b0b0b0;stroke-width:0.8;"/>
    <path d="M 181.204612 260.9145 
L 265.945447 184.255829 
L 267.083386 76.579829 
" style="fill:none;stroke:#b0b0b0;stroke-width:0.8;"/>
    <path d="M 200.208217 267.121077 
L 283.880126 189.468732 
L 285.809697 81.326403 
" style="fill:none;stroke:#b0b0b0;stroke-width:0.8;"/>
    <path d="M 219.469839 273.411923 
L 302.037776 194.746444 
L 304.779068 86.134586 
" style="fill:none;stroke:#b0b0b0;stroke-width:0.8;"/>
    <path d="M 238.994769 279.788765 
L 320.422582 200.090182 
L 323.996264 91.005584 
" style="fill:none;stroke:#b0b0b0;stroke-width:0.8;"/>
    <path d="M 258.788441 286.253378 
L 339.038834 205.501191 
L 343.466172 95.940639 
" style="fill:none;stroke:#b0b0b0;stroke-width:0.8;"/>
   </g>
   <g id="xtick_1">
    <g id="line2d_2">
     <path d="M 144.706903 248.096518 
L 142.4359 250.052168 
" style="fill:none;stroke:#000000;stroke-linecap:square;stroke-width:0.8;"/>
    </g>
    <g id="text_2">
     <!-- 30 -->
     <g transform="translate(130.071188 272.137504)scale(0.1 -0.1)">
      <defs>
       <path d="M 40.578125 39.3125 
Q 47.65625 37.796875 51.625 33 
Q 55.609375 28.21875 55.609375 21.1875 
Q 55.609375 10.40625 48.1875 4.484375 
Q 40.765625 -1.421875 27.09375 -1.421875 
Q 22.515625 -1.421875 17.65625 -0.515625 
Q 12.796875 0.390625 7.625 2.203125 
L 7.625 11.71875 
Q 11.71875 9.328125 16.59375 8.109375 
Q 21.484375 6.890625 26.8125 6.890625 
Q 36.078125 6.890625 40.9375 10.546875 
Q 45.796875 14.203125 45.796875 21.1875 
Q 45.796875 27.640625 41.28125 31.265625 
Q 36.765625 34.90625 28.71875 34.90625 
L 20.21875 34.90625 
L 20.21875 43.015625 
L 29.109375 43.015625 
Q 36.375 43.015625 40.234375 45.921875 
Q 44.09375 48.828125 44.09375 54.296875 
Q 44.09375 59.90625 40.109375 62.90625 
Q 36.140625 65.921875 28.71875 65.921875 
Q 24.65625 65.921875 20.015625 65.03125 
Q 15.375 64.15625 9.8125 62.3125 
L 9.8125 71.09375 
Q 15.4375 72.65625 20.34375 73.4375 
Q 25.25 74.21875 29.59375 74.21875 
Q 40.828125 74.21875 47.359375 69.109375 
Q 53.90625 64.015625 53.90625 55.328125 
Q 53.90625 49.265625 50.4375 45.09375 
Q 46.96875 40.921875 40.578125 39.3125 
z
" id="DejaVuSans-51"/>
       <path d="M 31.78125 66.40625 
Q 24.171875 66.40625 20.328125 58.90625 
Q 16.5 51.421875 16.5 36.375 
Q 16.5 21.390625 20.328125 13.890625 
Q 24.171875 6.390625 31.78125 6.390625 
Q 39.453125 6.390625 43.28125 13.890625 
Q 47.125 21.390625 47.125 36.375 
Q 47.125 51.421875 43.28125 58.90625 
Q 39.453125 66.40625 31.78125 66.40625 
z
M 31.78125 74.21875 
Q 44.046875 74.21875 50.515625 64.515625 
Q 56.984375 54.828125 56.984375 36.375 
Q 56.984375 17.96875 50.515625 8.265625 
Q 44.046875 -1.421875 31.78125 -1.421875 
Q 19.53125 -1.421875 13.0625 8.265625 
Q 6.59375 17.96875 6.59375 36.375 
Q 6.59375 54.828125 13.0625 64.515625 
Q 19.53125 74.21875 31.78125 74.21875 
z
" id="DejaVuSans-48"/>
      </defs>
      <use xlink:href="#DejaVuSans-51"/>
      <use x="63.623047" xlink:href="#DejaVuSans-48"/>
     </g>
    </g>
   </g>
   <g id="xtick_2">
    <g id="line2d_3">
     <path d="M 163.201466 254.130873 
L 160.955445 256.112641 
" style="fill:none;stroke:#000000;stroke-linecap:square;stroke-width:0.8;"/>
    </g>
    <g id="text_3">
     <!-- 35 -->
     <g transform="translate(148.593405 278.308714)scale(0.1 -0.1)">
      <defs>
       <path d="M 10.796875 72.90625 
L 49.515625 72.90625 
L 49.515625 64.59375 
L 19.828125 64.59375 
L 19.828125 46.734375 
Q 21.96875 47.46875 24.109375 47.828125 
Q 26.265625 48.1875 28.421875 48.1875 
Q 40.625 48.1875 47.75 41.5 
Q 54.890625 34.8125 54.890625 23.390625 
Q 54.890625 11.625 47.5625 5.09375 
Q 40.234375 -1.421875 26.90625 -1.421875 
Q 22.3125 -1.421875 17.546875 -0.640625 
Q 12.796875 0.140625 7.71875 1.703125 
L 7.71875 11.625 
Q 12.109375 9.234375 16.796875 8.0625 
Q 21.484375 6.890625 26.703125 6.890625 
Q 35.15625 6.890625 40.078125 11.328125 
Q 45.015625 15.765625 45.015625 23.390625 
Q 45.015625 31 40.078125 35.4375 
Q 35.15625 39.890625 26.703125 39.890625 
Q 22.75 39.890625 18.8125 39.015625 
Q 14.890625 38.140625 10.796875 36.28125 
z
" id="DejaVuSans-53"/>
      </defs>
      <use xlink:href="#DejaVuSans-51"/>
      <use x="63.623047" xlink:href="#DejaVuSans-53"/>
     </g>
    </g>
   </g>
   <g id="xtick_3">
    <g id="line2d_4">
     <path d="M 181.94359 260.246002 
L 179.723429 262.254415 
" style="fill:none;stroke:#000000;stroke-linecap:square;stroke-width:0.8;"/>
    </g>
    <g id="text_4">
     <!-- 40 -->
     <g transform="translate(167.364672 284.562903)scale(0.1 -0.1)">
      <defs>
       <path d="M 37.796875 64.3125 
L 12.890625 25.390625 
L 37.796875 25.390625 
z
M 35.203125 72.90625 
L 47.609375 72.90625 
L 47.609375 25.390625 
L 58.015625 25.390625 
L 58.015625 17.1875 
L 47.609375 17.1875 
L 47.609375 0 
L 37.796875 0 
L 37.796875 17.1875 
L 4.890625 17.1875 
L 4.890625 26.703125 
z
" id="DejaVuSans-52"/>
      </defs>
      <use xlink:href="#DejaVuSans-52"/>
      <use x="63.623047" xlink:href="#DejaVuSans-48"/>
     </g>
    </g>
   </g>
   <g id="xtick_4">
    <g id="line2d_5">
     <path d="M 200.93828 266.443537 
L 198.744882 268.479137 
" style="fill:none;stroke:#000000;stroke-linecap:square;stroke-width:0.8;"/>
    </g>
    <g id="text_5">
     <!-- 45 -->
     <g transform="translate(186.390048 290.901755)scale(0.1 -0.1)">
      <use xlink:href="#DejaVuSans-52"/>
      <use x="63.623047" xlink:href="#DejaVuSans-53"/>
     </g>
    </g>
   </g>
   <g id="xtick_5">
    <g id="line2d_6">
     <path d="M 220.190676 272.725156 
L 218.024976 274.788497 
" style="fill:none;stroke:#000000;stroke-linecap:square;stroke-width:0.8;"/>
    </g>
    <g id="text_6">
     <!-- 50 -->
     <g transform="translate(205.674726 297.327001)scale(0.1 -0.1)">
      <use xlink:href="#DejaVuSans-53"/>
      <use x="63.623047" xlink:href="#DejaVuSans-48"/>
     </g>
    </g>
   </g>
   <g id="xtick_6">
    <g id="line2d_7">
     <path d="M 239.706058 279.092581 
L 237.56902 281.184235 
" style="fill:none;stroke:#000000;stroke-linecap:square;stroke-width:0.8;"/>
    </g>
    <g id="text_7">
     <!-- 55 -->
     <g transform="translate(225.224045 303.840419)scale(0.1 -0.1)">
      <use xlink:href="#DejaVuSans-53"/>
      <use x="63.623047" xlink:href="#DejaVuSans-53"/>
     </g>
    </g>
   </g>
   <g id="xtick_7">
    <g id="line2d_8">
     <path d="M 259.489851 285.547583 
L 257.382474 287.668137 
" style="fill:none;stroke:#000000;stroke-linecap:square;stroke-width:0.8;"/>
    </g>
    <g id="text_8">
     <!-- 60 -->
     <g transform="translate(245.043489 310.443838)scale(0.1 -0.1)">
      <defs>
       <path d="M 33.015625 40.375 
Q 26.375 40.375 22.484375 35.828125 
Q 18.609375 31.296875 18.609375 23.390625 
Q 18.609375 15.53125 22.484375 10.953125 
Q 26.375 6.390625 33.015625 6.390625 
Q 39.65625 6.390625 43.53125 10.953125 
Q 47.40625 15.53125 47.40625 23.390625 
Q 47.40625 31.296875 43.53125 35.828125 
Q 39.65625 40.375 33.015625 40.375 
z
M 52.59375 71.296875 
L 52.59375 62.3125 
Q 48.875 64.0625 45.09375 64.984375 
Q 41.3125 65.921875 37.59375 65.921875 
Q 27.828125 65.921875 22.671875 59.328125 
Q 17.53125 52.734375 16.796875 39.40625 
Q 19.671875 43.65625 24.015625 45.921875 
Q 28.375 48.1875 33.59375 48.1875 
Q 44.578125 48.1875 50.953125 41.515625 
Q 57.328125 34.859375 57.328125 23.390625 
Q 57.328125 12.15625 50.6875 5.359375 
Q 44.046875 -1.421875 33.015625 -1.421875 
Q 20.359375 -1.421875 13.671875 8.265625 
Q 6.984375 17.96875 6.984375 36.375 
Q 6.984375 53.65625 15.1875 63.9375 
Q 23.390625 74.21875 37.203125 74.21875 
Q 40.921875 74.21875 44.703125 73.484375 
Q 48.484375 72.75 52.59375 71.296875 
z
" id="DejaVuSans-54"/>
      </defs>
      <use xlink:href="#DejaVuSans-54"/>
      <use x="63.623047" xlink:href="#DejaVuSans-48"/>
     </g>
    </g>
   </g>
  </g>
  <g id="axis3d_2">
   <g id="line2d_9">
    <path d="M 352.090401 209.294766 
L 272.679269 290.790123 
" style="fill:none;stroke:#000000;stroke-linecap:square;stroke-width:0.8;"/>
   </g>
   <g id="text_9">
    <!-- CHIP -->
    <g transform="translate(329.391375 278.988697)scale(0.1 -0.1)">
     <defs>
      <path d="M 9.8125 72.90625 
L 19.671875 72.90625 
L 19.671875 43.015625 
L 55.515625 43.015625 
L 55.515625 72.90625 
L 65.375 72.90625 
L 65.375 0 
L 55.515625 0 
L 55.515625 34.71875 
L 19.671875 34.71875 
L 19.671875 0 
L 9.8125 0 
z
" id="DejaVuSans-72"/>
      <path d="M 9.8125 72.90625 
L 19.671875 72.90625 
L 19.671875 0 
L 9.8125 0 
z
" id="DejaVuSans-73"/>
      <path d="M 19.671875 64.796875 
L 19.671875 37.40625 
L 32.078125 37.40625 
Q 38.96875 37.40625 42.71875 40.96875 
Q 46.484375 44.53125 46.484375 51.125 
Q 46.484375 57.671875 42.71875 61.234375 
Q 38.96875 64.796875 32.078125 64.796875 
z
M 9.8125 72.90625 
L 32.078125 72.90625 
Q 44.34375 72.90625 50.609375 67.359375 
Q 56.890625 61.8125 56.890625 51.125 
Q 56.890625 40.328125 50.609375 34.8125 
Q 44.34375 29.296875 32.078125 29.296875 
L 19.671875 29.296875 
L 19.671875 0 
L 9.8125 0 
z
" id="DejaVuSans-80"/>
     </defs>
     <use xlink:href="#DejaVuSans-67"/>
     <use x="69.824219" xlink:href="#DejaVuSans-72"/>
     <use x="145.019531" xlink:href="#DejaVuSans-73"/>
     <use x="174.511719" xlink:href="#DejaVuSans-80"/>
    </g>
   </g>
   <g id="Line3DCollection_2">
    <path d="M 122.264307 125.993371 
L 127.470658 238.387288 
L 276.557119 286.810494 
" style="fill:none;stroke:#b0b0b0;stroke-width:0.8;"/>
    <path d="M 135.940269 116.013277 
L 140.484717 227.478646 
L 288.356407 274.701522 
" style="fill:none;stroke:#b0b0b0;stroke-width:0.8;"/>
    <path d="M 149.273093 106.283589 
L 153.186368 216.83187 
L 299.85756 262.89851 
" style="fill:none;stroke:#b0b0b0;stroke-width:0.8;"/>
    <path d="M 162.275535 96.794999 
L 165.586728 206.437642 
L 311.071737 251.390006 
" style="fill:none;stroke:#b0b0b0;stroke-width:0.8;"/>
    <path d="M 174.959725 87.538655 
L 177.696391 196.287083 
L 322.009545 240.165124 
" style="fill:none;stroke:#b0b0b0;stroke-width:0.8;"/>
    <path d="M 187.337204 78.506134 
L 189.52546 186.371723 
L 332.681078 229.213506 
" style="fill:none;stroke:#b0b0b0;stroke-width:0.8;"/>
    <path d="M 199.418966 69.689415 
L 201.083577 176.68348 
L 343.095941 218.525294 
" style="fill:none;stroke:#b0b0b0;stroke-width:0.8;"/>
   </g>
   <g id="xtick_8">
    <g id="line2d_10">
     <path d="M 275.300652 286.402394 
L 279.07331 287.627752 
" style="fill:none;stroke:#000000;stroke-linecap:square;stroke-width:0.8;"/>
    </g>
    <g id="text_10">
     <!-- 35 -->
     <g transform="translate(283.09692 307.856809)scale(0.1 -0.1)">
      <use xlink:href="#DejaVuSans-51"/>
      <use x="63.623047" xlink:href="#DejaVuSans-53"/>
     </g>
    </g>
   </g>
   <g id="xtick_9">
    <g id="line2d_11">
     <path d="M 287.110986 274.303796 
L 290.850435 275.49799 
" style="fill:none;stroke:#000000;stroke-linecap:square;stroke-width:0.8;"/>
    </g>
    <g id="text_11">
     <!-- 40 -->
     <g transform="translate(294.738009 295.568496)scale(0.1 -0.1)">
      <use xlink:href="#DejaVuSans-52"/>
      <use x="63.623047" xlink:href="#DejaVuSans-48"/>
     </g>
    </g>
   </g>
   <g id="xtick_10">
    <g id="line2d_12">
     <path d="M 298.623033 262.510768 
L 302.329733 263.674972 
" style="fill:none;stroke:#000000;stroke-linecap:square;stroke-width:0.8;"/>
    </g>
    <g id="text_12">
     <!-- 45 -->
     <g transform="translate(306.084788 283.590855)scale(0.1 -0.1)">
      <use xlink:href="#DejaVuSans-52"/>
      <use x="63.623047" xlink:href="#DejaVuSans-53"/>
     </g>
    </g>
   </g>
   <g id="xtick_11">
    <g id="line2d_13">
     <path d="M 309.84795 251.011877 
L 313.522363 252.147207 
" style="fill:none;stroke:#000000;stroke-linecap:square;stroke-width:0.8;"/>
    </g>
    <g id="text_13">
     <!-- 50 -->
     <g transform="translate(317.148279 271.912253)scale(0.1 -0.1)">
      <use xlink:href="#DejaVuSans-53"/>
      <use x="63.623047" xlink:href="#DejaVuSans-48"/>
     </g>
    </g>
   </g>
   <g id="xtick_12">
    <g id="line2d_14">
     <path d="M 320.796347 239.796254 
L 324.438929 240.903772 
" style="fill:none;stroke:#000000;stroke-linecap:square;stroke-width:0.8;"/>
    </g>
    <g id="text_14">
     <!-- 55 -->
     <g transform="translate(327.93896 260.521629)scale(0.1 -0.1)">
      <use xlink:href="#DejaVuSans-53"/>
      <use x="63.623047" xlink:href="#DejaVuSans-53"/>
     </g>
    </g>
   </g>
   <g id="xtick_13">
    <g id="line2d_15">
     <path d="M 331.47832 228.85356 
L 335.089521 229.934274 
" style="fill:none;stroke:#000000;stroke-linecap:square;stroke-width:0.8;"/>
    </g>
    <g id="text_15">
     <!-- 60 -->
     <g transform="translate(338.466799 249.40846)scale(0.1 -0.1)">
      <use xlink:href="#DejaVuSans-54"/>
      <use x="63.623047" xlink:href="#DejaVuSans-48"/>
     </g>
    </g>
   </g>
   <g id="xtick_14">
    <g id="line2d_16">
     <path d="M 341.903474 218.173951 
L 345.483742 219.228824 
" style="fill:none;stroke:#000000;stroke-linecap:square;stroke-width:0.8;"/>
    </g>
    <g id="text_16">
     <!-- 65 -->
     <g transform="translate(348.741284 238.562731)scale(0.1 -0.1)">
      <use xlink:href="#DejaVuSans-54"/>
      <use x="63.623047" xlink:href="#DejaVuSans-53"/>
     </g>
    </g>
   </g>
  </g>
  <g id="axis3d_3">
   <g id="line2d_17">
    <path d="M 352.090401 209.294766 
L 357.122702 99.402171 
" style="fill:none;stroke:#000000;stroke-linecap:square;stroke-width:0.8;"/>
   </g>
   <g id="Line3DCollection_3">
    <path d="M 352.704682 195.880427 
L 210.92677 155.315759 
L 122.535803 228.23307 
" style="fill:none;stroke:#b0b0b0;stroke-width:0.8;"/>
    <path d="M 353.457423 179.442497 
L 210.743807 139.404823 
L 121.724843 211.392978 
" style="fill:none;stroke:#b0b0b0;stroke-width:0.8;"/>
    <path d="M 354.220264 162.783998 
L 210.558507 123.290641 
L 120.902585 194.318256 
" style="fill:none;stroke:#b0b0b0;stroke-width:0.8;"/>
    <path d="M 354.99341 145.90046 
L 210.370824 106.969295 
L 120.06879 177.003964 
" style="fill:none;stroke:#b0b0b0;stroke-width:0.8;"/>
    <path d="M 355.777072 128.787292 
L 210.180713 90.436765 
L 119.223214 159.445025 
" style="fill:none;stroke:#b0b0b0;stroke-width:0.8;"/>
    <path d="M 356.571465 111.439776 
L 209.988126 73.688923 
L 118.365605 141.636218 
" style="fill:none;stroke:#b0b0b0;stroke-width:0.8;"/>
   </g>
   <g id="xtick_15">
    <g id="line2d_18">
     <path d="M 351.514471 195.53989 
L 355.087952 196.562314 
" style="fill:none;stroke:#000000;stroke-linecap:square;stroke-width:0.8;"/>
    </g>
    <g id="text_17">
     <!-- 0.0005 -->
     <g transform="translate(353.555646 200.900103)scale(0.1 -0.1)">
      <defs>
       <path d="M 10.6875 12.40625 
L 21 12.40625 
L 21 0 
L 10.6875 0 
z
" id="DejaVuSans-46"/>
      </defs>
      <use xlink:href="#DejaVuSans-48"/>
      <use x="63.623047" xlink:href="#DejaVuSans-46"/>
      <use x="95.410156" xlink:href="#DejaVuSans-48"/>
      <use x="159.033203" xlink:href="#DejaVuSans-48"/>
      <use x="222.65625" xlink:href="#DejaVuSans-48"/>
      <use x="286.279297" xlink:href="#DejaVuSans-53"/>
     </g>
    </g>
   </g>
   <g id="xtick_16">
    <g id="line2d_19">
     <path d="M 352.25898 179.10628 
L 355.857192 180.115742 
" style="fill:none;stroke:#000000;stroke-linecap:square;stroke-width:0.8;"/>
    </g>
    <g id="text_18">
     <!-- 0.0010 -->
     <g transform="translate(354.427999 184.494922)scale(0.1 -0.1)">
      <defs>
       <path d="M 12.40625 8.296875 
L 28.515625 8.296875 
L 28.515625 63.921875 
L 10.984375 60.40625 
L 10.984375 69.390625 
L 28.421875 72.90625 
L 38.28125 72.90625 
L 38.28125 8.296875 
L 54.390625 8.296875 
L 54.390625 0 
L 12.40625 0 
z
" id="DejaVuSans-49"/>
      </defs>
      <use xlink:href="#DejaVuSans-48"/>
      <use x="63.623047" xlink:href="#DejaVuSans-46"/>
      <use x="95.410156" xlink:href="#DejaVuSans-48"/>
      <use x="159.033203" xlink:href="#DejaVuSans-48"/>
      <use x="222.65625" xlink:href="#DejaVuSans-49"/>
      <use x="286.279297" xlink:href="#DejaVuSans-48"/>
     </g>
    </g>
   </g>
   <g id="xtick_17">
    <g id="line2d_20">
     <path d="M 353.013476 162.452246 
L 356.636763 163.448306 
" style="fill:none;stroke:#000000;stroke-linecap:square;stroke-width:0.8;"/>
    </g>
    <g id="text_19">
     <!-- 0.0015 -->
     <g transform="translate(355.312022 167.870284)scale(0.1 -0.1)">
      <use xlink:href="#DejaVuSans-48"/>
      <use x="63.623047" xlink:href="#DejaVuSans-46"/>
      <use x="95.410156" xlink:href="#DejaVuSans-48"/>
      <use x="159.033203" xlink:href="#DejaVuSans-48"/>
      <use x="222.65625" xlink:href="#DejaVuSans-49"/>
      <use x="286.279297" xlink:href="#DejaVuSans-53"/>
     </g>
    </g>
   </g>
   <g id="xtick_18">
    <g id="line2d_21">
     <path d="M 353.778161 145.573325 
L 357.426873 146.555527 
" style="fill:none;stroke:#000000;stroke-linecap:square;stroke-width:0.8;"/>
    </g>
    <g id="text_20">
     <!-- 0.0020 -->
     <g transform="translate(356.20795 151.021754)scale(0.1 -0.1)">
      <defs>
       <path d="M 19.1875 8.296875 
L 53.609375 8.296875 
L 53.609375 0 
L 7.328125 0 
L 7.328125 8.296875 
Q 12.9375 14.109375 22.625 23.890625 
Q 32.328125 33.6875 34.8125 36.53125 
Q 39.546875 41.84375 41.421875 45.53125 
Q 43.3125 49.21875 43.3125 52.78125 
Q 43.3125 58.59375 39.234375 62.25 
Q 35.15625 65.921875 28.609375 65.921875 
Q 23.96875 65.921875 18.8125 64.3125 
Q 13.671875 62.703125 7.8125 59.421875 
L 7.8125 69.390625 
Q 13.765625 71.78125 18.9375 73 
Q 24.125 74.21875 28.421875 74.21875 
Q 39.75 74.21875 46.484375 68.546875 
Q 53.21875 62.890625 53.21875 53.421875 
Q 53.21875 48.921875 51.53125 44.890625 
Q 49.859375 40.875 45.40625 35.40625 
Q 44.1875 33.984375 37.640625 27.21875 
Q 31.109375 20.453125 19.1875 8.296875 
z
" id="DejaVuSans-50"/>
      </defs>
      <use xlink:href="#DejaVuSans-48"/>
      <use x="63.623047" xlink:href="#DejaVuSans-46"/>
      <use x="95.410156" xlink:href="#DejaVuSans-48"/>
      <use x="159.033203" xlink:href="#DejaVuSans-48"/>
      <use x="222.65625" xlink:href="#DejaVuSans-50"/>
      <use x="286.279297" xlink:href="#DejaVuSans-48"/>
     </g>
    </g>
   </g>
   <g id="xtick_19">
    <g id="line2d_22">
     <path d="M 354.553241 128.464931 
L 358.227739 129.432805 
" style="fill:none;stroke:#000000;stroke-linecap:square;stroke-width:0.8;"/>
    </g>
    <g id="text_21">
     <!-- 0.0025 -->
     <g transform="translate(357.116026 133.94478)scale(0.1 -0.1)">
      <use xlink:href="#DejaVuSans-48"/>
      <use x="63.623047" xlink:href="#DejaVuSans-46"/>
      <use x="95.410156" xlink:href="#DejaVuSans-48"/>
      <use x="159.033203" xlink:href="#DejaVuSans-48"/>
      <use x="222.65625" xlink:href="#DejaVuSans-50"/>
      <use x="286.279297" xlink:href="#DejaVuSans-53"/>
     </g>
    </g>
   </g>
   <g id="xtick_20">
    <g id="line2d_23">
     <path d="M 355.338931 111.122351 
L 359.03958 112.075411 
" style="fill:none;stroke:#000000;stroke-linecap:square;stroke-width:0.8;"/>
    </g>
    <g id="text_22">
     <!-- 0.0030 -->
     <g transform="translate(358.036499 116.634683)scale(0.1 -0.1)">
      <use xlink:href="#DejaVuSans-48"/>
      <use x="63.623047" xlink:href="#DejaVuSans-46"/>
      <use x="95.410156" xlink:href="#DejaVuSans-48"/>
      <use x="159.033203" xlink:href="#DejaVuSans-48"/>
      <use x="222.65625" xlink:href="#DejaVuSans-51"/>
      <use x="286.279297" xlink:href="#DejaVuSans-48"/>
     </g>
    </g>
   </g>
  </g>
  <g id="axes_1">
   <g id="Poly3DCollection_1">
    <path clip-path="url(#p4274749097)" d="M 168.968132 207.174046 
L 212.188331 215.140344 
L 181.370051 208.98796 
z
" style="fill:#3b4cc0;"/>
    <path clip-path="url(#p4274749097)" d="M 212.188331 215.140344 
L 303.326982 141.462893 
L 181.370051 208.98796 
z
" style="fill:#7295f4;"/>
    <path clip-path="url(#p4274749097)" d="M 181.370051 208.98796 
L 303.326982 141.462893 
L 317.958191 130.855304 
z
" style="fill:#c4d5f3;"/>
    <path clip-path="url(#p4274749097)" d="M 168.968132 207.174046 
L 181.370051 208.98796 
L 151.670189 207.582074 
z
" style="fill:#4b64d5;"/>
    <path clip-path="url(#p4274749097)" d="M 212.188331 215.140344 
L 168.968132 207.174046 
L 167.261625 203.205038 
z
" style="fill:#506bda;"/>
    <path clip-path="url(#p4274749097)" d="M 163.254766 204.385578 
L 167.261625 203.205038 
L 168.968132 207.174046 
z
" style="fill:#6384eb;"/>
    <path clip-path="url(#p4274749097)" d="M 163.254766 204.385578 
L 168.968132 207.174046 
L 151.670189 207.582074 
z
" style="fill:#5f7fe8;"/>
    <path clip-path="url(#p4274749097)" d="M 303.326982 141.462893 
L 212.188331 215.140344 
L 300.190677 120.910674 
z
" style="fill:#d7dce3;"/>
    <path clip-path="url(#p4274749097)" d="M 313.190295 123.139447 
L 317.958191 130.855304 
L 303.326982 141.462893 
z
" style="fill:#f7b093;"/>
    <path clip-path="url(#p4274749097)" d="M 318.724448 117.742294 
L 319.607874 123.669753 
L 317.958191 130.855304 
z
" style="fill:#f39475;"/>
    <path clip-path="url(#p4274749097)" d="M 328.782856 119.89453 
L 317.958191 130.855304 
L 319.607874 123.669753 
z
" style="fill:#f39577;"/>
    <path clip-path="url(#p4274749097)" d="M 303.326982 141.462893 
L 311.366288 120.301341 
L 313.190295 123.139447 
z
" style="fill:#f5a081;"/>
    <path clip-path="url(#p4274749097)" d="M 151.670189 207.582074 
L 158.476516 204.04549 
L 163.254766 204.385578 
z
" style="fill:#6b8df0;"/>
    <path clip-path="url(#p4274749097)" d="M 232.750584 217.944652 
L 212.188331 215.140344 
L 209.128638 205.701362 
z
" style="fill:#5875e1;"/>
    <path clip-path="url(#p4274749097)" d="M 317.958191 130.855304 
L 313.190295 123.139447 
L 316.969599 116.954517 
z
" style="fill:#f29072;"/>
    <path clip-path="url(#p4274749097)" d="M 167.261625 203.205038 
L 179.838922 197.581082 
L 212.188331 215.140344 
z
" style="fill:#6b8df0;"/>
    <path clip-path="url(#p4274749097)" d="M 232.750584 217.944652 
L 294.210101 154.894494 
L 212.188331 215.140344 
z
" style="fill:#85a8fc;"/>
    <path clip-path="url(#p4274749097)" d="M 317.958191 130.855304 
L 316.969599 116.954517 
L 318.724448 117.742294 
z
" style="fill:#ef886b;"/>
    <path clip-path="url(#p4274749097)" d="M 167.261625 203.205038 
L 163.254766 204.385578 
L 159.15692 202.344274 
z
" style="fill:#7396f5;"/>
    <path clip-path="url(#p4274749097)" d="M 159.15692 202.344274 
L 163.254766 204.385578 
L 158.476516 204.04549 
z
" style="fill:#7396f5;"/>
    <path clip-path="url(#p4274749097)" d="M 159.15692 202.344274 
L 158.476516 204.04549 
L 151.670189 207.582074 
z
" style="fill:#7295f4;"/>
    <path clip-path="url(#p4274749097)" d="M 309.406005 112.884725 
L 311.366288 120.301341 
L 303.326982 141.462893 
z
" style="fill:#f18f71;"/>
    <path clip-path="url(#p4274749097)" d="M 300.190677 120.910674 
L 212.188331 215.140344 
L 294.210101 154.894494 
z
" style="fill:#d8dce2;"/>
    <path clip-path="url(#p4274749097)" d="M 318.724448 117.742294 
L 325.072846 113.362518 
L 319.607874 123.669753 
z
" style="fill:#e8765c;"/>
    <path clip-path="url(#p4274749097)" d="M 303.44432 123.671836 
L 308.377309 112.685424 
L 303.326982 141.462893 
z
" style="fill:#f29072;"/>
    <path clip-path="url(#p4274749097)" d="M 328.782856 119.89453 
L 319.607874 123.669753 
L 325.072846 113.362518 
z
" style="fill:#e9785d;"/>
    <path clip-path="url(#p4274749097)" d="M 151.670189 207.582074 
L 149.24315 206.787272 
L 159.15692 202.344274 
z
" style="fill:#7597f6;"/>
    <path clip-path="url(#p4274749097)" d="M 303.326982 141.462893 
L 300.190677 120.910674 
L 303.44432 123.671836 
z
" style="fill:#f39778;"/>
    <path clip-path="url(#p4274749097)" d="M 186.062061 196.82203 
L 209.128638 205.701362 
L 212.188331 215.140344 
z
" style="fill:#7396f5;"/>
    <path clip-path="url(#p4274749097)" d="M 303.326982 141.462893 
L 308.377309 112.685424 
L 309.406005 112.884725 
z
" style="fill:#ec8165;"/>
    <path clip-path="url(#p4274749097)" d="M 314.460125 110.095106 
L 313.190295 123.139447 
L 311.366288 120.301341 
z
" style="fill:#e57058;"/>
    <path clip-path="url(#p4274749097)" d="M 314.998121 109.53159 
L 316.969599 116.954517 
L 313.190295 123.139447 
z
" style="fill:#e36b54;"/>
    <path clip-path="url(#p4274749097)" d="M 159.15692 202.344274 
L 162.675746 201.154909 
L 167.261625 203.205038 
z
" style="fill:#80a3fa;"/>
    <path clip-path="url(#p4274749097)" d="M 319.540843 107.728887 
L 318.724448 117.742294 
L 316.969599 116.954517 
z
" style="fill:#dd5f4b;"/>
    <path clip-path="url(#p4274749097)" d="M 328.782856 119.89453 
L 325.072846 113.362518 
L 326.223279 113.855784 
z
" style="fill:#df634e;"/>
    <path clip-path="url(#p4274749097)" d="M 313.190295 123.139447 
L 314.460125 110.095106 
L 314.998121 109.53159 
z
" style="fill:#dc5d4a;"/>
    <path clip-path="url(#p4274749097)" d="M 212.188331 215.140344 
L 179.838922 197.581082 
L 186.062061 196.82203 
z
" style="fill:#80a3fa;"/>
    <path clip-path="url(#p4274749097)" d="M 325.072846 113.362518 
L 318.724448 117.742294 
L 321.982241 108.199243 
z
" style="fill:#d85646;"/>
    <path clip-path="url(#p4274749097)" d="M 328.782856 119.89453 
L 326.223279 113.855784 
L 326.233479 115.264822 
z
" style="fill:#df634e;"/>
    <path clip-path="url(#p4274749097)" d="M 149.24315 206.787272 
L 154.93406 203.784393 
L 159.15692 202.344274 
z
" style="fill:#80a3fa;"/>
    <path clip-path="url(#p4274749097)" d="M 311.366288 120.301341 
L 311.000372 110.54974 
L 314.460125 110.095106 
z
" style="fill:#d85646;"/>
    <path clip-path="url(#p4274749097)" d="M 311.366288 120.301341 
L 309.406005 112.884725 
L 311.000372 110.54974 
z
" style="fill:#da5a49;"/>
    <path clip-path="url(#p4274749097)" d="M 326.233479 115.264822 
L 325.910641 115.939239 
L 328.782856 119.89453 
z
" style="fill:#df634e;"/>
    <path clip-path="url(#p4274749097)" d="M 319.540843 107.728887 
L 321.982241 108.199243 
L 318.724448 117.742294 
z
" style="fill:#d24b40;"/>
    <path clip-path="url(#p4274749097)" d="M 314.998121 109.53159 
L 318.160766 106.637392 
L 316.969599 116.954517 
z
" style="fill:#d1493f;"/>
    <path clip-path="url(#p4274749097)" d="M 325.317223 112.277913 
L 326.223279 113.855784 
L 325.072846 113.362518 
z
" style="fill:#d65244;"/>
    <path clip-path="url(#p4274749097)" d="M 316.969599 116.954517 
L 318.160766 106.637392 
L 319.540843 107.728887 
z
" style="fill:#d0473d;"/>
    <path clip-path="url(#p4274749097)" d="M 325.072846 113.362518 
L 323.64538 109.900069 
L 325.317223 112.277913 
z
" style="fill:#d24b40;"/>
    <path clip-path="url(#p4274749097)" d="M 157.338817 202.987304 
L 159.15692 202.344274 
L 154.93406 203.784393 
z
" style="fill:#86a9fc;"/>
    <path clip-path="url(#p4274749097)" d="M 179.838922 197.581082 
L 167.261625 203.205038 
L 162.675746 201.154909 
z
" style="fill:#8db0fe;"/>
    <path clip-path="url(#p4274749097)" d="M 321.982241 108.199243 
L 323.64538 109.900069 
L 325.072846 113.362518 
z
" style="fill:#cf453c;"/>
    <path clip-path="url(#p4274749097)" d="M 325.317223 112.277913 
L 326.233479 115.264822 
L 326.223279 113.855784 
z
" style="fill:#d65244;"/>
    <path clip-path="url(#p4274749097)" d="M 162.675746 201.154909 
L 159.15692 202.344274 
L 157.338817 202.987304 
z
" style="fill:#89acfd;"/>
    <path clip-path="url(#p4274749097)" d="M 153.284002 205.15614 
L 154.93406 203.784393 
L 149.24315 206.787272 
z
" style="fill:#81a4fb;"/>
    <path clip-path="url(#p4274749097)" d="M 308.377309 112.685424 
L 303.44432 123.671836 
L 305.370778 112.087078 
z
" style="fill:#da5a49;"/>
    <path clip-path="url(#p4274749097)" d="M 311.000372 110.54974 
L 309.406005 112.884725 
L 308.377309 112.685424 
z
" style="fill:#d1493f;"/>
    <path clip-path="url(#p4274749097)" d="M 314.460125 110.095106 
L 314.382996 107.274639 
L 314.998121 109.53159 
z
" style="fill:#ca3b37;"/>
    <path clip-path="url(#p4274749097)" d="M 314.382996 107.274639 
L 314.460125 110.095106 
L 311.000372 110.54974 
z
" style="fill:#ca3b37;"/>
    <path clip-path="url(#p4274749097)" d="M 281.453465 190.756449 
L 294.210101 154.894494 
L 232.750584 217.944652 
z
" style="fill:#b1cbfc;"/>
    <path clip-path="url(#p4274749097)" d="M 326.233479 115.264822 
L 325.317223 112.277913 
L 323.67271 111.194021 
z
" style="fill:#d24b40;"/>
    <path clip-path="url(#p4274749097)" d="M 323.67271 111.194021 
L 325.317223 112.277913 
L 323.64538 109.900069 
z
" style="fill:#cd423b;"/>
    <path clip-path="url(#p4274749097)" d="M 305.370778 112.087078 
L 303.44432 123.671836 
L 300.190677 120.910674 
z
" style="fill:#df634e;"/>
    <path clip-path="url(#p4274749097)" d="M 321.635781 107.52392 
L 323.64538 109.900069 
L 321.982241 108.199243 
z
" style="fill:#c73635;"/>
    <path clip-path="url(#p4274749097)" d="M 325.910641 115.939239 
L 326.233479 115.264822 
L 323.67271 111.194021 
z
" style="fill:#d55042;"/>
    <path clip-path="url(#p4274749097)" d="M 321.635781 107.52392 
L 321.982241 108.199243 
L 319.540843 107.728887 
z
" style="fill:#c43032;"/>
    <path clip-path="url(#p4274749097)" d="M 299.9957 177.262496 
L 301.124997 171.643641 
L 299.879806 176.032583 
z
" style="fill:#d1dae9;"/>
    <path clip-path="url(#p4274749097)" d="M 154.93406 203.784393 
L 153.284002 205.15614 
L 157.338817 202.987304 
z
" style="fill:#89acfd;"/>
    <path clip-path="url(#p4274749097)" d="M 323.67271 111.194021 
L 323.64538 109.900069 
L 321.635781 107.52392 
z
" style="fill:#c83836;"/>
    <path clip-path="url(#p4274749097)" d="M 299.159786 169.460192 
L 299.879806 176.032583 
L 301.124997 171.643641 
z
" style="fill:#d6dce4;"/>
    <path clip-path="url(#p4274749097)" d="M 299.879806 176.032583 
L 297.377271 169.787619 
L 299.9957 177.262496 
z
" style="fill:#d2dbe8;"/>
    <path clip-path="url(#p4274749097)" d="M 297.377271 169.787619 
L 299.879806 176.032583 
L 299.159786 169.460192 
z
" style="fill:#d8dce2;"/>
    <path clip-path="url(#p4274749097)" d="M 318.43937 105.252191 
L 319.540843 107.728887 
L 318.160766 106.637392 
z
" style="fill:#c0282f;"/>
    <path clip-path="url(#p4274749097)" d="M 314.998121 109.53159 
L 316.197032 104.543342 
L 318.160766 106.637392 
z
" style="fill:#c12b30;"/>
    <path clip-path="url(#p4274749097)" d="M 321.635781 107.52392 
L 319.540843 107.728887 
L 318.43937 105.252191 
z
" style="fill:#c0282f;"/>
    <path clip-path="url(#p4274749097)" d="M 314.998121 109.53159 
L 314.382996 107.274639 
L 316.197032 104.543342 
z
" style="fill:#c12b30;"/>
    <path clip-path="url(#p4274749097)" d="M 297.377271 169.787619 
L 291.383275 183.576279 
L 299.9957 177.262496 
z
" style="fill:#cdd9ec;"/>
    <path clip-path="url(#p4274749097)" d="M 299.159786 169.460192 
L 301.124997 171.643641 
L 301.989211 158.028837 
z
" style="fill:#e2dad5;"/>
    <path clip-path="url(#p4274749097)" d="M 281.453465 190.756449 
L 232.750584 217.944652 
L 274.702995 200.575445 
z
" style="fill:#8caffe;"/>
    <path clip-path="url(#p4274749097)" d="M 308.377309 112.685424 
L 308.345243 107.965099 
L 311.000372 110.54974 
z
" style="fill:#ca3b37;"/>
    <path clip-path="url(#p4274749097)" d="M 295.98658 161.13775 
L 297.377271 169.787619 
L 299.159786 169.460192 
z
" style="fill:#e2dad5;"/>
    <path clip-path="url(#p4274749097)" d="M 299.9957 177.262496 
L 291.383275 183.576279 
L 290.46838 188.731805 
z
" style="fill:#c0d4f5;"/>
    <path clip-path="url(#p4274749097)" d="M 299.159786 169.460192 
L 301.989211 158.028837 
L 295.98658 161.13775 
z
" style="fill:#ead5c9;"/>
    <path clip-path="url(#p4274749097)" d="M 297.377271 169.787619 
L 295.98658 161.13775 
L 291.383275 183.576279 
z
" style="fill:#d9dce1;"/>
    <path clip-path="url(#p4274749097)" d="M 232.750584 217.944652 
L 209.128638 205.701362 
L 207.085156 212.403408 
z
" style="fill:#7699f6;"/>
    <path clip-path="url(#p4274749097)" d="M 301.124997 171.643641 
L 299.9957 177.262496 
L 314.359577 127.525602 
z
" style="fill:#efcfbf;"/>
    <path clip-path="url(#p4274749097)" d="M 153.284002 205.15614 
L 154.379425 205.671689 
L 157.338817 202.987304 
z
" style="fill:#89acfd;"/>
    <path clip-path="url(#p4274749097)" d="M 323.67271 111.194021 
L 320.346692 109.822611 
L 325.910641 115.939239 
z
" style="fill:#cd423b;"/>
    <path clip-path="url(#p4274749097)" d="M 294.210101 154.894494 
L 291.383275 183.576279 
L 295.98658 161.13775 
z
" style="fill:#e3d9d3;"/>
    <path clip-path="url(#p4274749097)" d="M 294.210101 154.894494 
L 295.98658 161.13775 
L 301.989211 158.028837 
z
" style="fill:#f0cdbb;"/>
    <path clip-path="url(#p4274749097)" d="M 290.013231 185.087544 
L 291.383275 183.576279 
L 294.210101 154.894494 
z
" style="fill:#d4dbe6;"/>
    <path clip-path="url(#p4274749097)" d="M 318.160766 106.637392 
L 316.197032 104.543342 
L 318.43937 105.252191 
z
" style="fill:#ba162b;"/>
    <path clip-path="url(#p4274749097)" d="M 314.382996 107.274639 
L 311.000372 110.54974 
L 314.85066 104.05168 
z
" style="fill:#c0282f;"/>
    <path clip-path="url(#p4274749097)" d="M 294.210101 154.894494 
L 281.453465 190.756449 
L 290.013231 185.087544 
z
" style="fill:#cfdaea;"/>
    <path clip-path="url(#p4274749097)" d="M 291.383275 183.576279 
L 290.013231 185.087544 
L 290.46838 188.731805 
z
" style="fill:#bbd1f8;"/>
    <path clip-path="url(#p4274749097)" d="M 153.284002 205.15614 
L 149.24315 206.787272 
L 153.988905 215.312144 
z
" style="fill:#7ea1fa;"/>
    <path clip-path="url(#p4274749097)" d="M 321.635781 107.52392 
L 320.346692 109.822611 
L 323.67271 111.194021 
z
" style="fill:#c53334;"/>
    <path clip-path="url(#p4274749097)" d="M 290.123673 188.474103 
L 290.013231 185.087544 
L 281.453465 190.756449 
z
" style="fill:#b6cefa;"/>
    <path clip-path="url(#p4274749097)" d="M 314.359577 127.525602 
L 301.989211 158.028837 
L 301.124997 171.643641 
z
" style="fill:#f5c1a9;"/>
    <path clip-path="url(#p4274749097)" d="M 290.013231 185.087544 
L 290.123673 188.474103 
L 290.46838 188.731805 
z
" style="fill:#b7cff9;"/>
    <path clip-path="url(#p4274749097)" d="M 305.370778 112.087078 
L 308.345243 107.965099 
L 308.377309 112.685424 
z
" style="fill:#c83836;"/>
    <path clip-path="url(#p4274749097)" d="M 318.43937 105.252191 
L 320.346692 109.822611 
L 321.635781 107.52392 
z
" style="fill:#c0282f;"/>
    <path clip-path="url(#p4274749097)" d="M 165.10633 201.62466 
L 162.675746 201.154909 
L 157.338817 202.987304 
z
" style="fill:#93b5fe;"/>
    <path clip-path="url(#p4274749097)" d="M 274.702995 200.575445 
L 232.750584 217.944652 
L 239.812014 218.99742 
z
" style="fill:#779af7;"/>
    <path clip-path="url(#p4274749097)" d="M 294.210101 154.894494 
L 301.989211 158.028837 
L 301.536469 138.402506 
z
" style="fill:#f6bda2;"/>
    <path clip-path="url(#p4274749097)" d="M 314.359577 127.525602 
L 325.910641 115.939239 
L 320.346692 109.822611 
z
" style="fill:#d85646;"/>
    <path clip-path="url(#p4274749097)" d="M 300.242462 124.39263 
L 300.190677 120.910674 
L 294.210101 154.894494 
z
" style="fill:#f18d6f;"/>
    <path clip-path="url(#p4274749097)" d="M 314.85066 104.05168 
L 316.197032 104.543342 
L 314.382996 107.274639 
z
" style="fill:#b70d28;"/>
    <path clip-path="url(#p4274749097)" d="M 311.000372 110.54974 
L 308.345243 107.965099 
L 314.85066 104.05168 
z
" style="fill:#bd1f2d;"/>
    <path clip-path="url(#p4274749097)" d="M 300.190677 120.910674 
L 305.906268 110.818088 
L 305.370778 112.087078 
z
" style="fill:#d0473d;"/>
    <path clip-path="url(#p4274749097)" d="M 281.453465 190.756449 
L 278.736292 198.338976 
L 290.123673 188.474103 
z
" style="fill:#adc9fd;"/>
    <path clip-path="url(#p4274749097)" d="M 154.379425 205.671689 
L 165.10633 201.62466 
L 157.338817 202.987304 
z
" style="fill:#90b2fe;"/>
    <path clip-path="url(#p4274749097)" d="M 318.43937 105.252191 
L 316.197032 104.543342 
L 317.280619 106.89831 
z
" style="fill:#b70d28;"/>
    <path clip-path="url(#p4274749097)" d="M 301.536469 138.402506 
L 300.652302 134.847454 
L 294.210101 154.894494 
z
" style="fill:#f7a889;"/>
    <path clip-path="url(#p4274749097)" d="M 301.989211 158.028837 
L 306.506708 132.57964 
L 301.536469 138.402506 
z
" style="fill:#f7a889;"/>
    <path clip-path="url(#p4274749097)" d="M 310.020822 128.144206 
L 301.989211 158.028837 
L 314.359577 127.525602 
z
" style="fill:#f4987a;"/>
    <path clip-path="url(#p4274749097)" d="M 294.210101 154.894494 
L 300.652302 134.847454 
L 300.242462 124.39263 
z
" style="fill:#f49a7b;"/>
    <path clip-path="url(#p4274749097)" d="M 320.346692 109.822611 
L 318.43937 105.252191 
L 318.230237 108.279676 
z
" style="fill:#bd1f2d;"/>
    <path clip-path="url(#p4274749097)" d="M 310.020822 128.144206 
L 306.506708 132.57964 
L 301.989211 158.028837 
z
" style="fill:#f59d7e;"/>
    <path clip-path="url(#p4274749097)" d="M 286.544848 210.238049 
L 299.9957 177.262496 
L 290.46838 188.731805 
z
" style="fill:#afcafc;"/>
    <path clip-path="url(#p4274749097)" d="M 305.370778 112.087078 
L 305.906268 110.818088 
L 308.345243 107.965099 
z
" style="fill:#c32e31;"/>
    <path clip-path="url(#p4274749097)" d="M 290.46838 188.731805 
L 290.123673 188.474103 
L 283.29173 203.420976 
z
" style="fill:#adc9fd;"/>
    <path clip-path="url(#p4274749097)" d="M 162.675746 201.154909 
L 165.10633 201.62466 
L 179.838922 197.581082 
z
" style="fill:#9bbcff;"/>
    <path clip-path="url(#p4274749097)" d="M 318.230237 108.279676 
L 318.43937 105.252191 
L 317.280619 106.89831 
z
" style="fill:#b8122a;"/>
    <path clip-path="url(#p4274749097)" d="M 154.379425 205.671689 
L 153.284002 205.15614 
L 153.988905 215.312144 
z
" style="fill:#85a8fc;"/>
    <path clip-path="url(#p4274749097)" d="M 300.242462 124.39263 
L 306.284216 117.855083 
L 300.190677 120.910674 
z
" style="fill:#dc5d4a;"/>
    <path clip-path="url(#p4274749097)" d="M 300.190677 120.910674 
L 306.284216 117.855083 
L 305.906268 110.818088 
z
" style="fill:#d24b40;"/>
    <path clip-path="url(#p4274749097)" d="M 278.736292 198.338976 
L 281.453465 190.756449 
L 274.702995 200.575445 
z
" style="fill:#a6c4fe;"/>
    <path clip-path="url(#p4274749097)" d="M 301.536469 138.402506 
L 306.506708 132.57964 
L 300.652302 134.847454 
z
" style="fill:#f18f71;"/>
    <path clip-path="url(#p4274749097)" d="M 314.85066 104.05168 
L 317.280619 106.89831 
L 316.197032 104.543342 
z
" style="fill:#b40426;"/>
    <path clip-path="url(#p4274749097)" d="M 314.359577 127.525602 
L 320.346692 109.822611 
L 315.576978 115.401373 
z
" style="fill:#d44e41;"/>
    <path clip-path="url(#p4274749097)" d="M 301.809124 124.279106 
L 300.242462 124.39263 
L 300.652302 134.847454 
z
" style="fill:#e7745b;"/>
    <path clip-path="url(#p4274749097)" d="M 318.230237 108.279676 
L 317.760541 109.198673 
L 320.346692 109.822611 
z
" style="fill:#be242e;"/>
    <path clip-path="url(#p4274749097)" d="M 217.822496 225.306048 
L 239.812014 218.99742 
L 232.750584 217.944652 
z
" style="fill:#6788ee;"/>
    <path clip-path="url(#p4274749097)" d="M 300.652302 134.847454 
L 306.506708 132.57964 
L 301.809124 124.279106 
z
" style="fill:#eb7d62;"/>
    <path clip-path="url(#p4274749097)" d="M 320.346692 109.822611 
L 317.760541 109.198673 
L 315.576978 115.401373 
z
" style="fill:#c43032;"/>
    <path clip-path="url(#p4274749097)" d="M 313.928123 110.039848 
L 308.345243 107.965099 
L 305.906268 110.818088 
z
" style="fill:#be242e;"/>
    <path clip-path="url(#p4274749097)" d="M 278.736292 198.338976 
L 283.29173 203.420976 
L 290.123673 188.474103 
z
" style="fill:#a6c4fe;"/>
    <path clip-path="url(#p4274749097)" d="M 314.359577 127.525602 
L 313.928123 110.039848 
L 310.020822 128.144206 
z
" style="fill:#dc5d4a;"/>
    <path clip-path="url(#p4274749097)" d="M 165.10633 201.62466 
L 154.379425 205.671689 
L 157.309863 207.758697 
z
" style="fill:#92b4fe;"/>
    <path clip-path="url(#p4274749097)" d="M 317.280619 106.89831 
L 317.760541 109.198673 
L 318.230237 108.279676 
z
" style="fill:#ba162b;"/>
    <path clip-path="url(#p4274749097)" d="M 209.128638 205.701362 
L 186.062061 196.82203 
L 196.635911 199.114402 
z
" style="fill:#9dbdff;"/>
    <path clip-path="url(#p4274749097)" d="M 308.345243 107.965099 
L 313.928123 110.039848 
L 314.85066 104.05168 
z
" style="fill:#b70d28;"/>
    <path clip-path="url(#p4274749097)" d="M 315.576978 115.401373 
L 313.928123 110.039848 
L 314.359577 127.525602 
z
" style="fill:#d24b40;"/>
    <path clip-path="url(#p4274749097)" d="M 306.284216 117.855083 
L 300.242462 124.39263 
L 301.809124 124.279106 
z
" style="fill:#dc5d4a;"/>
    <path clip-path="url(#p4274749097)" d="M 306.284216 117.855083 
L 306.506708 132.57964 
L 310.020822 128.144206 
z
" style="fill:#e36c55;"/>
    <path clip-path="url(#p4274749097)" d="M 301.809124 124.279106 
L 306.506708 132.57964 
L 306.284216 117.855083 
z
" style="fill:#e16751;"/>
    <path clip-path="url(#p4274749097)" d="M 317.760541 109.198673 
L 317.280619 106.89831 
L 315.01706 112.328008 
z
" style="fill:#bd1f2d;"/>
    <path clip-path="url(#p4274749097)" d="M 315.576978 115.401373 
L 317.760541 109.198673 
L 315.01706 112.328008 
z
" style="fill:#c43032;"/>
    <path clip-path="url(#p4274749097)" d="M 314.85066 104.05168 
L 313.928123 110.039848 
L 317.280619 106.89831 
z
" style="fill:#b50927;"/>
    <path clip-path="url(#p4274749097)" d="M 305.906268 110.818088 
L 306.284216 117.855083 
L 313.928123 110.039848 
z
" style="fill:#c53334;"/>
    <path clip-path="url(#p4274749097)" d="M 196.635911 199.114402 
L 207.085156 212.403408 
L 209.128638 205.701362 
z
" style="fill:#92b4fe;"/>
    <path clip-path="url(#p4274749097)" d="M 207.085156 212.403408 
L 217.822496 225.306048 
L 232.750584 217.944652 
z
" style="fill:#6f92f3;"/>
    <path clip-path="url(#p4274749097)" d="M 313.928123 110.039848 
L 315.01706 112.328008 
L 317.280619 106.89831 
z
" style="fill:#bd1f2d;"/>
    <path clip-path="url(#p4274749097)" d="M 313.928123 110.039848 
L 306.284216 117.855083 
L 310.020822 128.144206 
z
" style="fill:#d44e41;"/>
    <path clip-path="url(#p4274749097)" d="M 315.576978 115.401373 
L 315.01706 112.328008 
L 313.928123 110.039848 
z
" style="fill:#c43032;"/>
    <path clip-path="url(#p4274749097)" d="M 153.988905 215.312144 
L 157.309863 207.758697 
L 154.379425 205.671689 
z
" style="fill:#88abfd;"/>
    <path clip-path="url(#p4274749097)" d="M 325.910641 115.939239 
L 314.359577 127.525602 
L 289.668832 236.623158 
z
" style="fill:#f2c9b4;"/>
    <path clip-path="url(#p4274749097)" d="M 290.46838 188.731805 
L 283.29173 203.420976 
L 286.544848 210.238049 
z
" style="fill:#9fbfff;"/>
    <path clip-path="url(#p4274749097)" d="M 289.668832 236.623158 
L 314.359577 127.525602 
L 299.9957 177.262496 
z
" style="fill:#d1dae9;"/>
    <path clip-path="url(#p4274749097)" d="M 274.702995 200.575445 
L 280.171283 203.857029 
L 278.736292 198.338976 
z
" style="fill:#9fbfff;"/>
    <path clip-path="url(#p4274749097)" d="M 281.313505 261.374088 
L 328.782856 119.89453 
L 325.910641 115.939239 
z
" style="fill:#edd1c2;"/>
    <path clip-path="url(#p4274749097)" d="M 283.29173 203.420976 
L 278.736292 198.338976 
L 280.171283 203.857029 
z
" style="fill:#9fbfff;"/>
    <path clip-path="url(#p4274749097)" d="M 184.898662 196.883902 
L 186.062061 196.82203 
L 179.838922 197.581082 
z
" style="fill:#abc8fd;"/>
    <path clip-path="url(#p4274749097)" d="M 165.10633 201.62466 
L 170.776882 203.686332 
L 179.838922 197.581082 
z
" style="fill:#a2c1ff;"/>
    <path clip-path="url(#p4274749097)" d="M 157.309863 207.758697 
L 170.776882 203.686332 
L 165.10633 201.62466 
z
" style="fill:#9abbff;"/>
    <path clip-path="url(#p4274749097)" d="M 274.702995 200.575445 
L 239.812014 218.99742 
L 271.811082 204.882735 
z
" style="fill:#90b2fe;"/>
    <path clip-path="url(#p4274749097)" d="M 299.9957 177.262496 
L 286.544848 210.238049 
L 289.668832 236.623158 
z
" style="fill:#92b4fe;"/>
    <path clip-path="url(#p4274749097)" d="M 184.898662 196.883902 
L 185.433605 196.920399 
L 186.062061 196.82203 
z
" style="fill:#aec9fc;"/>
    <path clip-path="url(#p4274749097)" d="M 280.171283 203.857029 
L 280.556744 204.308553 
L 283.29173 203.420976 
z
" style="fill:#9dbdff;"/>
    <path clip-path="url(#p4274749097)" d="M 283.29173 203.420976 
L 280.556744 204.308553 
L 286.544848 210.238049 
z
" style="fill:#97b8ff;"/>
    <path clip-path="url(#p4274749097)" d="M 196.635911 199.114402 
L 186.062061 196.82203 
L 188.427645 197.433599 
z
" style="fill:#adc9fd;"/>
    <path clip-path="url(#p4274749097)" d="M 179.838922 197.581082 
L 178.903218 199.310975 
L 184.898662 196.883902 
z
" style="fill:#adc9fd;"/>
    <path clip-path="url(#p4274749097)" d="M 170.776882 203.686332 
L 157.309863 207.758697 
L 153.988905 215.312144 
z
" style="fill:#90b2fe;"/>
    <path clip-path="url(#p4274749097)" d="M 188.427645 197.433599 
L 186.062061 196.82203 
L 185.433605 196.920399 
z
" style="fill:#afcafc;"/>
    <path clip-path="url(#p4274749097)" d="M 271.811082 204.882735 
L 280.171283 203.857029 
L 274.702995 200.575445 
z
" style="fill:#9fbfff;"/>
    <path clip-path="url(#p4274749097)" d="M 196.40507 199.74666 
L 202.160612 210.598337 
L 196.635911 199.114402 
z
" style="fill:#a1c0ff;"/>
    <path clip-path="url(#p4274749097)" d="M 179.838922 197.581082 
L 170.776882 203.686332 
L 178.903218 199.310975 
z
" style="fill:#a9c6fd;"/>
    <path clip-path="url(#p4274749097)" d="M 207.085156 212.403408 
L 196.635911 199.114402 
L 202.160612 210.598337 
z
" style="fill:#96b7ff;"/>
    <path clip-path="url(#p4274749097)" d="M 193.017914 200.673502 
L 196.40507 199.74666 
L 196.635911 199.114402 
z
" style="fill:#aac7fd;"/>
    <path clip-path="url(#p4274749097)" d="M 178.903218 199.310975 
L 185.433605 196.920399 
L 184.898662 196.883902 
z
" style="fill:#afcafc;"/>
    <path clip-path="url(#p4274749097)" d="M 193.017914 200.673502 
L 196.635911 199.114402 
L 188.427645 197.433599 
z
" style="fill:#abc8fd;"/>
    <path clip-path="url(#p4274749097)" d="M 280.171283 203.857029 
L 271.811082 204.882735 
L 280.556744 204.308553 
z
" style="fill:#9fbfff;"/>
    <path clip-path="url(#p4274749097)" d="M 208.354278 219.181291 
L 207.085156 212.403408 
L 203.786857 213.931651 
z
" style="fill:#84a7fc;"/>
    <path clip-path="url(#p4274749097)" d="M 202.160612 210.598337 
L 203.786857 213.931651 
L 207.085156 212.403408 
z
" style="fill:#8badfd;"/>
    <path clip-path="url(#p4274749097)" d="M 196.40507 199.74666 
L 193.030341 200.6847 
L 202.160612 210.598337 
z
" style="fill:#a2c1ff;"/>
    <path clip-path="url(#p4274749097)" d="M 193.030341 200.6847 
L 196.40507 199.74666 
L 193.017914 200.673502 
z
" style="fill:#aac7fd;"/>
    <path clip-path="url(#p4274749097)" d="M 188.427645 197.433599 
L 185.433605 196.920399 
L 182.320744 203.121142 
z
" style="fill:#aec9fc;"/>
    <path clip-path="url(#p4274749097)" d="M 286.544848 210.238049 
L 280.556744 204.308553 
L 281.411602 212.412308 
z
" style="fill:#94b6ff;"/>
    <path clip-path="url(#p4274749097)" d="M 182.320744 203.121142 
L 170.776882 203.686332 
L 153.988905 215.312144 
z
" style="fill:#98b9ff;"/>
    <path clip-path="url(#p4274749097)" d="M 208.354278 219.181291 
L 217.822496 225.306048 
L 207.085156 212.403408 
z
" style="fill:#7b9ff9;"/>
    <path clip-path="url(#p4274749097)" d="M 182.320744 203.121142 
L 185.433605 196.920399 
L 178.903218 199.310975 
z
" style="fill:#adc9fd;"/>
    <path clip-path="url(#p4274749097)" d="M 239.812014 218.99742 
L 217.822496 225.306048 
L 222.143056 224.53342 
z
" style="fill:#7295f4;"/>
    <path clip-path="url(#p4274749097)" d="M 193.017914 200.673502 
L 188.427645 197.433599 
L 190.439153 208.372561 
z
" style="fill:#a7c5fe;"/>
    <path clip-path="url(#p4274749097)" d="M 153.988905 215.312144 
L 190.439153 208.372561 
L 182.320744 203.121142 
z
" style="fill:#96b7ff;"/>
    <path clip-path="url(#p4274749097)" d="M 190.439153 208.372561 
L 208.354278 219.181291 
L 203.786857 213.931651 
z
" style="fill:#89acfd;"/>
    <path clip-path="url(#p4274749097)" d="M 178.903218 199.310975 
L 170.776882 203.686332 
L 175.561101 202.376269 
z
" style="fill:#a9c6fd;"/>
    <path clip-path="url(#p4274749097)" d="M 190.439153 208.372561 
L 203.786857 213.931651 
L 202.160612 210.598337 
z
" style="fill:#92b4fe;"/>
    <path clip-path="url(#p4274749097)" d="M 190.439153 208.372561 
L 202.160612 210.598337 
L 193.030341 200.6847 
z
" style="fill:#9dbdff;"/>
    <path clip-path="url(#p4274749097)" d="M 190.439153 208.372561 
L 193.030341 200.6847 
L 193.017914 200.673502 
z
" style="fill:#a6c4fe;"/>
    <path clip-path="url(#p4274749097)" d="M 190.439153 208.372561 
L 188.427645 197.433599 
L 182.320744 203.121142 
z
" style="fill:#a7c5fe;"/>
    <path clip-path="url(#p4274749097)" d="M 280.556744 204.308553 
L 271.811082 204.882735 
L 277.083489 208.498164 
z
" style="fill:#9fbfff;"/>
    <path clip-path="url(#p4274749097)" d="M 182.320744 203.121142 
L 178.903218 199.310975 
L 175.561101 202.376269 
z
" style="fill:#aac7fd;"/>
    <path clip-path="url(#p4274749097)" d="M 175.561101 202.376269 
L 170.776882 203.686332 
L 182.320744 203.121142 
z
" style="fill:#a7c5fe;"/>
    <path clip-path="url(#p4274749097)" d="M 281.411602 212.412308 
L 280.556744 204.308553 
L 277.083489 208.498164 
z
" style="fill:#9abbff;"/>
    <path clip-path="url(#p4274749097)" d="M 289.668832 236.623158 
L 286.544848 210.238049 
L 281.411602 212.412308 
z
" style="fill:#7da0f9;"/>
    <path clip-path="url(#p4274749097)" d="M 242.157131 210.391873 
L 271.811082 204.882735 
L 239.812014 218.99742 
z
" style="fill:#96b7ff;"/>
    <path clip-path="url(#p4274749097)" d="M 325.910641 115.939239 
L 289.668832 236.623158 
L 281.313505 261.374088 
z
" style="fill:#a9c6fd;"/>
    <path clip-path="url(#p4274749097)" d="M 222.330723 224.516593 
L 222.143056 224.53342 
L 217.822496 225.306048 
z
" style="fill:#7597f6;"/>
    <path clip-path="url(#p4274749097)" d="M 277.083489 208.498164 
L 277.165772 212.467155 
L 281.411602 212.412308 
z
" style="fill:#98b9ff;"/>
    <path clip-path="url(#p4274749097)" d="M 239.812014 218.99742 
L 222.143056 224.53342 
L 234.3915 215.092291 
z
" style="fill:#84a7fc;"/>
    <path clip-path="url(#p4274749097)" d="M 281.411602 212.412308 
L 277.165772 212.467155 
L 289.668832 236.623158 
z
" style="fill:#81a4fb;"/>
    <path clip-path="url(#p4274749097)" d="M 190.439153 208.372561 
L 153.988905 215.312144 
L 223.997117 225.419759 
z
" style="fill:#8caffe;"/>
    <path clip-path="url(#p4274749097)" d="M 277.083489 208.498164 
L 271.811082 204.882735 
L 270.348846 211.600631 
z
" style="fill:#a2c1ff;"/>
    <path clip-path="url(#p4274749097)" d="M 217.822496 225.306048 
L 208.354278 219.181291 
L 223.997117 225.419759 
z
" style="fill:#7da0f9;"/>
    <path clip-path="url(#p4274749097)" d="M 208.354278 219.181291 
L 190.439153 208.372561 
L 223.997117 225.419759 
z
" style="fill:#8badfd;"/>
    <path clip-path="url(#p4274749097)" d="M 270.348846 211.600631 
L 277.165772 212.467155 
L 277.083489 208.498164 
z
" style="fill:#9fbfff;"/>
    <path clip-path="url(#p4274749097)" d="M 289.668832 236.623158 
L 277.165772 212.467155 
L 270.348846 211.600631 
z
" style="fill:#88abfd;"/>
    <path clip-path="url(#p4274749097)" d="M 222.330723 224.516593 
L 217.822496 225.306048 
L 223.997117 225.419759 
z
" style="fill:#7b9ff9;"/>
    <path clip-path="url(#p4274749097)" d="M 234.3915 215.092291 
L 242.157131 210.391873 
L 239.812014 218.99742 
z
" style="fill:#96b7ff;"/>
    <path clip-path="url(#p4274749097)" d="M 222.330723 224.516593 
L 234.3915 215.092291 
L 222.143056 224.53342 
z
" style="fill:#86a9fc;"/>
    <path clip-path="url(#p4274749097)" d="M 271.811082 204.882735 
L 242.157131 210.391873 
L 270.348846 211.600631 
z
" style="fill:#a7c5fe;"/>
    <path clip-path="url(#p4274749097)" d="M 270.348846 211.600631 
L 265.226535 214.113761 
L 289.668832 236.623158 
z
" style="fill:#8db0fe;"/>
    <path clip-path="url(#p4274749097)" d="M 223.997117 225.419759 
L 234.3915 215.092291 
L 222.330723 224.516593 
z
" style="fill:#8db0fe;"/>
    <path clip-path="url(#p4274749097)" d="M 223.997117 225.419759 
L 153.988905 215.312144 
L 239.202624 260.483266 
z
" style="fill:#7093f3;"/>
    <path clip-path="url(#p4274749097)" d="M 289.668832 236.623158 
L 265.226535 214.113761 
L 273.623596 252.701115 
z
" style="fill:#6f92f3;"/>
    <path clip-path="url(#p4274749097)" d="M 270.348846 211.600631 
L 242.157131 210.391873 
L 265.226535 214.113761 
z
" style="fill:#a9c6fd;"/>
    <path clip-path="url(#p4274749097)" d="M 281.313505 261.374088 
L 289.668832 236.623158 
L 273.623596 252.701115 
z
" style="fill:#4b64d5;"/>
    <path clip-path="url(#p4274749097)" d="M 242.157131 210.391873 
L 234.3915 215.092291 
L 238.931866 212.645564 
z
" style="fill:#abc8fd;"/>
    <path clip-path="url(#p4274749097)" d="M 265.226535 214.113761 
L 242.157131 210.391873 
L 250.062003 215.087326 
z
" style="fill:#adc9fd;"/>
    <path clip-path="url(#p4274749097)" d="M 238.012947 214.533792 
L 234.3915 215.092291 
L 223.997117 225.419759 
z
" style="fill:#a1c0ff;"/>
    <path clip-path="url(#p4274749097)" d="M 242.157131 210.391873 
L 238.931866 212.645564 
L 240.963635 212.363236 
z
" style="fill:#b1cbfc;"/>
    <path clip-path="url(#p4274749097)" d="M 240.963635 212.363236 
L 241.754055 212.413962 
L 242.157131 210.391873 
z
" style="fill:#b2ccfb;"/>
    <path clip-path="url(#p4274749097)" d="M 234.3915 215.092291 
L 238.012947 214.533792 
L 238.931866 212.645564 
z
" style="fill:#adc9fd;"/>
    <path clip-path="url(#p4274749097)" d="M 242.157131 210.391873 
L 241.754055 212.413962 
L 242.102299 212.465858 
z
" style="fill:#b2ccfb;"/>
    <path clip-path="url(#p4274749097)" d="M 261.367396 235.70542 
L 273.623596 252.701115 
L 265.226535 214.113761 
z
" style="fill:#7a9df8;"/>
    <path clip-path="url(#p4274749097)" d="M 242.102299 212.465858 
L 242.677161 212.591454 
L 242.157131 210.391873 
z
" style="fill:#b2ccfb;"/>
    <path clip-path="url(#p4274749097)" d="M 242.677161 212.591454 
L 243.217682 212.755083 
L 242.157131 210.391873 
z
" style="fill:#b3cdfb;"/>
    <path clip-path="url(#p4274749097)" d="M 265.226535 214.113761 
L 259.435667 224.252577 
L 261.367396 235.70542 
z
" style="fill:#93b5fe;"/>
    <path clip-path="url(#p4274749097)" d="M 242.157131 210.391873 
L 243.217682 212.755083 
L 245.174158 213.714158 
z
" style="fill:#b2ccfb;"/>
    <path clip-path="url(#p4274749097)" d="M 245.174158 213.714158 
L 250.062003 215.087326 
L 242.157131 210.391873 
z
" style="fill:#b1cbfc;"/>
    <path clip-path="url(#p4274749097)" d="M 250.062003 215.087326 
L 259.435667 224.252577 
L 265.226535 214.113761 
z
" style="fill:#a6c4fe;"/>
    <path clip-path="url(#p4274749097)" d="M 240.963635 212.363236 
L 238.931866 212.645564 
L 238.012947 214.533792 
z
" style="fill:#b2ccfb;"/>
    <path clip-path="url(#p4274749097)" d="M 281.313505 261.374088 
L 273.623596 252.701115 
L 260.421189 253.42117 
z
" style="fill:#4961d2;"/>
    <path clip-path="url(#p4274749097)" d="M 238.012947 214.533792 
L 241.754055 212.413962 
L 240.963635 212.363236 
z
" style="fill:#b3cdfb;"/>
    <path clip-path="url(#p4274749097)" d="M 261.367396 235.70542 
L 259.435667 224.252577 
L 254.999651 225.497495 
z
" style="fill:#8db0fe;"/>
    <path clip-path="url(#p4274749097)" d="M 261.367396 235.70542 
L 260.421189 253.42117 
L 273.623596 252.701115 
z
" style="fill:#5e7de7;"/>
    <path clip-path="url(#p4274749097)" d="M 223.997117 225.419759 
L 239.202624 260.483266 
L 238.012947 214.533792 
z
" style="fill:#81a4fb;"/>
    <path clip-path="url(#p4274749097)" d="M 241.754055 212.413962 
L 238.012947 214.533792 
L 242.168279 215.540845 
z
" style="fill:#b2ccfb;"/>
    <path clip-path="url(#p4274749097)" d="M 242.102299 212.465858 
L 241.754055 212.413962 
L 242.168279 215.540845 
z
" style="fill:#b3cdfb;"/>
    <path clip-path="url(#p4274749097)" d="M 254.999651 225.497495 
L 259.435667 224.252577 
L 250.062003 215.087326 
z
" style="fill:#9fbfff;"/>
    <path clip-path="url(#p4274749097)" d="M 242.168279 215.540845 
L 242.677161 212.591454 
L 242.102299 212.465858 
z
" style="fill:#b3cdfb;"/>
    <path clip-path="url(#p4274749097)" d="M 242.168279 215.540845 
L 243.217682 212.755083 
L 242.677161 212.591454 
z
" style="fill:#b3cdfb;"/>
    <path clip-path="url(#p4274749097)" d="M 245.174158 213.714158 
L 243.217682 212.755083 
L 242.168279 215.540845 
z
" style="fill:#b3cdfb;"/>
    <path clip-path="url(#p4274749097)" d="M 250.062003 215.087326 
L 242.168279 215.540845 
L 254.999651 225.497495 
z
" style="fill:#a7c5fe;"/>
    <path clip-path="url(#p4274749097)" d="M 254.999651 225.497495 
L 253.106898 251.459534 
L 261.367396 235.70542 
z
" style="fill:#799cf8;"/>
    <path clip-path="url(#p4274749097)" d="M 242.168279 215.540845 
L 250.062003 215.087326 
L 245.174158 213.714158 
z
" style="fill:#b2ccfb;"/>
    <path clip-path="url(#p4274749097)" d="M 261.367396 235.70542 
L 253.106898 251.459534 
L 260.421189 253.42117 
z
" style="fill:#6282ea;"/>
    <path clip-path="url(#p4274749097)" d="M 254.999651 225.497495 
L 242.168279 215.540845 
L 253.106898 251.459534 
z
" style="fill:#8badfd;"/>
    <path clip-path="url(#p4274749097)" d="M 260.421189 253.42117 
L 239.202624 260.483266 
L 281.313505 261.374088 
z
" style="fill:#485fd1;"/>
    <path clip-path="url(#p4274749097)" d="M 239.202624 260.483266 
L 242.168279 215.540845 
L 238.012947 214.533792 
z
" style="fill:#8db0fe;"/>
    <path clip-path="url(#p4274749097)" d="M 253.106898 251.459534 
L 242.168279 215.540845 
L 239.202624 260.483266 
z
" style="fill:#6f92f3;"/>
    <path clip-path="url(#p4274749097)" d="M 239.202624 260.483266 
L 260.421189 253.42117 
L 253.106898 251.459534 
z
" style="fill:#516ddb;"/>
   </g>
  </g>
 </g>
 <defs>
  <clipPath id="p4274749097">
   <rect height="266.112" width="266.112" x="103.104" y="41.472"/>
  </clipPath>
 </defs>
</svg>
